OSP-DIN.ufo
<glyph name="dollar" format="1">
  <advance width="830"/>
  <unicode hex="0024"/>
  <outline>
    <contour>
      <point x="106" y="309" type="line" smooth="yes"/>
      <point x="106" y="224.333"/>
      <point x="136" y="152"/>
      <point x="196" y="92" type="curve" smooth="yes"/>
      <point x="231.333" y="57.333"/>
      <point x="270.333" y="32.667"/>
      <point x="313" y="18" type="curve"/>
      <point x="313" y="-152" type="line"/>
      <point x="518" y="-152" type="line"/>
      <point x="518" y="19" type="line"/>
      <point x="559.333" y="33.667"/>
      <point x="597" y="58"/>
      <point x="631" y="92" type="curve" smooth="yes"/>
      <point x="691" y="152"/>
      <point x="721" y="224.333"/>
      <point x="721" y="309" type="curve" smooth="yes"/>
      <point x="721" y="514" type="line" smooth="yes"/>
      <point x="721" y="592"/>
      <point x="692.667" y="662.667"/>
      <point x="636" y="726" type="curve" smooth="yes"/>
      <point x="579.333" y="789.333"/>
      <point x="505.333" y="821"/>
      <point x="414" y="821" type="curve" smooth="yes"/>
      <point x="385.333" y="821"/>
      <point x="361" y="831"/>
      <point x="341" y="851" type="curve" smooth="yes"/>
      <point x="321" y="871"/>
      <point x="311" y="895.333"/>
      <point x="311" y="924" type="curve" smooth="yes"/>
      <point x="311" y="1128" type="line" smooth="yes"/>
      <point x="311" y="1156.667"/>
      <point x="321" y="1181"/>
      <point x="341" y="1201" type="curve" smooth="yes"/>
      <point x="361" y="1221"/>
      <point x="385.333" y="1231"/>
      <point x="414" y="1231" type="curve" smooth="yes"/>
      <point x="442.667" y="1231"/>
      <point x="466.833" y="1221"/>
      <point x="486.5" y="1201" type="curve" smooth="yes"/>
      <point x="506.167" y="1181"/>
      <point x="516" y="1156.667"/>
      <point x="516" y="1128" type="curve" smooth="yes"/>
      <point x="516" y="1026" type="line"/>
      <point x="721" y="1026" type="line"/>
      <point x="721" y="1128" type="line" smooth="yes"/>
      <point x="721" y="1212.667"/>
      <point x="691" y="1285"/>
      <point x="631" y="1345" type="curve" smooth="yes"/>
      <point x="597" y="1379"/>
      <point x="559.333" y="1403.667"/>
      <point x="518" y="1419" type="curve"/>
      <point x="518" y="1589" type="line"/>
      <point x="313" y="1589" type="line"/>
      <point x="313" y="1420" type="line"/>
      <point x="270.333" y="1405.333"/>
      <point x="231.333" y="1380.333"/>
      <point x="196" y="1345" type="curve" smooth="yes"/>
      <point x="136" y="1285"/>
      <point x="106" y="1212.667"/>
      <point x="106" y="1128" type="curve" smooth="yes"/>
      <point x="106" y="924" type="line" smooth="yes"/>
      <point x="106" y="846"/>
      <point x="134.333" y="775.333"/>
      <point x="191" y="712" type="curve" smooth="yes"/>
      <point x="247.667" y="648.667"/>
      <point x="322" y="616.667"/>
      <point x="414" y="616" type="curve" smooth="yes"/>
      <point x="442.667" y="616"/>
      <point x="466.833" y="606.167"/>
      <point x="486.5" y="586.5" type="curve" smooth="yes"/>
      <point x="506.167" y="566.833"/>
      <point x="516" y="542.667"/>
      <point x="516" y="514" type="curve" smooth="yes"/>
      <point x="516" y="309" type="line" smooth="yes"/>
      <point x="516" y="280.333"/>
      <point x="506.167" y="256.167"/>
      <point x="486.5" y="236.5" type="curve" smooth="yes"/>
      <point x="466.833" y="216.833"/>
      <point x="442.667" y="207"/>
      <point x="414" y="207" type="curve" smooth="yes"/>
      <point x="385.333" y="207"/>
      <point x="361" y="216.833"/>
      <point x="341" y="236.5" type="curve" smooth="yes"/>
      <point x="321" y="256.167"/>
      <point x="311" y="280.333"/>
      <point x="311" y="309" type="curve" smooth="yes"/>
      <point x="311" y="412" type="line"/>
      <point x="106" y="412" type="line"/>
    </contour>
  </outline>
</glyph>
<glyph name="ampersand" format="1">
  <advance width="758"/>
  <unicode hex="0026"/>
  <outline>
    <contour>
      <point x="397" y="0" type="curve" smooth="yes"/>
      <point x="497" y="0" type="line" smooth="yes"/>
      <point x="581.667" y="0"/>
      <point x="654" y="30"/>
      <point x="714" y="90" type="curve" smooth="yes"/>
      <point x="774" y="150"/>
      <point x="804" y="222.333"/>
      <point x="804" y="307" type="curve" smooth="yes"/>
      <point x="804" y="468" type="line" smooth="yes"/>
      <point x="800.667" y="612.667"/>
      <point x="732.667" y="687.389"/>
      <point x="600" y="692.167" type="curve"/>
      <point x="908" y="692" type="line"/>
      <point x="908" y="880" type="line"/>
      <point x="497" y="880" type="line"/>
      <point x="497" y="692" type="line"/>
      <point x="525.667" y="692"/>
      <point x="549.833" y="682.167"/>
      <point x="569.5" y="662.5" type="curve" smooth="yes"/>
      <point x="589.167" y="642.833"/>
      <point x="599" y="618.667"/>
      <point x="599" y="590" type="curve" smooth="yes"/>
      <point x="599" y="307" type="line" smooth="yes"/>
      <point x="599" y="278.333"/>
      <point x="589.167" y="254.167"/>
      <point x="569.5" y="234.5" type="curve" smooth="yes"/>
      <point x="549.833" y="214.833"/>
      <point x="525.667" y="205"/>
      <point x="497" y="205" type="curve" smooth="yes"/>
      <point x="397" y="205" type="line" smooth="yes"/>
      <point x="368.333" y="205"/>
      <point x="344" y="214.833"/>
      <point x="324" y="234.5" type="curve" smooth="yes"/>
      <point x="304" y="254.167"/>
      <point x="294" y="278.333"/>
      <point x="294" y="307" type="curve" smooth="yes"/>
      <point x="294" y="590" type="line" smooth="yes"/>
      <point x="294" y="618.667"/>
      <point x="304" y="642.833"/>
      <point x="324" y="662.5" type="curve" smooth="yes"/>
      <point x="344" y="682.167"/>
      <point x="368.333" y="692"/>
      <point x="397" y="692" type="curve"/>
      <point x="397" y="897" type="line"/>
      <point x="368.333" y="897"/>
      <point x="344" y="906.5"/>
      <point x="324" y="925.5" type="curve" smooth="yes"/>
      <point x="304" y="944.5"/>
      <point x="294" y="969"/>
      <point x="294" y="999" type="curve" smooth="yes"/>
      <point x="294" y="1170" type="line" smooth="yes"/>
      <point x="294" y="1198.667"/>
      <point x="304" y="1223"/>
      <point x="324" y="1243" type="curve" smooth="yes"/>
      <point x="344" y="1263"/>
      <point x="368.333" y="1273"/>
      <point x="397" y="1273" type="curve" smooth="yes"/>
      <point x="425.667" y="1273"/>
      <point x="449.833" y="1263"/>
      <point x="469.5" y="1243" type="curve" smooth="yes"/>
      <point x="489.167" y="1223"/>
      <point x="499" y="1198.667"/>
      <point x="499" y="1170" type="curve"/>
      <point x="704" y="1170" type="line"/>
      <point x="704" y="1254.667"/>
      <point x="674" y="1327.167"/>
      <point x="614" y="1387.5" type="curve" smooth="yes"/>
      <point x="554" y="1447.833"/>
      <point x="481.667" y="1478"/>
      <point x="397" y="1478" type="curve" smooth="yes"/>
      <point x="312.333" y="1478"/>
      <point x="240" y="1447.833"/>
      <point x="180" y="1387.5" type="curve" smooth="yes"/>
      <point x="120" y="1327.167"/>
      <point x="90" y="1254.667"/>
      <point x="90" y="1170" type="curve" smooth="yes"/>
      <point x="90" y="999" type="line" smooth="yes"/>
      <point x="89.333" y="920.333"/>
      <point x="115" y="852.333"/>
      <point x="167" y="795" type="curve"/>
      <point x="115.667" y="736.333"/>
      <point x="90" y="668"/>
      <point x="90" y="590" type="curve" smooth="yes"/>
      <point x="90" y="307" type="line" smooth="yes"/>
      <point x="90" y="222.333"/>
      <point x="120" y="150"/>
      <point x="180" y="90" type="curve" smooth="yes"/>
      <point x="240" y="30"/>
      <point x="312.333" y="0"/>
    </contour>
  </outline>
</glyph>
<glyph name="plus" format="1">
  <advance width="1013"/>
  <unicode hex="002B"/>
  <outline>
    <contour>
      <point x="918" y="617" type="line"/>
      <point x="918" y="411" type="line"/>
      <point x="610" y="411" type="line"/>
      <point x="610" y="103" type="line"/>
      <point x="404" y="103" type="line"/>
      <point x="404" y="411" type="line"/>
      <point x="96" y="411" type="line"/>
      <point x="96" y="617" type="line"/>
      <point x="404" y="617" type="line"/>
      <point x="404" y="924" type="line"/>
      <point x="610" y="924" type="line"/>
      <point x="610" y="617" type="line"/>
    </contour>
  </outline>
</glyph>
<glyph name="semicolon" format="1">
  <advance width="376"/>
  <unicode hex="003B"/>
  <outline>
    <contour>
      <point x="86" y="1024" type="line"/>
      <point x="291" y="1024" type="line"/>
      <point x="291" y="819" type="line"/>
      <point x="86" y="819" type="line"/>
    </contour>
    <contour>
      <point x="89" y="273" type="line"/>
      <point x="294" y="273" type="line"/>
      <point x="291" y="0" type="line"/>
      <point x="86" y="-205" type="line"/>
    </contour>
  </outline>
</glyph>
<glyph name="equal" format="1">
  <advance width="671"/>
  <unicode hex="003D"/>
  <outline>
    <contour>
      <point x="90" y="479" type="line"/>
      <point x="582" y="479" type="line"/>
      <point x="582" y="315" type="line"/>
      <point x="90" y="315" type="line"/>
    </contour>
    <contour>
      <point x="90" y="729" type="line"/>
      <point x="582" y="729" type="line"/>
      <point x="582" y="565" type="line"/>
      <point x="90" y="565" type="line"/>
    </contour>
  </outline>
</glyph>
<glyph name="greater" format="1">
  <advance width="901"/>
  <unicode hex="003E"/>
  <outline>
    <contour>
      <point x="450" y="956" type="line"/>
      <point x="450" y="739" type="line"/>
      <point x="664" y="527" type="line"/>
      <point x="450" y="314" type="line"/>
      <point x="450" y="98" type="line"/>
      <point x="881" y="527" type="line"/>
    </contour>
  </outline>
</glyph>
<glyph name="at" format="1">
  <advance width="1251"/>
  <unicode hex="0040"/>
  <outline>
    <contour>
      <point x="104" y="1025" type="curve"/>
      <point x="309" y="1025" type="line"/>
      <point x="309" y="1054"/>
      <point x="319" y="1078"/>
      <point x="339" y="1098" type="curve"/>
      <point x="358" y="1117"/>
      <point x="382" y="1127"/>
      <point x="411" y="1127" type="curve"/>
      <point x="817" y="1127" type="line"/>
      <point x="846" y="1127"/>
      <point x="870" y="1117"/>
      <point x="890" y="1098" type="curve"/>
      <point x="909" y="1078"/>
      <point x="919" y="1053"/>
      <point x="919" y="1024" type="curve"/>
      <point x="919" y="410" type="line"/>
      <point x="920" y="410" type="line"/>
      <point x="920" y="281" type="line"/>
      <point x="920" y="259"/>
      <point x="913" y="241"/>
      <point x="898" y="226" type="curve"/>
      <point x="883" y="211"/>
      <point x="864" y="203"/>
      <point x="842" y="203" type="curve"/>
      <point x="819" y="203" type="line"/>
      <point x="817" y="718" type="line"/>
      <point x="817" y="803"/>
      <point x="787" y="875"/>
      <point x="727" y="935" type="curve"/>
      <point x="667" y="994"/>
      <point x="595" y="1024"/>
      <point x="510" y="1024" type="curve"/>
      <point x="425" y="1024"/>
      <point x="353" y="994"/>
      <point x="293" y="935" type="curve"/>
      <point x="233" y="875"/>
      <point x="203" y="803"/>
      <point x="203" y="718" type="curve"/>
      <point x="408" y="718" type="line"/>
      <point x="408" y="747"/>
      <point x="418" y="771"/>
      <point x="438" y="791" type="curve"/>
      <point x="457" y="810"/>
      <point x="481" y="820"/>
      <point x="510" y="820" type="curve"/>
      <point x="539" y="820"/>
      <point x="563" y="810"/>
      <point x="583" y="791" type="curve"/>
      <point x="603" y="771"/>
      <point x="613" y="747"/>
      <point x="613" y="718" type="curve"/>
      <point x="613" y="689"/>
      <point x="603" y="665"/>
      <point x="583" y="645" type="curve"/>
      <point x="563" y="625"/>
      <point x="539" y="615"/>
      <point x="510" y="615" type="curve"/>
      <point x="425" y="615"/>
      <point x="353" y="585"/>
      <point x="293" y="525" type="curve"/>
      <point x="233" y="465"/>
      <point x="203" y="393"/>
      <point x="203" y="308" type="curve"/>
      <point x="203" y="206" type="line"/>
      <point x="205" y="185" type="line"/>
      <point x="205" y="155"/>
      <point x="219" y="117"/>
      <point x="247" y="73" type="curve"/>
      <point x="260" y="54"/>
      <point x="281" y="37"/>
      <point x="309" y="23" type="curve"/>
      <point x="337" y="8"/>
      <point x="370" y="1"/>
      <point x="408" y="1" type="curve"/>
      <point x="446" y="1"/>
      <point x="479" y="8"/>
      <point x="507" y="23" type="curve"/>
      <point x="552" y="48"/>
      <point x="583" y="84"/>
      <point x="600" y="133" type="curve"/>
      <point x="607" y="156"/>
      <point x="611" y="171"/>
      <point x="612" y="180" type="curve"/>
      <point x="613" y="180" type="line"/>
      <point x="618" y="134"/>
      <point x="639" y="93"/>
      <point x="676" y="56" type="curve"/>
      <point x="713" y="19"/>
      <point x="760" y="0"/>
      <point x="817" y="0" type="curve"/>
      <point x="817" y="1" type="line"/>
      <point x="821" y="0"/>
      <point x="853" y="0"/>
      <point x="914" y="0" type="curve"/>
      <point x="975" y="0"/>
      <point x="1025" y="20"/>
      <point x="1065" y="60" type="curve"/>
      <point x="1104" y="99"/>
      <point x="1124" y="147"/>
      <point x="1124" y="203" type="curve"/>
      <point x="1124" y="1024" type="line"/>
      <point x="1124" y="1109"/>
      <point x="1094" y="1181"/>
      <point x="1034" y="1242" type="curve"/>
      <point x="974" y="1302"/>
      <point x="902" y="1332"/>
      <point x="817" y="1332" type="curve"/>
      <point x="407" y="1332" type="line"/>
      <point x="407" y="1331" type="line"/>
      <point x="324" y="1330"/>
      <point x="253" y="1300"/>
      <point x="194" y="1241" type="curve"/>
      <point x="134" y="1182"/>
      <point x="104" y="1110"/>
    </contour>
    <contour>
      <point x="408" y="308" type="curve" smooth="yes"/>
      <point x="408" y="337"/>
      <point x="418" y="361"/>
      <point x="438" y="381" type="curve" smooth="yes"/>
      <point x="457" y="401"/>
      <point x="483" y="411"/>
      <point x="516" y="411" type="curve" smooth="yes"/>
      <point x="548" y="411"/>
      <point x="580" y="417"/>
      <point x="613" y="429" type="curve"/>
      <point x="613" y="301" type="line" smooth="yes"/>
      <point x="612" y="274"/>
      <point x="602" y="251"/>
      <point x="583" y="233" type="curve" smooth="yes"/>
      <point x="564" y="215"/>
      <point x="543" y="206"/>
      <point x="518" y="206" type="curve" smooth="yes"/>
      <point x="454" y="206"/>
      <point x="418" y="236"/>
      <point x="409" y="297" type="curve" smooth="yes"/>
      <point x="408" y="302"/>
      <point x="408" y="305"/>
    </contour>
  </outline>
</glyph>
<glyph name="A" format="1">
  <advance width="825"/>
  <unicode hex="0041"/>
  <outline>
    <contour>
      <point x="311" y="1434" type="line"/>
      <point x="514" y="1434" type="line"/>
      <point x="821" y="0" type="line"/>
      <point x="618" y="0" type="line"/>
      <point x="557" y="307" type="line"/>
      <point x="268" y="309" type="line"/>
      <point x="207" y="0" type="line"/>
      <point x="4" y="0" type="line"/>
    </contour>
    <contour>
      <point x="412" y="1024" type="line"/>
      <point x="309" y="510" type="line"/>
      <point x="516" y="510" type="line"/>
      <point x="414" y="1024" type="line"/>
    </contour>
  </outline>
</glyph>
<glyph name="F" format="1">
  <advance width="749"/>
  <unicode hex="0046"/>
  <outline>
    <contour>
      <point x="98" y="1434" type="line"/>
      <point x="98" y="0" type="line"/>
      <point x="303" y="0" type="line"/>
      <point x="303" y="614" type="line"/>
      <point x="610" y="614" type="line"/>
      <point x="610" y="819" type="line"/>
      <point x="303" y="819" type="line"/>
      <point x="303" y="1229" type="line"/>
      <point x="713" y="1229" type="line"/>
      <point x="713" y="1434" type="line"/>
    </contour>
  </outline>
</glyph>
<glyph name="J" format="1">
  <advance width="462"/>
  <unicode hex="004A"/>
  <outline>
    <contour>
      <point x="160" y="1434" type="line"/>
      <point x="365" y="1434" type="line"/>
      <point x="365" y="205" type="line" smooth="yes"/>
      <point x="365" y="149"/>
      <point x="344.833" y="100.833"/>
      <point x="304.5" y="60.5" type="curve" smooth="yes"/>
      <point x="264.167" y="20.167"/>
      <point x="216" y="0"/>
      <point x="160" y="0" type="curve" smooth="yes"/>
      <point x="-45" y="0" type="line"/>
      <point x="-45" y="205" type="line"/>
      <point x="57" y="205" type="line" smooth="yes"/>
      <point x="85.667" y="205"/>
      <point x="110" y="214.833"/>
      <point x="130" y="234.5" type="curve" smooth="yes"/>
      <point x="150" y="254.167"/>
      <point x="160" y="278.333"/>
      <point x="160" y="307" type="curve" smooth="yes"/>
    </contour>
  </outline>
</glyph>
<glyph name="K" format="1">
  <advance width="706"/>
  <unicode hex="004B"/>
  <outline>
    <contour>
      <point x="98" y="1434" type="line"/>
      <point x="303" y="1434" type="line"/>
      <point x="303" y="922" type="line"/>
      <point x="508" y="1434" type="line"/>
      <point x="713" y="1434" type="line"/>
      <point x="477" y="844" type="line"/>
      <point x="713" y="0" type="line"/>
      <point x="508" y="0" type="line"/>
      <point x="354" y="537" type="line"/>
      <point x="303" y="410" type="line"/>
      <point x="303" y="0" type="line"/>
      <point x="98" y="0" type="line"/>
    </contour>
  </outline>
</glyph>
<glyph name="T" format="1">
  <advance width="602"/>
  <unicode hex="0054"/>
  <outline>
    <contour>
      <point x="-6" y="1434" type="line"/>
      <point x="608" y="1434" type="line"/>
      <point x="608" y="1229" type="line"/>
      <point x="403" y="1229" type="line"/>
      <point x="403" y="0" type="line"/>
      <point x="199" y="0" type="line"/>
      <point x="199" y="1229" type="line"/>
      <point x="-6" y="1229" type="line"/>
    </contour>
  </outline>
</glyph>
<glyph name="W" format="1">
  <advance width="1296"/>
  <unicode hex="0057"/>
  <outline>
    <contour>
      <point x="33" y="1436" type="line"/>
      <point x="289" y="0" type="line"/>
      <point x="496" y="0" type="line"/>
      <point x="649" y="856" type="line"/>
      <point x="801" y="0" type="line"/>
      <point x="1008" y="0" type="line"/>
      <point x="1264" y="1434" type="line"/>
      <point x="1057" y="1434" type="line"/>
      <point x="905" y="596" type="line"/>
      <point x="752" y="1436" type="line"/>
      <point x="545" y="1436" type="line"/>
      <point x="391" y="596" type="line"/>
      <point x="240" y="1436" type="line"/>
    </contour>
  </outline>
</glyph>
<glyph name="X" format="1">
  <advance width="712"/>
  <unicode hex="0058"/>
  <outline>
    <contour>
      <point x="252" y="717" type="line"/>
      <point x="-4" y="0" type="line"/>
      <point x="203" y="0" type="line"/>
      <point x="356" y="432" type="line"/>
      <point x="508" y="0" type="line"/>
      <point x="715" y="0" type="line"/>
      <point x="459" y="717" type="line"/>
      <point x="715" y="1436" type="line"/>
      <point x="508" y="1436" type="line"/>
      <point x="356" y="1004" type="line"/>
      <point x="203" y="1436" type="line"/>
      <point x="-4" y="1436" type="line"/>
    </contour>
  </outline>
</glyph>
<glyph name="Y" format="1">
  <advance width="737"/>
  <unicode hex="0059"/>
  <outline>
    <contour>
      <point x="262" y="408" type="line"/>
      <point x="262" y="-2" type="line"/>
      <point x="469" y="-2" type="line"/>
      <point x="469" y="408" type="line"/>
      <point x="725" y="1434" type="line"/>
      <point x="518" y="1434" type="line"/>
      <point x="367" y="821" type="line"/>
      <point x="213" y="1434" type="line"/>
      <point x="6" y="1434" type="line"/>
    </contour>
  </outline>
</glyph>
<glyph name="Z" format="1">
  <advance width="673"/>
  <unicode hex="005A"/>
  <outline>
    <contour>
      <point x="31" y="1434" type="line"/>
      <point x="31" y="1229" type="line"/>
      <point x="440" y="1229" type="line"/>
      <point x="31" y="203" type="line"/>
      <point x="31" y="0" type="line"/>
      <point x="643" y="0" type="line"/>
      <point x="643" y="203" type="line"/>
      <point x="233" y="203" type="line"/>
      <point x="643" y="1229" type="line"/>
      <point x="643" y="1432" type="line"/>
    </contour>
  </outline>
</glyph>
<glyph name="backslash" format="1">
  <advance width="519"/>
  <unicode hex="005C"/>
  <outline>
    <contour>
      <point x="193" y="1637" type="line"/>
      <point x="20" y="1637" type="line"/>
      <point x="326" y="-203" type="line"/>
      <point x="499" y="-203" type="line"/>
    </contour>
  </outline>
</glyph>
<glyph name="bracketright" format="1">
  <advance width="544"/>
  <unicode hex="005D"/>
  <outline>
    <contour>
      <point x="16" y="1535" type="line"/>
      <point x="220" y="1535" type="line"/>
      <point x="220" y="-102" type="line"/>
      <point x="16" y="-102" type="line"/>
      <point x="16" y="-204" type="line"/>
      <point x="426" y="-204" type="line"/>
      <point x="426" y="-102" type="line"/>
      <point x="426" y="1535" type="line"/>
      <point x="426" y="1637" type="line"/>
      <point x="16" y="1637" type="line"/>
    </contour>
  </outline>
</glyph>
<glyph name="grave" format="1">
  <advance width="444"/>
  <unicode hex="0060"/>
  <outline>
    <contour>
      <point x="40" y="1462" type="line"/>
      <point x="234" y="1462" type="line"/>
      <point x="404" y="1224" type="line"/>
      <point x="243" y="1224" type="line"/>
    </contour>
  </outline>
</glyph>
<glyph name="j" format="1">
  <advance width="348"/>
  <unicode hex="006A"/>
  <outline>
    <contour>
      <point x="57" y="1434" type="line"/>
      <point x="262" y="1434" type="line"/>
      <point x="262" y="1229" type="line"/>
      <point x="57" y="1229" type="line"/>
    </contour>
    <contour>
      <point x="57" y="1024" type="line"/>
      <point x="262" y="1024" type="line"/>
      <point x="262" y="0" type="line" smooth="yes"/>
      <point x="262" y="-84.667"/>
      <point x="232" y="-157"/>
      <point x="172" y="-217" type="curve" smooth="yes"/>
      <point x="112" y="-277"/>
      <point x="39.667" y="-307"/>
      <point x="-45" y="-307" type="curve"/>
      <point x="-45" y="-102" type="line"/>
      <point x="-16.333" y="-102"/>
      <point x="7.833" y="-92.167"/>
      <point x="27.5" y="-72.5" type="curve" smooth="yes"/>
      <point x="47.167" y="-52.833"/>
      <point x="57" y="-28.667"/>
      <point x="57" y="0" type="curve" smooth="yes"/>
    </contour>
  </outline>
</glyph>
<glyph name="w" format="1">
  <advance width="1028"/>
  <unicode hex="0077"/>
  <outline>
    <contour>
      <point x="2" y="1024" type="line"/>
      <point x="207" y="1024" type="line"/>
      <point x="309" y="512" type="line"/>
      <point x="412" y="1024" type="line"/>
      <point x="616" y="1024" type="line"/>
      <point x="719" y="512" type="line"/>
      <point x="821" y="1024" type="line"/>
      <point x="1026" y="1024" type="line"/>
      <point x="821" y="0" type="line"/>
      <point x="616" y="0" type="line"/>
      <point x="514" y="512" type="line"/>
      <point x="412" y="0" type="line"/>
      <point x="207" y="0" type="line"/>
    </contour>
  </outline>
</glyph>
<glyph name="y" format="1">
  <advance width="610"/>
  <unicode hex="0079"/>
  <outline>
    <contour>
      <point x="-2" y="1024" type="line"/>
      <point x="203" y="1024" type="line"/>
      <point x="305" y="512" type="line"/>
      <point x="408" y="1024" type="line"/>
      <point x="612" y="1024" type="line"/>
      <point x="408" y="0" type="line"/>
      <point x="408" y="-84.667"/>
      <point x="377.833" y="-157"/>
      <point x="317.5" y="-217" type="curve" smooth="yes"/>
      <point x="257.167" y="-277"/>
      <point x="184.667" y="-307"/>
      <point x="100" y="-307" type="curve"/>
      <point x="100" y="-102" type="line"/>
      <point x="128.667" y="-102"/>
      <point x="153" y="-92.167"/>
      <point x="173" y="-72.5" type="curve" smooth="yes"/>
      <point x="193" y="-52.833"/>
      <point x="203" y="-28.667"/>
      <point x="203" y="0" type="curve"/>
    </contour>
  </outline>
</glyph>
<glyph name="cent" format="1">
  <advance width="733"/>
  <unicode hex="00A2"/>
  <outline>
    <contour>
      <point x="82" y="358" type="line" smooth="yes"/>
      <point x="82" y="273.333"/>
      <point x="112" y="201"/>
      <point x="172" y="141" type="curve" smooth="yes"/>
      <point x="203.333" y="109.667"/>
      <point x="237.667" y="86.667"/>
      <point x="275" y="72" type="curve"/>
      <point x="275" y="-96" type="line"/>
      <point x="480" y="-96" type="line"/>
      <point x="480" y="64" type="line"/>
      <point x="526.667" y="78"/>
      <point x="568.667" y="103.667"/>
      <point x="606" y="141" type="curve" smooth="yes"/>
      <point x="666" y="201"/>
      <point x="696" y="273.333"/>
      <point x="696" y="358" type="curve"/>
      <point x="492" y="358" type="line"/>
      <point x="492" y="329.333"/>
      <point x="482" y="305.167"/>
      <point x="462" y="285.5" type="curve" smooth="yes"/>
      <point x="442" y="265.833"/>
      <point x="417.667" y="256"/>
      <point x="389" y="256" type="curve" smooth="yes"/>
      <point x="360.333" y="256"/>
      <point x="336.167" y="265.833"/>
      <point x="316.5" y="285.5" type="curve" smooth="yes"/>
      <point x="296.833" y="305.167"/>
      <point x="287" y="329.333"/>
      <point x="287" y="358" type="curve" smooth="yes"/>
      <point x="287" y="768" type="line" smooth="yes"/>
      <point x="287" y="796.667"/>
      <point x="296.833" y="820.833"/>
      <point x="316.5" y="840.5" type="curve" smooth="yes"/>
      <point x="336.167" y="860.167"/>
      <point x="360.333" y="870"/>
      <point x="389" y="870" type="curve" smooth="yes"/>
      <point x="417.667" y="870"/>
      <point x="442" y="860.167"/>
      <point x="462" y="840.5" type="curve" smooth="yes"/>
      <point x="482" y="820.833"/>
      <point x="492" y="796.667"/>
      <point x="492" y="768" type="curve"/>
      <point x="696" y="768" type="line"/>
      <point x="696" y="852.667"/>
      <point x="666" y="925"/>
      <point x="606" y="985" type="curve" smooth="yes"/>
      <point x="566.667" y="1024.333"/>
      <point x="522" y="1050.667"/>
      <point x="472" y="1064" type="curve"/>
      <point x="472" y="1224" type="line"/>
      <point x="267" y="1224" type="line"/>
      <point x="267" y="1051" type="line"/>
      <point x="232.333" y="1035.667"/>
      <point x="200.667" y="1013.667"/>
      <point x="172" y="985" type="curve" smooth="yes"/>
      <point x="112" y="925"/>
      <point x="82" y="852.667"/>
      <point x="82" y="768" type="curve" smooth="yes"/>
    </contour>
  </outline>
</glyph>
<glyph name="sterling" format="1">
  <advance width="900"/>
  <unicode hex="00A3"/>
  <outline>
    <contour>
      <point x="2" y="616" type="line"/>
      <point x="207" y="616" type="line"/>
      <point x="207" y="2" type="line"/>
      <point x="821" y="2" type="line"/>
      <point x="821" y="207" type="line"/>
      <point x="412" y="207" type="line"/>
      <point x="412" y="616" type="line"/>
      <point x="616" y="616" type="line"/>
      <point x="616" y="821" type="line"/>
      <point x="412" y="821" type="line"/>
      <point x="412" y="1230" type="line"/>
      <point x="414" y="1230" type="line"/>
      <point x="414" y="1258.667"/>
      <point x="424" y="1282.667"/>
      <point x="444" y="1302" type="curve" smooth="yes"/>
      <point x="464" y="1321.333"/>
      <point x="488.333" y="1331"/>
      <point x="517" y="1331" type="curve" smooth="yes"/>
      <point x="545.667" y="1331"/>
      <point x="569.833" y="1321.167"/>
      <point x="589.5" y="1301.5" type="curve" smooth="yes"/>
      <point x="609.167" y="1281.833"/>
      <point x="619" y="1258"/>
      <point x="619" y="1230" type="curve"/>
      <point x="824" y="1230" type="line"/>
      <point x="822.667" y="1318"/>
      <point x="792.167" y="1391.167"/>
      <point x="732.5" y="1449.5" type="curve" smooth="yes"/>
      <point x="672.833" y="1507.833"/>
      <point x="600.667" y="1537"/>
      <point x="516" y="1537" type="curve" smooth="yes"/>
      <point x="431.333" y="1537"/>
      <point x="359.167" y="1507.167"/>
      <point x="299.5" y="1447.5" type="curve" smooth="yes"/>
      <point x="239.833" y="1387.833"/>
      <point x="210" y="1315.333"/>
      <point x="210" y="1230" type="curve" smooth="yes"/>
      <point x="207" y="1026" type="line"/>
      <point x="207" y="821" type="line"/>
      <point x="2" y="821" type="line"/>
    </contour>
  </outline>
</glyph>
<glyph name="yen" format="1">
  <advance width="825"/>
  <unicode hex="00A5"/>
  <outline>
    <contour>
      <point x="89" y="1436" type="line"/>
      <point x="212" y="968" type="line"/>
      <point x="143" y="968" type="line"/>
      <point x="143" y="764" type="line"/>
      <point x="266" y="764" type="line"/>
      <point x="292" y="665" type="line"/>
      <point x="143" y="665" type="line"/>
      <point x="143" y="461" type="line"/>
      <point x="345" y="461" type="line"/>
      <point x="345" y="0" type="line"/>
      <point x="552" y="0" type="line"/>
      <point x="552" y="461" type="line"/>
      <point x="757" y="461" type="line"/>
      <point x="757" y="665" type="line"/>
      <point x="605" y="665" type="line"/>
      <point x="631" y="764" type="line"/>
      <point x="757" y="764" type="line"/>
      <point x="757" y="968" type="line"/>
      <point x="685" y="968" type="line"/>
      <point x="808" y="1436" type="line"/>
      <point x="601" y="1436" type="line"/>
      <point x="450" y="823" type="line"/>
      <point x="296" y="1436" type="line"/>
    </contour>
  </outline>
</glyph>
<glyph name="brokenbar" format="1">
  <advance width="825"/>
  <unicode hex="00A6"/>
  <outline>
    <contour>
      <point x="184" y="-1" type="line"/>
      <point x="389" y="-1" type="line"/>
      <point x="389" y="614" type="line"/>
      <point x="184" y="614" type="line"/>
    </contour>
    <contour>
      <point x="184" y="827" type="line"/>
      <point x="389" y="827" type="line"/>
      <point x="389" y="1442" type="line"/>
      <point x="184" y="1442" type="line"/>
    </contour>
  </outline>
</glyph>
<glyph name="section" format="1">
  <advance width="825"/>
  <unicode hex="00A7"/>
  <outline>
    <contour>
      <point x="95" y="291" type="line"/>
      <point x="95" y="236.333"/>
      <point x="108.833" y="185.333"/>
      <point x="136.5" y="138" type="curve"/>
      <point x="164.167" y="90.667"/>
      <point x="201.5" y="53.167"/>
      <point x="248.5" y="25.5" type="curve"/>
      <point x="295.5" y="-2.167"/>
      <point x="346.667" y="-16"/>
      <point x="402" y="-16" type="curve"/>
      <point x="486" y="-16"/>
      <point x="558.333" y="14.167"/>
      <point x="619" y="74.5" type="curve"/>
      <point x="679.667" y="134.833"/>
      <point x="710.333" y="205.333"/>
      <point x="711" y="286" type="curve"/>
      <point x="711.667" y="366.667"/>
      <point x="686.667" y="435.667"/>
      <point x="636" y="493" type="curve"/>
      <point x="690.667" y="551"/>
      <point x="718" y="620.333"/>
      <point x="718" y="701" type="curve"/>
      <point x="718" y="804.088"/>
      <point x="675.667" y="886.588"/>
      <point x="591" y="948.5" type="curve"/>
      <point x="537.667" y="987.5"/>
      <point x="478.667" y="1007.333"/>
      <point x="414" y="1008" type="curve"/>
      <point x="387.333" y="1008.667"/>
      <point x="364.312" y="1018.849"/>
      <point x="344.938" y="1038.547" type="curve"/>
      <point x="325.562" y="1058.245"/>
      <point x="315.875" y="1080.701"/>
      <point x="315.875" y="1105.916" type="curve"/>
      <point x="315.875" y="1107.597"/>
      <point x="315.917" y="1109.292"/>
      <point x="316" y="1111" type="curve"/>
      <point x="316" y="1139"/>
      <point x="326.167" y="1163"/>
      <point x="346.5" y="1183" type="curve"/>
      <point x="366.833" y="1203"/>
      <point x="391" y="1213"/>
      <point x="419" y="1213" type="curve"/>
      <point x="447" y="1213"/>
      <point x="471" y="1203"/>
      <point x="491" y="1183" type="curve"/>
      <point x="511" y="1163"/>
      <point x="521" y="1139"/>
      <point x="521" y="1111" type="curve"/>
      <point x="726" y="1111" type="line"/>
      <point x="726" y="1195"/>
      <point x="695.833" y="1267.167"/>
      <point x="635.5" y="1327.5" type="curve"/>
      <point x="575.167" y="1387.833"/>
      <point x="503" y="1418"/>
      <point x="419" y="1418" type="curve"/>
      <point x="335" y="1418"/>
      <point x="262.667" y="1387.833"/>
      <point x="202" y="1327.5" type="curve"/>
      <point x="141.333" y="1267.167"/>
      <point x="110.667" y="1196.667"/>
      <point x="110" y="1116" type="curve"/>
      <point x="109.333" y="1035.333"/>
      <point x="134.333" y="966.333"/>
      <point x="185" y="909" type="curve"/>
      <point x="130.333" y="851"/>
      <point x="103" y="781.667"/>
      <point x="103" y="701" type="curve"/>
      <point x="103" y="664.333"/>
      <point x="108.667" y="630"/>
      <point x="120" y="598" type="curve"/>
      <point x="146.932" y="518.623"/>
      <point x="201.098" y="460.123"/>
      <point x="282.5" y="422.5" type="curve"/>
      <point x="322.167" y="404.167"/>
      <point x="359.5" y="394.667"/>
      <point x="394.5" y="394" type="curve"/>
      <point x="429.5" y="393.333"/>
      <point x="456.688" y="383.151"/>
      <point x="476.062" y="363.453" type="curve"/>
      <point x="495.438" y="343.755"/>
      <point x="505.125" y="321.299"/>
      <point x="505.125" y="296.084" type="curve"/>
      <point x="505.125" y="294.403"/>
      <point x="505.083" y="292.708"/>
      <point x="505" y="291" type="curve"/>
      <point x="505" y="263"/>
      <point x="494.833" y="239"/>
      <point x="474.5" y="219" type="curve"/>
      <point x="454.167" y="199"/>
      <point x="430" y="189"/>
      <point x="402" y="189" type="curve"/>
      <point x="374" y="189"/>
      <point x="350" y="199"/>
      <point x="330" y="219" type="curve"/>
      <point x="310" y="239"/>
      <point x="300" y="263"/>
      <point x="300" y="291" type="curve"/>
    </contour>
    <contour>
      <point x="308" y="700.5" type="curve" smooth="yes"/>
      <point x="308" y="729.5"/>
      <point x="318" y="753.833"/>
      <point x="338" y="773.5" type="curve" smooth="yes"/>
      <point x="358" y="793.167"/>
      <point x="382.5" y="803"/>
      <point x="411.5" y="803" type="curve" smooth="yes"/>
      <point x="440.5" y="803"/>
      <point x="464.667" y="793.333"/>
      <point x="484" y="774" type="curve" smooth="yes"/>
      <point x="503.333" y="754.667"/>
      <point x="513" y="733"/>
      <point x="513" y="709" type="curve" smooth="yes"/>
      <point x="513" y="685"/>
      <point x="508.5" y="665.167"/>
      <point x="499.5" y="649.5" type="curve" smooth="yes"/>
      <point x="480.16" y="615.833"/>
      <point x="447.66" y="599"/>
      <point x="402" y="599" type="curve" smooth="yes"/>
      <point x="378" y="599"/>
      <point x="356.333" y="608.667"/>
      <point x="337" y="628" type="curve" smooth="yes"/>
      <point x="317.667" y="647.333"/>
      <point x="308" y="671.5"/>
    </contour>
  </outline>
</glyph>
<glyph name="copyright" format="1">
  <advance width="1154"/>
  <unicode hex="00A9"/>
  <outline>
    <contour>
      <point x="63" y="477" type="line"/>
      <point x="63" y="412.333"/>
      <point x="75.667" y="350.667"/>
      <point x="101" y="292" type="curve"/>
      <point x="126.333" y="233.333"/>
      <point x="160.167" y="182.833"/>
      <point x="202.5" y="140.5" type="curve"/>
      <point x="244.833" y="98.167"/>
      <point x="295.333" y="64.333"/>
      <point x="354" y="39" type="curve"/>
      <point x="412.667" y="13.667"/>
      <point x="474.333" y="1"/>
      <point x="539" y="1" type="curve"/>
      <point x="610" y="1" type="line"/>
      <point x="674.667" y="1"/>
      <point x="736.333" y="13.667"/>
      <point x="795" y="39" type="curve"/>
      <point x="853.667" y="64.333"/>
      <point x="904.333" y="98.167"/>
      <point x="947" y="140.5" type="curve"/>
      <point x="989.667" y="182.833"/>
      <point x="1023.5" y="233.333"/>
      <point x="1048.5" y="292" type="curve"/>
      <point x="1073.5" y="350.667"/>
      <point x="1086" y="412.333"/>
      <point x="1086" y="477" type="curve"/>
      <point x="1086" y="958" type="line"/>
      <point x="1086" y="1089.333"/>
      <point x="1039.5" y="1201.5"/>
      <point x="946.5" y="1294.5" type="curve"/>
      <point x="853.5" y="1387.5"/>
      <point x="741.333" y="1434"/>
      <point x="610" y="1434" type="curve"/>
      <point x="539" y="1434" type="line"/>
      <point x="474.333" y="1434"/>
      <point x="412.667" y="1421.333"/>
      <point x="354" y="1396" type="curve"/>
      <point x="295.333" y="1370.667"/>
      <point x="244.833" y="1336.833"/>
      <point x="202.5" y="1294.5" type="curve"/>
      <point x="160.167" y="1252.167"/>
      <point x="126.333" y="1201.667"/>
      <point x="101" y="1143" type="curve"/>
      <point x="75.667" y="1084.333"/>
      <point x="63" y="1022.667"/>
      <point x="63" y="958" type="curve"/>
    </contour>
    <contour>
      <point x="165" y="477" type="curve"/>
      <point x="165" y="958" type="line"/>
      <point x="165" y="1026.667"/>
      <point x="181.5" y="1089.667"/>
      <point x="214.5" y="1147" type="curve"/>
      <point x="247.5" y="1204.333"/>
      <point x="292.833" y="1249.667"/>
      <point x="350.5" y="1283" type="curve"/>
      <point x="408.167" y="1316.333"/>
      <point x="471" y="1333"/>
      <point x="539" y="1333" type="curve"/>
      <point x="610" y="1333" type="line"/>
      <point x="678.667" y="1333"/>
      <point x="741.667" y="1316.333"/>
      <point x="799" y="1283" type="curve"/>
      <point x="856.333" y="1249.667"/>
      <point x="901.667" y="1204.333"/>
      <point x="935" y="1147" type="curve"/>
      <point x="968.333" y="1089.667"/>
      <point x="985" y="1026.667"/>
      <point x="985" y="958" type="curve"/>
      <point x="985" y="477" type="line"/>
      <point x="985" y="409"/>
      <point x="968.333" y="346.167"/>
      <point x="935" y="288.5" type="curve"/>
      <point x="901.667" y="230.833"/>
      <point x="856.333" y="185.5"/>
      <point x="799" y="152.5" type="curve"/>
      <point x="741.667" y="119.5"/>
      <point x="678.667" y="103"/>
      <point x="610" y="103" type="curve"/>
      <point x="539" y="103" type="line"/>
      <point x="471" y="103"/>
      <point x="408.167" y="119.5"/>
      <point x="350.5" y="152.5" type="curve"/>
      <point x="292.833" y="185.5"/>
      <point x="247.5" y="230.833"/>
      <point x="214.5" y="288.5" type="curve"/>
      <point x="181.5" y="346.167"/>
      <point x="165" y="409"/>
    </contour>
    <contour>
      <point x="325" y="537" type="line" smooth="yes"/>
      <point x="325" y="461.667"/>
      <point x="349.333" y="397.333"/>
      <point x="398" y="344" type="curve" smooth="yes"/>
      <point x="446.667" y="290.667"/>
      <point x="505.167" y="264"/>
      <point x="573.5" y="264" type="curve" smooth="yes"/>
      <point x="641.833" y="264"/>
      <point x="700.333" y="290.667"/>
      <point x="749" y="344" type="curve" smooth="yes"/>
      <point x="797.667" y="397.333"/>
      <point x="822" y="461.667"/>
      <point x="822" y="537" type="curve"/>
      <point x="657" y="537" type="line"/>
      <point x="657" y="511.667"/>
      <point x="649" y="490"/>
      <point x="633" y="472" type="curve" smooth="yes"/>
      <point x="616.333" y="454.667"/>
      <point x="596.5" y="446"/>
      <point x="573.5" y="446" type="curve" smooth="yes"/>
      <point x="550.5" y="446"/>
      <point x="531" y="454.833"/>
      <point x="515" y="472.5" type="curve" smooth="yes"/>
      <point x="499" y="490.167"/>
      <point x="491" y="511.667"/>
      <point x="491" y="537" type="curve" smooth="yes"/>
      <point x="491" y="902" type="line" smooth="yes"/>
      <point x="491" y="927.333"/>
      <point x="499" y="948.833"/>
      <point x="515" y="966.5" type="curve" smooth="yes"/>
      <point x="531" y="984.167"/>
      <point x="550.5" y="993"/>
      <point x="573.5" y="993" type="curve" smooth="yes"/>
      <point x="596.5" y="993"/>
      <point x="616.167" y="984.167"/>
      <point x="632.5" y="966.5" type="curve" smooth="yes"/>
      <point x="648.833" y="948.833"/>
      <point x="657" y="927.333"/>
      <point x="657" y="902" type="curve"/>
      <point x="822" y="902" type="line"/>
      <point x="822" y="977.333"/>
      <point x="797.667" y="1041.667"/>
      <point x="749" y="1095" type="curve" smooth="yes"/>
      <point x="700.333" y="1148.333"/>
      <point x="641.833" y="1175"/>
      <point x="573.5" y="1175" type="curve" smooth="yes"/>
      <point x="505.167" y="1175"/>
      <point x="446.667" y="1148.333"/>
      <point x="398" y="1095" type="curve" smooth="yes"/>
      <point x="349.333" y="1041.667"/>
      <point x="325" y="977.333"/>
      <point x="325" y="902" type="curve" smooth="yes"/>
    </contour>
  </outline>
</glyph>
<glyph name="guillemotleft" format="1">
  <advance width="901"/>
  <unicode hex="00AB"/>
  <outline>
    <contour>
      <point x="844" y="956" type="line"/>
      <point x="844" y="739" type="line"/>
      <point x="629" y="527" type="line"/>
      <point x="844" y="314" type="line"/>
      <point x="844" y="98" type="line"/>
      <point x="413" y="527" type="line"/>
    </contour>
    <contour>
      <point x="451" y="956" type="line"/>
      <point x="451" y="739" type="line"/>
      <point x="236" y="527" type="line"/>
      <point x="451" y="314" type="line"/>
      <point x="451" y="98" type="line"/>
      <point x="20" y="527" type="line"/>
    </contour>
  </outline>
</glyph>
<glyph name="registered" format="1">
  <advance width="1220"/>
  <unicode hex="00AE"/>
  <outline>
    <contour>
      <point x="92" y="474" type="line"/>
      <point x="92" y="409.333"/>
      <point x="104.5" y="347.667"/>
      <point x="129.5" y="289" type="curve"/>
      <point x="154.5" y="230.333"/>
      <point x="188.333" y="179.833"/>
      <point x="231" y="137.5" type="curve"/>
      <point x="273.667" y="95.167"/>
      <point x="324.333" y="61.333"/>
      <point x="383" y="36" type="curve"/>
      <point x="441.667" y="10.667"/>
      <point x="503" y="-2"/>
      <point x="567" y="-2" type="curve"/>
      <point x="639" y="-2" type="line"/>
      <point x="703.667" y="-2"/>
      <point x="765.333" y="10.667"/>
      <point x="824" y="36" type="curve"/>
      <point x="882.667" y="61.333"/>
      <point x="933.167" y="95.167"/>
      <point x="975.5" y="137.5" type="curve"/>
      <point x="1017.833" y="179.833"/>
      <point x="1051.667" y="230.333"/>
      <point x="1077" y="289" type="curve"/>
      <point x="1102.333" y="347.667"/>
      <point x="1115" y="409.333"/>
      <point x="1115" y="474" type="curve"/>
      <point x="1115" y="955" type="line"/>
      <point x="1115" y="1061.599"/>
      <point x="1084.167" y="1155.433"/>
      <point x="1022.5" y="1236.5" type="curve"/>
      <point x="923.865" y="1366.167"/>
      <point x="796.031" y="1431"/>
      <point x="639" y="1431" type="curve"/>
      <point x="567" y="1431" type="line"/>
      <point x="503" y="1431"/>
      <point x="441.667" y="1418.333"/>
      <point x="383" y="1393" type="curve"/>
      <point x="324.333" y="1367.667"/>
      <point x="273.667" y="1333.833"/>
      <point x="231" y="1291.5" type="curve"/>
      <point x="188.333" y="1249.167"/>
      <point x="154.5" y="1198.667"/>
      <point x="129.5" y="1140" type="curve"/>
      <point x="104.5" y="1081.333"/>
      <point x="92" y="1019.667"/>
      <point x="92" y="955" type="curve"/>
    </contour>
    <contour>
      <point x="193" y="474" type="curve"/>
      <point x="193" y="955" type="line"/>
      <point x="193" y="1023.667"/>
      <point x="209.667" y="1086.667"/>
      <point x="243" y="1144" type="curve"/>
      <point x="276.333" y="1201.333"/>
      <point x="321.667" y="1246.667"/>
      <point x="379" y="1280" type="curve"/>
      <point x="436.333" y="1313.333"/>
      <point x="499" y="1330"/>
      <point x="567" y="1330" type="curve"/>
      <point x="639" y="1330" type="line"/>
      <point x="707" y="1330"/>
      <point x="769.833" y="1313.333"/>
      <point x="827.5" y="1280" type="curve"/>
      <point x="885.167" y="1246.667"/>
      <point x="930.5" y="1201.333"/>
      <point x="963.5" y="1144" type="curve"/>
      <point x="996.5" y="1086.667"/>
      <point x="1013" y="1023.667"/>
      <point x="1013" y="955" type="curve"/>
      <point x="1013" y="474" type="line"/>
      <point x="1013" y="406"/>
      <point x="996.5" y="343.167"/>
      <point x="963.5" y="285.5" type="curve"/>
      <point x="930.5" y="227.833"/>
      <point x="885.167" y="182.5"/>
      <point x="827.5" y="149.5" type="curve"/>
      <point x="769.833" y="116.5"/>
      <point x="707" y="100"/>
      <point x="639" y="100" type="curve"/>
      <point x="567" y="100" type="line"/>
      <point x="499" y="100"/>
      <point x="436.333" y="116.5"/>
      <point x="379" y="149.5" type="curve"/>
      <point x="321.667" y="182.5"/>
      <point x="276.333" y="227.833"/>
      <point x="243" y="285.5" type="curve"/>
      <point x="209.667" y="343.167"/>
      <point x="193" y="406"/>
    </contour>
    <contour>
      <point x="357" y="269" type="line"/>
      <point x="520" y="269" type="line"/>
      <point x="520" y="651" type="line"/>
      <point x="604" y="651" type="line"/>
      <point x="686" y="269" type="line"/>
      <point x="849" y="269" type="line"/>
      <point x="768" y="668" type="line"/>
      <point x="822" y="692"/>
      <point x="849" y="728.333"/>
      <point x="849" y="777" type="curve"/>
      <point x="849" y="1032" type="line"/>
      <point x="849" y="1066.667"/>
      <point x="833" y="1096.333"/>
      <point x="801" y="1121" type="curve"/>
      <point x="769" y="1145.667"/>
      <point x="730.667" y="1158"/>
      <point x="686" y="1158" type="curve"/>
      <point x="357" y="1160" type="line"/>
    </contour>
    <contour>
      <point x="520" y="776" type="line"/>
      <point x="520" y="1033" type="line"/>
      <point x="623" y="1033" type="line" smooth="yes"/>
      <point x="641" y="1033"/>
      <point x="656" y="1028.167"/>
      <point x="668" y="1018.5" type="curve" smooth="yes"/>
      <point x="680" y="1008.833"/>
      <point x="686" y="997.333"/>
      <point x="686" y="984" type="curve" smooth="yes"/>
      <point x="686" y="825" type="line" smooth="yes"/>
      <point x="686" y="811.667"/>
      <point x="680" y="800.167"/>
      <point x="668" y="790.5" type="curve" smooth="yes"/>
      <point x="656" y="780.833"/>
      <point x="641" y="776"/>
      <point x="623" y="776" type="curve" smooth="yes"/>
    </contour>
  </outline>
</glyph>
<glyph name="degree" format="1">
  <advance width="552"/>
  <unicode hex="00B0"/>
  <outline>
    <contour>
      <point x="155" y="1303" type="line"/>
      <point x="155" y="1267.667"/>
      <point x="167.667" y="1237.333"/>
      <point x="193" y="1212" type="curve"/>
      <point x="218.333" y="1186.667"/>
      <point x="248.5" y="1174"/>
      <point x="283.5" y="1174" type="curve"/>
      <point x="318.5" y="1174"/>
      <point x="348.5" y="1186.667"/>
      <point x="373.5" y="1212" type="curve"/>
      <point x="398.5" y="1237.333"/>
      <point x="411" y="1267.667"/>
      <point x="411" y="1303" type="curve"/>
      <point x="411" y="1402" type="line"/>
      <point x="411" y="1438"/>
      <point x="398.5" y="1468.667"/>
      <point x="373.5" y="1494" type="curve"/>
      <point x="348.5" y="1519.333"/>
      <point x="318.333" y="1532"/>
      <point x="283" y="1532" type="curve"/>
      <point x="247.667" y="1532"/>
      <point x="217.5" y="1519.333"/>
      <point x="192.5" y="1494" type="curve"/>
      <point x="167.5" y="1468.667"/>
      <point x="155" y="1438"/>
      <point x="155" y="1402" type="curve"/>
    </contour>
    <contour>
      <point x="239" y="1303" type="curve" smooth="yes"/>
      <point x="239" y="1402" type="line" smooth="yes"/>
      <point x="239" y="1432.667"/>
      <point x="254.833" y="1448"/>
      <point x="286.5" y="1448" type="curve" smooth="yes"/>
      <point x="296.833" y="1448"/>
      <point x="306.167" y="1443.667"/>
      <point x="314.5" y="1435" type="curve" smooth="yes"/>
      <point x="322.833" y="1426.333"/>
      <point x="327" y="1415.333"/>
      <point x="327" y="1402" type="curve" smooth="yes"/>
      <point x="327" y="1303" type="line" smooth="yes"/>
      <point x="327" y="1290.333"/>
      <point x="322.833" y="1279.667"/>
      <point x="314.5" y="1271" type="curve" smooth="yes"/>
      <point x="306.167" y="1262.333"/>
      <point x="295.833" y="1258"/>
      <point x="283.5" y="1258" type="curve" smooth="yes"/>
      <point x="271.167" y="1258"/>
      <point x="260.667" y="1262.333"/>
      <point x="252" y="1271" type="curve" smooth="yes"/>
      <point x="243.333" y="1279.667"/>
      <point x="239" y="1290.333"/>
    </contour>
  </outline>
</glyph>
<glyph name="plusminus" format="1">
  <advance width="825"/>
  <unicode hex="00B1"/>
  <outline>
    <contour>
      <point x="-4" y="617" type="line"/>
      <point x="304" y="617" type="line"/>
      <point x="304" y="309" type="line"/>
      <point x="510" y="309" type="line"/>
      <point x="510" y="617" type="line"/>
      <point x="818" y="617" type="line"/>
      <point x="818" y="823" type="line"/>
      <point x="510" y="823" type="line"/>
      <point x="510" y="1130" type="line"/>
      <point x="304" y="1130" type="line"/>
      <point x="304" y="823" type="line"/>
      <point x="-4" y="823" type="line"/>
    </contour>
    <contour>
      <point x="2" y="4" type="line"/>
      <point x="822" y="4" type="line"/>
      <point x="822" y="209" type="line"/>
      <point x="2" y="209" type="line"/>
    </contour>
  </outline>
</glyph>
<glyph name="paragraph" format="1">
  <advance width="899"/>
  <unicode hex="00B6"/>
  <outline>
    <contour>
      <point x="27" y="1125.5" type="curve" smooth="yes"/>
      <point x="27" y="1040.5"/>
      <point x="56.833" y="968.167"/>
      <point x="116.5" y="908.5" type="curve" smooth="yes"/>
      <point x="176.167" y="848.833"/>
      <point x="248.667" y="819"/>
      <point x="334" y="819" type="curve"/>
      <point x="334" y="0" type="line"/>
      <point x="539" y="0" type="line"/>
      <point x="539" y="1229" type="line"/>
      <point x="641" y="1229" type="line"/>
      <point x="641" y="0" type="line"/>
      <point x="846" y="0" type="line"/>
      <point x="846" y="1434" type="line"/>
      <point x="334" y="1434" type="line" smooth="yes"/>
      <point x="246" y="1432.667"/>
      <point x="172.833" y="1402.167"/>
      <point x="114.5" y="1342.5" type="curve" smooth="yes"/>
      <point x="56.167" y="1282.833"/>
      <point x="27" y="1210.5"/>
    </contour>
  </outline>
</glyph>
<glyph name="Aacute" format="1">
  <advance width="825"/>
  <unicode hex="00C1"/>
  <outline>
    <contour>
      <point x="311" y="1434" type="line"/>
      <point x="514" y="1434" type="line"/>
      <point x="821" y="0" type="line"/>
      <point x="618" y="0" type="line"/>
      <point x="557" y="307" type="line"/>
      <point x="268" y="309" type="line"/>
      <point x="207" y="0" type="line"/>
      <point x="4" y="0" type="line"/>
    </contour>
    <contour>
      <point x="412" y="1024" type="line"/>
      <point x="309" y="510" type="line"/>
      <point x="516" y="510" type="line"/>
      <point x="414" y="1024" type="line"/>
    </contour>
    <component base="acutecomb" xOffset="235" yOffset="309"/>
  </outline>
</glyph>
<glyph name="AE" format="1">
  <advance width="1267"/>
  <unicode hex="00C6"/>
  <outline>
    <contour>
      <point x="516" y="1432" type="line"/>
      <point x="1231" y="1432" type="line"/>
      <point x="1231" y="1229" type="line"/>
      <point x="821" y="1229" type="line"/>
      <point x="821" y="817" type="line"/>
      <point x="1128" y="817" type="line"/>
      <point x="1128" y="614" type="line"/>
      <point x="821" y="614" type="line"/>
      <point x="821" y="203" type="line"/>
      <point x="1231" y="203" type="line"/>
      <point x="1231" y="0" type="line"/>
      <point x="618" y="0" type="line"/>
      <point x="618" y="305" type="line"/>
      <point x="309" y="307" type="line"/>
      <point x="207" y="0" type="line"/>
      <point x="4" y="0" type="line"/>
    </contour>
    <contour>
      <point x="590" y="1126" type="line"/>
      <point x="385" y="510" type="line"/>
      <point x="618" y="510" type="line"/>
      <point x="618" y="1126" type="line"/>
    </contour>
  </outline>
</glyph>
<glyph name="Egrave" format="1">
  <advance width="749"/>
  <unicode hex="00C8"/>
  <outline>
    <contour>
      <point x="98" y="0" type="line"/>
      <point x="98" y="1434" type="line"/>
      <point x="713" y="1434" type="line"/>
      <point x="713" y="1229" type="line"/>
      <point x="303" y="1229" type="line"/>
      <point x="303" y="819" type="line"/>
      <point x="610" y="819" type="line"/>
      <point x="610" y="614" type="line"/>
      <point x="303" y="614" type="line"/>
      <point x="303" y="205" type="line"/>
      <point x="713" y="205" type="line"/>
      <point x="713" y="0" type="line"/>
    </contour>
    <component base="grave" xOffset="133" yOffset="314"/>
  </outline>
</glyph>
<glyph name="Edieresis" format="1">
  <advance width="750"/>
  <unicode hex="00CB"/>
  <outline>
    <contour>
      <point x="98" y="0" type="line"/>
      <point x="98" y="1434" type="line"/>
      <point x="713" y="1434" type="line"/>
      <point x="713" y="1229" type="line"/>
      <point x="303" y="1229" type="line"/>
      <point x="303" y="819" type="line"/>
      <point x="610" y="819" type="line"/>
      <point x="610" y="614" type="line"/>
      <point x="303" y="614" type="line"/>
      <point x="303" y="205" type="line"/>
      <point x="713" y="205" type="line"/>
      <point x="713" y="0" type="line"/>
    </contour>
    <component base="dieresiscomb" xOffset="61" yOffset="309"/>
  </outline>
</glyph>
<glyph name="Iacute" format="1">
  <advance width="572"/>
  <unicode hex="00CD"/>
  <outline>
    <contour>
      <point x="323" y="0" type="line"/>
      <point x="118" y="0" type="line"/>
      <point x="118" y="1434" type="line"/>
      <point x="323" y="1434" type="line"/>
    </contour>
    <component base="acutecomb" xOffset="64" yOffset="313"/>
  </outline>
</glyph>
<glyph name="Icircumflex" format="1">
  <advance width="775"/>
  <unicode hex="00CE"/>
  <outline>
    <contour>
      <point x="480" y="0" type="line"/>
      <point x="275" y="0" type="line"/>
      <point x="275" y="1434" type="line"/>
      <point x="480" y="1434" type="line"/>
    </contour>
    <component base="asciicircum" xOffset="27" yOffset="314"/>
  </outline>
</glyph>
<glyph name="Idieresis" format="1">
  <advance width="821"/>
  <unicode hex="00CF"/>
  <outline>
    <contour>
      <point x="307" y="1434" type="line"/>
      <point x="512" y="1434" type="line"/>
      <point x="512" y="0" type="line"/>
      <point x="307" y="0" type="line"/>
    </contour>
    <component base="dieresiscomb" xOffset="64" yOffset="309"/>
  </outline>
</glyph>
<glyph name="Oacute" format="1">
  <advance width="786"/>
  <unicode hex="00D3"/>
  <outline>
    <contour>
      <point x="393" y="1434" type="curve" smooth="yes"/>
      <point x="478" y="1434"/>
      <point x="550" y="1404"/>
      <point x="610" y="1344" type="curve" smooth="yes"/>
      <point x="670" y="1283"/>
      <point x="700" y="1211"/>
      <point x="700" y="1126" type="curve" smooth="yes"/>
      <point x="700" y="307" type="line" smooth="yes"/>
      <point x="700" y="222"/>
      <point x="670" y="150"/>
      <point x="610" y="90" type="curve" smooth="yes"/>
      <point x="550" y="30"/>
      <point x="478" y="0"/>
      <point x="393" y="0" type="curve" smooth="yes"/>
      <point x="308" y="0"/>
      <point x="236" y="30"/>
      <point x="176" y="90" type="curve" smooth="yes"/>
      <point x="116" y="150"/>
      <point x="86" y="222"/>
      <point x="86" y="307" type="curve" smooth="yes"/>
      <point x="86" y="1126" type="line" smooth="yes"/>
      <point x="86" y="1211"/>
      <point x="116" y="1283"/>
      <point x="176" y="1344" type="curve" smooth="yes"/>
      <point x="236" y="1404"/>
      <point x="308" y="1434"/>
    </contour>
    <contour>
      <point x="393" y="1229" type="curve" smooth="yes"/>
      <point x="364" y="1229"/>
      <point x="340" y="1219"/>
      <point x="321" y="1199" type="curve" smooth="yes"/>
      <point x="301" y="1179"/>
      <point x="291" y="1155"/>
      <point x="291" y="1126" type="curve" smooth="yes"/>
      <point x="291" y="836" type="line"/>
      <point x="291" y="596" type="line"/>
      <point x="291" y="307" type="line" smooth="yes"/>
      <point x="291" y="278"/>
      <point x="301" y="254"/>
      <point x="321" y="235" type="curve" smooth="yes"/>
      <point x="340" y="215"/>
      <point x="364" y="205"/>
      <point x="393" y="205" type="curve" smooth="yes"/>
      <point x="422" y="205"/>
      <point x="446" y="215"/>
      <point x="466" y="235" type="curve" smooth="yes"/>
      <point x="486" y="254"/>
      <point x="496" y="278"/>
      <point x="496" y="307" type="curve" smooth="yes"/>
      <point x="496" y="596" type="line"/>
      <point x="496" y="836" type="line"/>
      <point x="496" y="1126" type="line" smooth="yes"/>
      <point x="496" y="1155"/>
      <point x="486" y="1179"/>
      <point x="466" y="1199" type="curve" smooth="yes"/>
      <point x="446" y="1219"/>
      <point x="422" y="1229"/>
    </contour>
    <component base="acutecomb" xOffset="220" yOffset="313"/>
  </outline>
</glyph>
<glyph name="multiply" format="1">
  <advance width="917"/>
  <unicode hex="00D7"/>
  <outline>
    <contour>
      <point x="821" y="532" type="line"/>
      <point x="676" y="387" type="line"/>
      <point x="458" y="604" type="line"/>
      <point x="241" y="387" type="line"/>
      <point x="95" y="532" type="line"/>
      <point x="313" y="749" type="line"/>
      <point x="95" y="967" type="line"/>
      <point x="241" y="1112" type="line"/>
      <point x="458" y="895" type="line"/>
      <point x="676" y="1112" type="line"/>
      <point x="821" y="967" type="line"/>
      <point x="604" y="749" type="line"/>
    </contour>
  </outline>
</glyph>
<glyph name="Thorn" format="1">
  <advance width="768"/>
  <unicode hex="00DE"/>
  <outline>
    <contour>
      <point x="98" y="1434" type="line"/>
      <point x="301" y="1434" type="line"/>
      <point x="301" y="1126" type="line"/>
      <point x="508" y="1126" type="line" smooth="yes"/>
      <point x="564" y="1126"/>
      <point x="612" y="1106"/>
      <point x="652" y="1067" type="curve" smooth="yes"/>
      <point x="691" y="1027"/>
      <point x="711" y="978"/>
      <point x="711" y="921" type="curve" smooth="yes"/>
      <point x="711" y="511" type="line" smooth="yes"/>
      <point x="711" y="455"/>
      <point x="691" y="407"/>
      <point x="652" y="368" type="curve" smooth="yes"/>
      <point x="612" y="328"/>
      <point x="564" y="308"/>
      <point x="508" y="308" type="curve" smooth="yes"/>
      <point x="301" y="308" type="line"/>
      <point x="301" y="0" type="line"/>
      <point x="98" y="0" type="line"/>
    </contour>
    <contour>
      <point x="301" y="923" type="line"/>
      <point x="301" y="511" type="line"/>
      <point x="430" y="511" type="line" smooth="yes"/>
      <point x="452" y="511"/>
      <point x="471" y="519"/>
      <point x="486" y="534" type="curve" smooth="yes"/>
      <point x="501" y="549"/>
      <point x="508" y="567"/>
      <point x="508" y="589" type="curve" smooth="yes"/>
      <point x="508" y="845" type="line" smooth="yes"/>
      <point x="508" y="867"/>
      <point x="501" y="886"/>
      <point x="486" y="901" type="curve" smooth="yes"/>
      <point x="471" y="916"/>
      <point x="452" y="923"/>
      <point x="430" y="923" type="curve" smooth="yes"/>
    </contour>
  </outline>
</glyph>
<glyph name="germandbls" format="1">
  <advance width="693"/>
  <unicode hex="00DF"/>
  <outline>
    <contour>
      <point x="20" y="0" type="line"/>
      <point x="20" y="1130" type="line" smooth="yes"/>
      <point x="21" y="1213"/>
      <point x="52" y="1285"/>
      <point x="111" y="1345" type="curve" smooth="yes"/>
      <point x="170" y="1404"/>
      <point x="242" y="1434"/>
      <point x="327" y="1434" type="curve" smooth="yes"/>
      <point x="412" y="1434"/>
      <point x="484" y="1404"/>
      <point x="544" y="1344" type="curve" smooth="yes"/>
      <point x="604" y="1283"/>
      <point x="634" y="1211"/>
      <point x="634" y="1126" type="curve" smooth="yes"/>
      <point x="634" y="922" type="line" smooth="yes"/>
      <point x="634" y="844"/>
      <point x="608" y="776"/>
      <point x="556" y="717" type="curve"/>
      <point x="608" y="658"/>
      <point x="634" y="590"/>
      <point x="634" y="512" type="curve" smooth="yes"/>
      <point x="634" y="307" type="line" smooth="yes"/>
      <point x="634" y="222"/>
      <point x="604" y="150"/>
      <point x="544" y="90" type="curve" smooth="yes"/>
      <point x="484" y="30"/>
      <point x="412" y="0"/>
      <point x="327" y="0" type="curve"/>
      <point x="327" y="205" type="line"/>
      <point x="356" y="205"/>
      <point x="380" y="215"/>
      <point x="400" y="235" type="curve" smooth="yes"/>
      <point x="419" y="254"/>
      <point x="429" y="278"/>
      <point x="429" y="307" type="curve" smooth="yes"/>
      <point x="429" y="512" type="line" smooth="yes"/>
      <point x="429" y="541"/>
      <point x="419" y="565"/>
      <point x="400" y="585" type="curve" smooth="yes"/>
      <point x="380" y="604"/>
      <point x="356" y="614"/>
      <point x="327" y="614" type="curve"/>
      <point x="327" y="819" type="line"/>
      <point x="356" y="819"/>
      <point x="380" y="829"/>
      <point x="400" y="849" type="curve" smooth="yes"/>
      <point x="419" y="869"/>
      <point x="429" y="893"/>
      <point x="429" y="922" type="curve" smooth="yes"/>
      <point x="429" y="1126" type="line" smooth="yes"/>
      <point x="429" y="1155"/>
      <point x="419" y="1179"/>
      <point x="400" y="1199" type="curve" smooth="yes"/>
      <point x="380" y="1219"/>
      <point x="356" y="1229"/>
      <point x="327" y="1229" type="curve" smooth="yes"/>
      <point x="298" y="1229"/>
      <point x="274" y="1219"/>
      <point x="255" y="1199" type="curve" smooth="yes"/>
      <point x="235" y="1179"/>
      <point x="225" y="1155"/>
      <point x="225" y="1126" type="curve" smooth="yes"/>
      <point x="225" y="0" type="line"/>
    </contour>
  </outline>
</glyph>
<glyph name="agrave" format="1">
  <advance width="733"/>
  <unicode hex="00E0"/>
  <outline>
    <contour>
      <point x="358" y="1024" type="curve" smooth="yes"/>
      <point x="443" y="1024"/>
      <point x="515" y="994"/>
      <point x="576" y="934" type="curve" smooth="yes"/>
      <point x="636" y="874"/>
      <point x="666" y="802"/>
      <point x="666" y="717" type="curve" smooth="yes"/>
      <point x="666" y="0" type="line"/>
      <point x="459" y="0" type="line"/>
      <point x="460" y="182" type="line" smooth="yes"/>
      <point x="460" y="189"/>
      <point x="456" y="158"/>
      <point x="447" y="133" type="curve" smooth="yes"/>
      <point x="440" y="110"/>
      <point x="430" y="89"/>
      <point x="417" y="72" type="curve" smooth="yes"/>
      <point x="404" y="54"/>
      <point x="383" y="38"/>
      <point x="355" y="23" type="curve" smooth="yes"/>
      <point x="327" y="8"/>
      <point x="294" y="0"/>
      <point x="256" y="0" type="curve" smooth="yes"/>
      <point x="218" y="0"/>
      <point x="185" y="7"/>
      <point x="157" y="22" type="curve" smooth="yes"/>
      <point x="129" y="36"/>
      <point x="109" y="53"/>
      <point x="96" y="73" type="curve" smooth="yes"/>
      <point x="83" y="92"/>
      <point x="72" y="112"/>
      <point x="65" y="132" type="curve" smooth="yes"/>
      <point x="57" y="152"/>
      <point x="53" y="169"/>
      <point x="53" y="184" type="curve"/>
      <point x="51" y="205" type="line"/>
      <point x="51" y="307" type="line" smooth="yes"/>
      <point x="51" y="392"/>
      <point x="81" y="464"/>
      <point x="141" y="524" type="curve" smooth="yes"/>
      <point x="201" y="584"/>
      <point x="273" y="614"/>
      <point x="358" y="614" type="curve" smooth="yes"/>
      <point x="387" y="614"/>
      <point x="411" y="624"/>
      <point x="431" y="644" type="curve" smooth="yes"/>
      <point x="451" y="664"/>
      <point x="461" y="688"/>
      <point x="461" y="717" type="curve" smooth="yes"/>
      <point x="461" y="746"/>
      <point x="451" y="770"/>
      <point x="431" y="790" type="curve" smooth="yes"/>
      <point x="411" y="809"/>
      <point x="387" y="819"/>
      <point x="358" y="819" type="curve" smooth="yes"/>
      <point x="329" y="819"/>
      <point x="305" y="809"/>
      <point x="286" y="790" type="curve" smooth="yes"/>
      <point x="266" y="770"/>
      <point x="256" y="746"/>
      <point x="256" y="717" type="curve"/>
      <point x="51" y="717" type="line"/>
      <point x="51" y="802"/>
      <point x="81" y="874"/>
      <point x="141" y="934" type="curve" smooth="yes"/>
      <point x="201" y="994"/>
      <point x="273" y="1024"/>
    </contour>
    <contour>
      <point x="358" y="205" type="curve" smooth="yes"/>
      <point x="388" y="205"/>
      <point x="412" y="214"/>
      <point x="429" y="231" type="curve" smooth="yes"/>
      <point x="446" y="248"/>
      <point x="456" y="264"/>
      <point x="459" y="281" type="curve"/>
      <point x="461" y="307" type="line"/>
      <point x="461" y="428" type="line"/>
      <point x="428" y="416"/>
      <point x="394" y="410"/>
      <point x="358" y="410" type="curve" smooth="yes"/>
      <point x="329" y="410"/>
      <point x="305" y="400"/>
      <point x="286" y="380" type="curve" smooth="yes"/>
      <point x="266" y="360"/>
      <point x="256" y="336"/>
      <point x="256" y="307" type="curve" smooth="yes"/>
      <point x="256" y="304"/>
      <point x="256" y="301"/>
      <point x="257" y="296" type="curve" smooth="yes"/>
      <point x="258" y="291"/>
      <point x="260" y="283"/>
      <point x="263" y="272" type="curve" smooth="yes"/>
      <point x="266" y="260"/>
      <point x="271" y="250"/>
      <point x="278" y="241" type="curve" smooth="yes"/>
      <point x="284" y="232"/>
      <point x="294" y="223"/>
      <point x="308" y="216" type="curve" smooth="yes"/>
      <point x="322" y="209"/>
      <point x="339" y="205"/>
    </contour>
    <component base="grave" xOffset="109" yOffset="-128"/>
  </outline>
</glyph>
<glyph name="ecircumflex" format="1">
  <advance width="749"/>
  <unicode hex="00EA"/>
  <outline>
    <contour>
      <point x="375" y="1024" type="curve" smooth="yes"/>
      <point x="460" y="1024"/>
      <point x="532" y="994"/>
      <point x="592" y="934" type="curve" smooth="yes"/>
      <point x="652" y="874"/>
      <point x="682" y="802"/>
      <point x="682" y="717" type="curve" smooth="yes"/>
      <point x="682" y="614" type="line"/>
      <point x="682" y="410" type="line"/>
      <point x="477" y="410" type="line"/>
      <point x="272" y="410" type="line"/>
      <point x="272" y="307" type="line" smooth="yes"/>
      <point x="272" y="278"/>
      <point x="282" y="254"/>
      <point x="302" y="235" type="curve" smooth="yes"/>
      <point x="322" y="215"/>
      <point x="346" y="205"/>
      <point x="375" y="205" type="curve" smooth="yes"/>
      <point x="404" y="205"/>
      <point x="428" y="215"/>
      <point x="448" y="235" type="curve" smooth="yes"/>
      <point x="467" y="254"/>
      <point x="477" y="278"/>
      <point x="477" y="307" type="curve"/>
      <point x="682" y="307" type="line"/>
      <point x="682" y="222"/>
      <point x="652" y="150"/>
      <point x="592" y="90" type="curve" smooth="yes"/>
      <point x="532" y="30"/>
      <point x="460" y="0"/>
      <point x="375" y="0" type="curve" smooth="yes"/>
      <point x="290" y="0"/>
      <point x="218" y="30"/>
      <point x="158" y="90" type="curve" smooth="yes"/>
      <point x="98" y="150"/>
      <point x="68" y="222"/>
      <point x="68" y="307" type="curve" smooth="yes"/>
      <point x="68" y="717" type="line" smooth="yes"/>
      <point x="68" y="802"/>
      <point x="98" y="874"/>
      <point x="158" y="934" type="curve" smooth="yes"/>
      <point x="218" y="994"/>
      <point x="290" y="1024"/>
    </contour>
    <contour>
      <point x="272" y="614" type="line"/>
      <point x="477" y="614" type="line"/>
      <point x="477" y="717" type="line" smooth="yes"/>
      <point x="477" y="746"/>
      <point x="467" y="770"/>
      <point x="448" y="790" type="curve" smooth="yes"/>
      <point x="428" y="809"/>
      <point x="404" y="819"/>
      <point x="375" y="819" type="curve" smooth="yes"/>
      <point x="346" y="819"/>
      <point x="322" y="809"/>
      <point x="302" y="790" type="curve" smooth="yes"/>
      <point x="282" y="770"/>
      <point x="272" y="746"/>
      <point x="272" y="717" type="curve" smooth="yes"/>
    </contour>
    <component base="asciicircum" xOffset="17" yOffset="-111"/>
  </outline>
</glyph>
<glyph name="edieresis" format="1">
  <advance width="755"/>
  <unicode hex="00EB"/>
  <outline>
    <contour>
      <point x="381" y="1024" type="curve" smooth="yes"/>
      <point x="466" y="1024"/>
      <point x="538" y="994"/>
      <point x="598" y="934" type="curve" smooth="yes"/>
      <point x="658" y="874"/>
      <point x="688" y="802"/>
      <point x="688" y="717" type="curve" smooth="yes"/>
      <point x="688" y="614" type="line"/>
      <point x="688" y="410" type="line"/>
      <point x="483" y="410" type="line"/>
      <point x="278" y="410" type="line"/>
      <point x="278" y="307" type="line" smooth="yes"/>
      <point x="278" y="278"/>
      <point x="288" y="254"/>
      <point x="308" y="235" type="curve" smooth="yes"/>
      <point x="328" y="215"/>
      <point x="352" y="205"/>
      <point x="381" y="205" type="curve" smooth="yes"/>
      <point x="410" y="205"/>
      <point x="434" y="215"/>
      <point x="454" y="235" type="curve" smooth="yes"/>
      <point x="473" y="254"/>
      <point x="483" y="278"/>
      <point x="483" y="307" type="curve"/>
      <point x="688" y="307" type="line"/>
      <point x="688" y="222"/>
      <point x="658" y="150"/>
      <point x="598" y="90" type="curve" smooth="yes"/>
      <point x="538" y="30"/>
      <point x="466" y="0"/>
      <point x="381" y="0" type="curve" smooth="yes"/>
      <point x="296" y="0"/>
      <point x="224" y="30"/>
      <point x="164" y="90" type="curve" smooth="yes"/>
      <point x="104" y="150"/>
      <point x="74" y="222"/>
      <point x="74" y="307" type="curve" smooth="yes"/>
      <point x="74" y="717" type="line" smooth="yes"/>
      <point x="74" y="802"/>
      <point x="104" y="874"/>
      <point x="164" y="934" type="curve" smooth="yes"/>
      <point x="224" y="994"/>
      <point x="296" y="1024"/>
    </contour>
    <contour>
      <point x="278" y="614" type="line"/>
      <point x="483" y="614" type="line"/>
      <point x="483" y="717" type="line" smooth="yes"/>
      <point x="483" y="746"/>
      <point x="473" y="770"/>
      <point x="454" y="790" type="curve" smooth="yes"/>
      <point x="434" y="809"/>
      <point x="410" y="819"/>
      <point x="381" y="819" type="curve" smooth="yes"/>
      <point x="352" y="819"/>
      <point x="328" y="809"/>
      <point x="308" y="790" type="curve" smooth="yes"/>
      <point x="288" y="770"/>
      <point x="278" y="746"/>
      <point x="278" y="717" type="curve" smooth="yes"/>
    </contour>
    <component base="dieresiscomb" xOffset="28" yOffset="-98"/>
  </outline>
</glyph>
<glyph name="igrave" format="1">
  <advance width="535"/>
  <unicode hex="00EC"/>
  <outline>
    <contour>
      <point x="211" y="1024" type="line"/>
      <point x="416" y="1024" type="line"/>
      <point x="416" y="0" type="line"/>
      <point x="211" y="0" type="line"/>
    </contour>
    <component base="grave" xOffset="46" yOffset="-128"/>
  </outline>
</glyph>
<glyph name="iacute" format="1">
  <advance width="535"/>
  <unicode hex="00ED"/>
  <outline>
    <contour>
      <point x="151" y="1024" type="line"/>
      <point x="356" y="1024" type="line"/>
      <point x="356" y="0" type="line"/>
      <point x="151" y="0" type="line"/>
    </contour>
    <component base="acutecomb" xOffset="46" yOffset="-127"/>
  </outline>
</glyph>
<glyph name="icircumflex" format="1">
  <advance width="738"/>
  <unicode hex="00EE"/>
  <outline>
    <contour>
      <point x="268" y="1024" type="line"/>
      <point x="473" y="1024" type="line"/>
      <point x="473" y="0" type="line"/>
      <point x="268" y="0" type="line"/>
    </contour>
    <component base="asciicircum" xOffset="9" yOffset="-111"/>
  </outline>
</glyph>
<glyph name="idieresis" format="1">
  <advance width="784"/>
  <unicode hex="00EF"/>
  <outline>
    <contour>
      <point x="290" y="1024" type="line"/>
      <point x="495" y="1024" type="line"/>
      <point x="495" y="0" type="line"/>
      <point x="290" y="0" type="line"/>
    </contour>
    <component base="dieresiscomb" xOffset="46" yOffset="-98"/>
  </outline>
</glyph>
<glyph name="oacute" format="1">
  <advance width="753"/>
  <unicode hex="00F3"/>
  <outline>
    <contour>
      <point x="377" y="1020" type="curve" smooth="yes"/>
      <point x="462" y="1020"/>
      <point x="534" y="991"/>
      <point x="594" y="932" type="curve" smooth="yes"/>
      <point x="654" y="873"/>
      <point x="685" y="802"/>
      <point x="686" y="717" type="curve"/>
      <point x="686" y="305" type="line" smooth="yes"/>
      <point x="686" y="219"/>
      <point x="656" y="146"/>
      <point x="595" y="86" type="curve" smooth="yes"/>
      <point x="534" y="26"/>
      <point x="462" y="-4"/>
      <point x="377" y="-4" type="curve" smooth="yes"/>
      <point x="292" y="-4"/>
      <point x="220" y="25"/>
      <point x="161" y="84" type="curve" smooth="yes"/>
      <point x="102" y="143"/>
      <point x="71" y="214"/>
      <point x="68" y="297" type="curve"/>
      <point x="68" y="305" type="line"/>
      <point x="68" y="711" type="line" smooth="yes"/>
      <point x="68" y="797"/>
      <point x="98" y="870"/>
      <point x="158" y="930" type="curve" smooth="yes"/>
      <point x="218" y="990"/>
      <point x="291" y="1020"/>
    </contour>
    <contour>
      <point x="377" y="813" type="curve" smooth="yes"/>
      <point x="348" y="813"/>
      <point x="324" y="803"/>
      <point x="304" y="784" type="curve" smooth="yes"/>
      <point x="284" y="764"/>
      <point x="274" y="740"/>
      <point x="274" y="713" type="curve" smooth="yes"/>
      <point x="274" y="305" type="line" smooth="yes"/>
      <point x="274" y="276"/>
      <point x="284" y="252"/>
      <point x="304" y="233" type="curve" smooth="yes"/>
      <point x="324" y="213"/>
      <point x="348" y="203"/>
      <point x="377" y="203" type="curve" smooth="yes"/>
      <point x="404" y="203"/>
      <point x="428" y="213"/>
      <point x="449" y="232" type="curve" smooth="yes"/>
      <point x="469" y="251"/>
      <point x="479" y="274"/>
      <point x="479" y="301" type="curve" smooth="yes"/>
      <point x="479" y="711" type="line" smooth="yes"/>
      <point x="479" y="740"/>
      <point x="469" y="764"/>
      <point x="450" y="784" type="curve" smooth="yes"/>
      <point x="430" y="803"/>
      <point x="406" y="813"/>
    </contour>
    <component base="acutecomb" xOffset="179" yOffset="-127"/>
  </outline>
</glyph>
<glyph name="oslash" format="1">
  <advance width="753"/>
  <unicode hex="00F8"/>
  <outline>
    <contour>
      <point x="516" y="1124" type="line"/>
      <point x="686" y="1124" type="line"/>
      <point x="238" y="-100" type="line"/>
      <point x="68" y="-100" type="line"/>
    </contour>
    <component base="o"/>
  </outline>
</glyph>
<glyph name="Aogonek" format="1">
  <advance width="882"/>
  <unicode hex="0104"/>
  <outline>
    <contour>
      <point x="618" y="0" type="curve"/>
      <point x="821" y="0" type="line"/>
      <point x="766" y="-40"/>
      <point x="777" y="-135"/>
      <point x="878" y="-115" type="curve"/>
      <point x="878" y="-290" type="line"/>
      <point x="601" y="-336"/>
      <point x="555" y="-116"/>
    </contour>
    <component base="A"/>
  </outline>
</glyph>
<glyph name="Hbar" format="1">
  <advance width="1007"/>
  <unicode hex="0126"/>
  <outline>
    <contour>
      <point x="98" y="1188" type="line"/>
      <point x="909" y="1188" type="line"/>
      <point x="909" y="1024" type="line"/>
      <point x="98" y="1024" type="line"/>
    </contour>
    <component base="H" xOffset="98"/>
  </outline>
</glyph>
<glyph name="Lslash" format="1">
  <advance width="905"/>
  <unicode hex="0141"/>
  <outline>
    <contour>
      <point x="98" y="724" type="line"/>
      <point x="620" y="924" type="line"/>
      <point x="620" y="760" type="line"/>
      <point x="98" y="560" type="line"/>
    </contour>
    <component base="L" xOffset="156"/>
  </outline>
</glyph>
<glyph name="lslash" format="1">
  <advance width="621"/>
  <unicode hex="0142"/>
  <outline>
    <contour>
      <point x="74" y="724" type="line"/>
      <point x="596" y="924" type="line"/>
      <point x="596" y="760" type="line"/>
      <point x="74" y="560" type="line"/>
    </contour>
    <contour>
      <point x="227" y="1434" type="line"/>
      <point x="432" y="1434" type="line"/>
      <point x="432" y="309" type="line"/>
      <point x="432" y="305" type="line"/>
      <point x="433" y="278"/>
      <point x="444" y="254"/>
      <point x="464" y="235" type="curve" smooth="yes"/>
      <point x="483" y="215"/>
      <point x="507" y="205"/>
      <point x="536" y="205" type="curve"/>
      <point x="536" y="0" type="line"/>
      <point x="451" y="0"/>
      <point x="379" y="30"/>
      <point x="319" y="89" type="curve" smooth="yes"/>
      <point x="259" y="148"/>
      <point x="228" y="220"/>
      <point x="227" y="305" type="curve"/>
      <point x="227" y="309" type="line"/>
    </contour>
  </outline>
</glyph>
<glyph name="Eng" format="1">
  <advance width="802"/>
  <unicode hex="014A"/>
  <outline>
    <contour>
      <point x="90" y="1434" type="line"/>
      <point x="295" y="1434" type="line"/>
      <point x="500" y="717" type="line"/>
      <point x="500" y="1434" type="line"/>
      <point x="705" y="1434" type="line"/>
      <point x="705" y="0" type="line"/>
      <point x="500" y="0" type="line"/>
      <point x="295" y="717" type="line"/>
      <point x="295" y="0" type="line"/>
      <point x="90" y="0" type="line"/>
    </contour>
    <contour>
      <point x="499" y="1074" type="line"/>
      <point x="704" y="1074" type="line"/>
      <point x="704" y="-155" type="line" smooth="yes"/>
      <point x="704" y="-211"/>
      <point x="684" y="-259"/>
      <point x="644" y="-299" type="curve" smooth="yes"/>
      <point x="603" y="-340"/>
      <point x="555" y="-360"/>
      <point x="499" y="-360" type="curve" smooth="yes"/>
      <point x="294" y="-360" type="line"/>
      <point x="294" y="-155" type="line"/>
      <point x="396" y="-155" type="line" smooth="yes"/>
      <point x="425" y="-155"/>
      <point x="449" y="-145"/>
      <point x="469" y="-125" type="curve" smooth="yes"/>
      <point x="489" y="-106"/>
      <point x="499" y="-82"/>
      <point x="499" y="-53" type="curve" smooth="yes"/>
    </contour>
  </outline>
</glyph>
<glyph name="eng" format="1">
  <advance width="787"/>
  <unicode hex="014B"/>
  <outline>
    <contour>
      <point x="86" y="1024" type="line"/>
      <point x="291" y="1024" type="line"/>
      <point x="291" y="819" type="line" smooth="yes"/>
      <point x="291" y="814"/>
      <point x="291.333" y="831.833"/>
      <point x="292" y="841.5" type="curve" smooth="yes"/>
      <point x="292.667" y="851.167"/>
      <point x="296.667" y="867.667"/>
      <point x="304" y="891" type="curve" smooth="yes"/>
      <point x="311.334" y="914.333"/>
      <point x="321.5" y="934.833"/>
      <point x="334.5" y="952.5" type="curve" smooth="yes"/>
      <point x="347.5" y="970.166"/>
      <point x="368" y="986.5"/>
      <point x="396" y="1001.5" type="curve" smooth="yes"/>
      <point x="424" y="1016.5"/>
      <point x="457.167" y="1024"/>
      <point x="495.5" y="1024" type="curve" smooth="yes"/>
      <point x="533.833" y="1023.99"/>
      <point x="567" y="1016.83"/>
      <point x="595" y="1002.5" type="curve" smooth="yes"/>
      <point x="623" y="988.167"/>
      <point x="643.5" y="971.167"/>
      <point x="656.5" y="951.5" type="curve" smooth="yes"/>
      <point x="669.5" y="931.833"/>
      <point x="679.667" y="912"/>
      <point x="687" y="892" type="curve" smooth="yes"/>
      <point x="694.333" y="872"/>
      <point x="698" y="854.667"/>
      <point x="698" y="840" type="curve"/>
      <point x="700" y="819" type="line"/>
      <point x="700" y="719" type="line"/>
      <point x="700" y="717" type="line"/>
      <point x="700" y="0" type="line"/>
      <point x="496" y="0" type="line"/>
      <point x="496" y="717" type="line"/>
      <point x="496" y="719" type="line" smooth="yes"/>
      <point x="496" y="724.333"/>
      <point x="494.833" y="730.833"/>
      <point x="492.5" y="738.5" type="curve" smooth="yes"/>
      <point x="490.167" y="746.167"/>
      <point x="486.333" y="757.167"/>
      <point x="481" y="771.5" type="curve" smooth="yes"/>
      <point x="475.667" y="785.833"/>
      <point x="465.5" y="797.333"/>
      <point x="450.5" y="806" type="curve" smooth="yes"/>
      <point x="435.5" y="814.675"/>
      <point x="416.333" y="819.009"/>
      <point x="393" y="819" type="curve" smooth="yes"/>
      <point x="372.333" y="819"/>
      <point x="354.5" y="815"/>
      <point x="339.5" y="807" type="curve" smooth="yes"/>
      <point x="324.5" y="798.998"/>
      <point x="314" y="788.832"/>
      <point x="308" y="776.5" type="curve" smooth="yes"/>
      <point x="301.999" y="764.164"/>
      <point x="297.666" y="753.83"/>
      <point x="295" y="745.5" type="curve" smooth="yes"/>
      <point x="292.327" y="737.164"/>
      <point x="290.993" y="728.997"/>
      <point x="291" y="721" type="curve" smooth="yes"/>
      <point x="291" y="0" type="line"/>
      <point x="86" y="0" type="line"/>
    </contour>
    <contour>
      <point x="496" y="224" type="line"/>
      <point x="701" y="224" type="line"/>
      <point x="701" y="0" type="line" smooth="yes"/>
      <point x="701" y="-85"/>
      <point x="671" y="-157"/>
      <point x="611" y="-217" type="curve" smooth="yes"/>
      <point x="551" y="-277"/>
      <point x="479" y="-307"/>
      <point x="394" y="-307" type="curve"/>
      <point x="394" y="-102" type="line"/>
      <point x="423" y="-102"/>
      <point x="447" y="-92"/>
      <point x="467" y="-73" type="curve" smooth="yes"/>
      <point x="486" y="-53"/>
      <point x="496" y="-29"/>
      <point x="496" y="0" type="curve" smooth="yes"/>
    </contour>
  </outline>
</glyph>
<glyph name="Tcedilla" format="1">
  <advance width="602"/>
  <unicode hex="0162"/>
  <outline>
    <contour>
      <point x="403" y="0" type="line"/>
      <point x="190" y="-238" type="line"/>
      <point x="29" y="-238" type="line"/>
      <point x="199" y="0" type="line"/>
    </contour>
    <component base="T"/>
  </outline>
</glyph>
<glyph name="tcedilla" format="1">
  <advance width="432"/>
  <unicode hex="0163"/>
  <outline>
    <contour>
      <point x="420" y="-2" type="line"/>
      <point x="217" y="-240" type="line"/>
      <point x="56" y="-240" type="line"/>
      <point x="315" y="123" type="line"/>
    </contour>
    <component base="t"/>
  </outline>
</glyph>
<glyph name="Oopen" format="1">
  <advance width="786"/>
  <unicode hex="0186"/>
  <outline>
    <contour>
      <point x="393" y="1434" type="curve" smooth="yes"/>
      <point x="478" y="1434"/>
      <point x="550" y="1404"/>
      <point x="610" y="1344" type="curve" smooth="yes"/>
      <point x="670" y="1283"/>
      <point x="700" y="1211"/>
      <point x="700" y="1126" type="curve" smooth="yes"/>
      <point x="700" y="307" type="line" smooth="yes"/>
      <point x="700" y="222"/>
      <point x="670" y="150"/>
      <point x="610" y="90" type="curve" smooth="yes"/>
      <point x="550" y="30"/>
      <point x="478" y="0"/>
      <point x="393" y="0" type="curve" smooth="yes"/>
      <point x="308" y="0"/>
      <point x="236" y="30"/>
      <point x="176" y="90" type="curve" smooth="yes"/>
      <point x="116" y="150"/>
      <point x="86" y="222"/>
      <point x="86" y="307" type="curve" smooth="yes"/>
      <point x="86" y="410" type="line"/>
      <point x="290" y="410" type="line"/>
      <point x="290" y="307" type="line" smooth="yes"/>
      <point x="290" y="278"/>
      <point x="300" y="254"/>
      <point x="320" y="235" type="curve" smooth="yes"/>
      <point x="340" y="215"/>
      <point x="364" y="205"/>
      <point x="393" y="205" type="curve" smooth="yes"/>
      <point x="422" y="205"/>
      <point x="446" y="215"/>
      <point x="465" y="235" type="curve" smooth="yes"/>
      <point x="485" y="254"/>
      <point x="495" y="278"/>
      <point x="495" y="307" type="curve" smooth="yes"/>
      <point x="495" y="1126" type="line" smooth="yes"/>
      <point x="495" y="1155"/>
      <point x="485" y="1179"/>
      <point x="465" y="1199" type="curve" smooth="yes"/>
      <point x="446" y="1219"/>
      <point x="422" y="1229"/>
      <point x="393" y="1229" type="curve" smooth="yes"/>
      <point x="364" y="1229"/>
      <point x="340" y="1219"/>
      <point x="320" y="1199" type="curve" smooth="yes"/>
      <point x="300" y="1179"/>
      <point x="290" y="1155"/>
      <point x="290" y="1126" type="curve" smooth="yes"/>
      <point x="290" y="1024" type="line"/>
      <point x="86" y="1024" type="line"/>
      <point x="86" y="1126" type="line" smooth="yes"/>
      <point x="86" y="1211"/>
      <point x="116" y="1283"/>
      <point x="176" y="1344" type="curve" smooth="yes"/>
      <point x="236" y="1404"/>
      <point x="308" y="1434"/>
    </contour>
  </outline>
</glyph>
<glyph name="Chook" format="1">
  <advance width="761"/>
  <unicode hex="0187"/>
  <outline>
    <contour>
      <point x="701" y="1024" type="line"/>
      <point x="496" y="1024" type="line"/>
      <point x="496" y="1248" type="line" smooth="yes"/>
      <point x="496" y="1333"/>
      <point x="526" y="1405"/>
      <point x="586" y="1465" type="curve" smooth="yes"/>
      <point x="646" y="1525"/>
      <point x="718" y="1555"/>
      <point x="803" y="1555" type="curve"/>
      <point x="803" y="1350" type="line"/>
      <point x="774" y="1350"/>
      <point x="750" y="1340"/>
      <point x="730" y="1321" type="curve" smooth="yes"/>
      <point x="711" y="1301"/>
      <point x="701" y="1277"/>
      <point x="701" y="1248" type="curve" smooth="yes"/>
    </contour>
    <component base="C"/>
  </outline>
</glyph>
<glyph name="chook" format="1">
  <advance width="733"/>
  <unicode hex="0188"/>
  <outline>
    <contour>
      <point x="697" y="717" type="line"/>
      <point x="492" y="717" type="line"/>
      <point x="492" y="941" type="line" smooth="yes"/>
      <point x="492" y="1026"/>
      <point x="522" y="1098"/>
      <point x="582" y="1158" type="curve" smooth="yes"/>
      <point x="642" y="1218"/>
      <point x="714" y="1248"/>
      <point x="799" y="1248" type="curve"/>
      <point x="799" y="1043" type="line"/>
      <point x="770" y="1043"/>
      <point x="746" y="1033"/>
      <point x="727" y="1014" type="curve" smooth="yes"/>
      <point x="707" y="994"/>
      <point x="697" y="970"/>
      <point x="697" y="941" type="curve" smooth="yes"/>
    </contour>
    <component base="c"/>
  </outline>
</glyph>
<glyph name="Schwa" format="1">
  <advance width="834"/>
  <unicode hex="018F"/>
  <outline>
    <contour>
      <point x="417" y="0" type="curve" smooth="yes"/>
      <point x="339" y="0"/>
      <point x="256" y="22"/>
      <point x="172" y="103" type="curve" smooth="yes"/>
      <point x="82" y="190"/>
      <point x="68" y="310"/>
      <point x="68" y="429" type="curve" smooth="yes"/>
      <point x="68" y="575" type="line"/>
      <point x="68" y="820" type="line"/>
      <point x="275" y="820" type="line"/>
      <point x="562" y="820" type="line"/>
      <point x="562" y="1005" type="line" smooth="yes"/>
      <point x="562" y="1085"/>
      <point x="542" y="1149"/>
      <point x="520" y="1177" type="curve" smooth="yes"/>
      <point x="496" y="1208"/>
      <point x="463" y="1227"/>
      <point x="417" y="1227" type="curve" smooth="yes"/>
      <point x="372" y="1227"/>
      <point x="338" y="1207"/>
      <point x="315" y="1177" type="curve" smooth="yes"/>
      <point x="293" y="1149"/>
      <point x="275" y="1075"/>
      <point x="275" y="1005" type="curve"/>
      <point x="68" y="1005" type="line"/>
      <point x="68" y="1123"/>
      <point x="93" y="1241"/>
      <point x="174" y="1328" type="curve" smooth="yes"/>
      <point x="253" y="1412"/>
      <point x="340" y="1434"/>
      <point x="417" y="1434" type="curve" smooth="yes"/>
      <point x="495" y="1434"/>
      <point x="582" y="1412"/>
      <point x="661" y="1328" type="curve" smooth="yes"/>
      <point x="742" y="1241"/>
      <point x="767" y="1123"/>
      <point x="767" y="1005" type="curve" smooth="yes"/>
      <point x="767" y="429" type="line" smooth="yes"/>
      <point x="767" y="310"/>
      <point x="745" y="199"/>
      <point x="662" y="105" type="curve" smooth="yes"/>
      <point x="591" y="25"/>
      <point x="495" y="0"/>
    </contour>
    <contour>
      <point x="562" y="615" type="line"/>
      <point x="275" y="615" type="line"/>
      <point x="275" y="351" type="line" smooth="yes"/>
      <point x="275" y="310"/>
      <point x="289" y="274"/>
      <point x="315" y="247" type="curve" smooth="yes"/>
      <point x="343" y="219"/>
      <point x="377" y="205"/>
      <point x="417" y="205" type="curve" smooth="yes"/>
      <point x="458" y="205"/>
      <point x="492" y="219"/>
      <point x="520" y="247" type="curve" smooth="yes"/>
      <point x="548" y="274"/>
      <point x="562" y="310"/>
      <point x="562" y="351" type="curve" smooth="yes"/>
    </contour>
  </outline>
</glyph>
<glyph name="Eopen" format="1">
  <advance width="753"/>
  <unicode hex="0190"/>
  <outline>
    <contour>
      <point x="377" y="1434" type="curve" smooth="yes"/>
      <point x="462" y="1434"/>
      <point x="534" y="1404"/>
      <point x="594" y="1344" type="curve" smooth="yes"/>
      <point x="654" y="1283"/>
      <point x="684" y="1211"/>
      <point x="684" y="1126" type="curve" smooth="yes"/>
      <point x="684" y="1024" type="line"/>
      <point x="480" y="1024" type="line"/>
      <point x="480" y="1126" type="line" smooth="yes"/>
      <point x="480" y="1155"/>
      <point x="470" y="1179"/>
      <point x="450" y="1199" type="curve" smooth="yes"/>
      <point x="430" y="1219"/>
      <point x="406" y="1229"/>
      <point x="377" y="1229" type="curve" smooth="yes"/>
      <point x="348" y="1229"/>
      <point x="324" y="1219"/>
      <point x="305" y="1199" type="curve" smooth="yes"/>
      <point x="285" y="1179"/>
      <point x="275" y="1155"/>
      <point x="275" y="1126" type="curve" smooth="yes"/>
      <point x="275" y="922" type="line" smooth="yes"/>
      <point x="275" y="893"/>
      <point x="285" y="869"/>
      <point x="305" y="849" type="curve" smooth="yes"/>
      <point x="324" y="829"/>
      <point x="348" y="819"/>
      <point x="377" y="819" type="curve"/>
      <point x="377" y="614" type="line"/>
      <point x="348" y="614"/>
      <point x="324" y="604"/>
      <point x="305" y="585" type="curve" smooth="yes"/>
      <point x="285" y="565"/>
      <point x="275" y="541"/>
      <point x="275" y="512" type="curve" smooth="yes"/>
      <point x="275" y="307" type="line" smooth="yes"/>
      <point x="275" y="278"/>
      <point x="285" y="254"/>
      <point x="305" y="235" type="curve" smooth="yes"/>
      <point x="324" y="215"/>
      <point x="348" y="205"/>
      <point x="377" y="205" type="curve" smooth="yes"/>
      <point x="406" y="205"/>
      <point x="430" y="215"/>
      <point x="450" y="235" type="curve" smooth="yes"/>
      <point x="470" y="254"/>
      <point x="480" y="278"/>
      <point x="480" y="307" type="curve" smooth="yes"/>
      <point x="480" y="410" type="line"/>
      <point x="684" y="410" type="line"/>
      <point x="684" y="307" type="line" smooth="yes"/>
      <point x="684" y="222"/>
      <point x="654" y="150"/>
      <point x="594" y="90" type="curve" smooth="yes"/>
      <point x="534" y="30"/>
      <point x="462" y="0"/>
      <point x="377" y="0" type="curve" smooth="yes"/>
      <point x="292" y="0"/>
      <point x="220" y="30"/>
      <point x="160" y="90" type="curve" smooth="yes"/>
      <point x="100" y="150"/>
      <point x="70" y="222"/>
      <point x="70" y="307" type="curve" smooth="yes"/>
      <point x="70" y="512" type="line" smooth="yes"/>
      <point x="70" y="590"/>
      <point x="96" y="658"/>
      <point x="148" y="717" type="curve"/>
      <point x="96" y="776"/>
      <point x="70" y="844"/>
      <point x="70" y="922" type="curve" smooth="yes"/>
      <point x="70" y="1126" type="line" smooth="yes"/>
      <point x="70" y="1211"/>
      <point x="100" y="1283"/>
      <point x="160" y="1344" type="curve" smooth="yes"/>
      <point x="220" y="1404"/>
      <point x="292" y="1434"/>
    </contour>
  </outline>
</glyph>
<glyph name="Fhook" format="1">
  <advance width="749"/>
  <unicode hex="0191"/>
  <outline>
    <contour>
      <point x="98" y="224" type="line"/>
      <point x="98" y="0" type="line" smooth="yes"/>
      <point x="98" y="-29"/>
      <point x="88" y="-53"/>
      <point x="69" y="-73" type="curve" smooth="yes"/>
      <point x="49" y="-92"/>
      <point x="25" y="-102"/>
      <point x="-4" y="-102" type="curve"/>
      <point x="-4" y="-307" type="line"/>
      <point x="81" y="-307"/>
      <point x="153" y="-277"/>
      <point x="213" y="-217" type="curve" smooth="yes"/>
      <point x="273" y="-157"/>
      <point x="303" y="-85"/>
      <point x="303" y="0" type="curve" smooth="yes"/>
      <point x="303" y="224" type="line"/>
    </contour>
    <component base="F"/>
  </outline>
</glyph>
<glyph name="florin" format="1">
  <advance width="450"/>
  <unicode hex="0192"/>
  <outline>
    <contour>
      <point x="123" y="224" type="line"/>
      <point x="328" y="224" type="line"/>
      <point x="328" y="0" type="line" smooth="yes"/>
      <point x="328" y="-85"/>
      <point x="298" y="-157"/>
      <point x="238" y="-217" type="curve" smooth="yes"/>
      <point x="178" y="-277"/>
      <point x="106" y="-307"/>
      <point x="21" y="-307" type="curve"/>
      <point x="21" y="-102" type="line"/>
      <point x="50" y="-102"/>
      <point x="74" y="-92"/>
      <point x="94" y="-73" type="curve" smooth="yes"/>
      <point x="113" y="-53"/>
      <point x="123" y="-29"/>
      <point x="123" y="0" type="curve" smooth="yes"/>
    </contour>
    <component base="f"/>
  </outline>
</glyph>
<glyph name="Ghook" format="1">
  <advance width="786"/>
  <unicode hex="0193"/>
  <outline>
    <contour>
      <point x="701" y="1126" type="line"/>
      <point x="496" y="1126" type="line"/>
      <point x="496" y="1350" type="line" smooth="yes"/>
      <point x="496" y="1435"/>
      <point x="526" y="1507"/>
      <point x="586" y="1567" type="curve" smooth="yes"/>
      <point x="646" y="1627"/>
      <point x="718" y="1657"/>
      <point x="803" y="1657" type="curve"/>
      <point x="803" y="1452" type="line"/>
      <point x="774" y="1452"/>
      <point x="750" y="1442"/>
      <point x="730" y="1423" type="curve" smooth="yes"/>
      <point x="711" y="1403"/>
      <point x="701" y="1379"/>
      <point x="701" y="1350" type="curve" smooth="yes"/>
    </contour>
    <component base="G"/>
  </outline>
</glyph>
<glyph name="Gammaafrican" format="1">
  <advance width="736"/>
  <unicode hex="0194"/>
  <outline>
    <contour>
      <point x="6" y="1434" type="line"/>
      <point x="214" y="316" type="line"/>
      <point x="193" y="210"/>
      <point x="136" y="28"/>
      <point x="134" y="-90" type="curve" smooth="yes"/>
      <point x="132" y="-219"/>
      <point x="174" y="-410"/>
      <point x="364" y="-410" type="curve" smooth="yes"/>
      <point x="554" y="-410"/>
      <point x="594" y="-216"/>
      <point x="594" y="-80" type="curve" smooth="yes"/>
      <point x="594" y="17"/>
      <point x="549" y="183"/>
      <point x="516" y="289" type="curve"/>
      <point x="724" y="1434" type="line"/>
      <point x="518" y="1434" type="line"/>
      <point x="365" y="594" type="line"/>
      <point x="212" y="1432" type="line"/>
      <point x="212" y="1434" type="line"/>
    </contour>
    <contour>
      <point x="365" y="120" type="curve"/>
      <point x="393" y="17"/>
      <point x="404" y="-59"/>
      <point x="404" y="-110" type="curve" smooth="yes"/>
      <point x="404" y="-153"/>
      <point x="393" y="-205"/>
      <point x="363" y="-205" type="curve" smooth="yes"/>
      <point x="333" y="-205"/>
      <point x="324" y="-153"/>
      <point x="324" y="-110" type="curve" smooth="yes"/>
      <point x="324" y="-50"/>
      <point x="333" y="17"/>
    </contour>
  </outline>
</glyph>
<glyph name="Iotaafrican" format="1">
  <advance width="413"/>
  <unicode hex="0196"/>
  <outline>
    <contour>
      <point x="309" y="531" type="line"/>
      <point x="309" y="307" type="line" smooth="yes"/>
      <point x="309" y="278"/>
      <point x="319" y="254"/>
      <point x="338" y="234" type="curve" smooth="yes"/>
      <point x="358" y="215"/>
      <point x="382" y="205"/>
      <point x="411" y="205" type="curve"/>
      <point x="411" y="0" type="line"/>
      <point x="326" y="0"/>
      <point x="254" y="30"/>
      <point x="194" y="90" type="curve" smooth="yes"/>
      <point x="134" y="150"/>
      <point x="104" y="222"/>
      <point x="104" y="307" type="curve" smooth="yes"/>
      <point x="104" y="531" type="line"/>
    </contour>
    <contour>
      <point x="309" y="400" type="line"/>
      <point x="104" y="400" type="line"/>
      <point x="104" y="1434" type="line"/>
      <point x="309" y="1434" type="line"/>
    </contour>
  </outline>
</glyph>
<glyph name="Khook" format="1">
  <advance width="706"/>
  <unicode hex="0198"/>
  <outline>
    <contour>
      <point x="524" y="963" type="line"/>
      <point x="347" y="1032" type="line"/>
      <point x="431" y="1242" type="line" smooth="yes"/>
      <point x="463" y="1321"/>
      <point x="518" y="1376"/>
      <point x="596" y="1410" type="curve" smooth="yes"/>
      <point x="674" y="1443"/>
      <point x="752" y="1443"/>
      <point x="830" y="1412" type="curve"/>
      <point x="753" y="1222" type="line"/>
      <point x="727" y="1233"/>
      <point x="688" y="1237"/>
      <point x="662" y="1227" type="curve" smooth="yes"/>
      <point x="637" y="1216"/>
      <point x="619" y="1197"/>
      <point x="608" y="1171" type="curve" smooth="yes"/>
    </contour>
    <contour>
      <point x="98" y="1434" type="line"/>
      <point x="303" y="1434" type="line"/>
      <point x="303" y="922" type="line"/>
      <point x="347" y="1032" type="line"/>
      <point x="713" y="1434" type="line"/>
      <point x="477" y="844" type="line"/>
      <point x="713" y="0" type="line"/>
      <point x="508" y="0" type="line"/>
      <point x="354" y="537" type="line"/>
      <point x="303" y="410" type="line"/>
      <point x="303" y="0" type="line"/>
      <point x="98" y="0" type="line"/>
    </contour>
  </outline>
</glyph>
<glyph name="khook" format="1">
  <advance width="686"/>
  <unicode hex="0199"/>
  <outline>
    <contour>
      <point x="291" y="903" type="line"/>
      <point x="86" y="903" type="line"/>
      <point x="86" y="1127" type="line" smooth="yes"/>
      <point x="86" y="1212"/>
      <point x="116" y="1284"/>
      <point x="176" y="1344" type="curve" smooth="yes"/>
      <point x="236" y="1404"/>
      <point x="308" y="1434"/>
      <point x="393" y="1434" type="curve"/>
      <point x="393" y="1229" type="line"/>
      <point x="364" y="1229"/>
      <point x="340" y="1219"/>
      <point x="320" y="1200" type="curve" smooth="yes"/>
      <point x="301" y="1180"/>
      <point x="291" y="1156"/>
      <point x="291" y="1127" type="curve" smooth="yes"/>
    </contour>
    <contour>
      <point x="86" y="1034" type="line"/>
      <point x="291" y="1034" type="line"/>
      <point x="291" y="614" type="line"/>
      <point x="496" y="1024" type="line"/>
      <point x="700" y="1024" type="line"/>
      <point x="496" y="614" type="line"/>
      <point x="700" y="0" type="line"/>
      <point x="496" y="0" type="line"/>
      <point x="373" y="369" type="line"/>
      <point x="291" y="205" type="line"/>
      <point x="291" y="0" type="line"/>
      <point x="86" y="0" type="line"/>
      <point x="86" y="205" type="line"/>
    </contour>
  </outline>
</glyph>
<glyph name="Nhookleft" format="1">
  <advance width="794"/>
  <unicode hex="019D"/>
  <outline>
    <contour>
      <point x="90" y="224" type="line"/>
      <point x="295" y="224" type="line"/>
      <point x="295" y="0" type="line" smooth="yes"/>
      <point x="295" y="-85"/>
      <point x="265" y="-157"/>
      <point x="205" y="-217" type="curve" smooth="yes"/>
      <point x="145" y="-277"/>
      <point x="73" y="-307"/>
      <point x="-12" y="-307" type="curve"/>
      <point x="-12" y="-102" type="line"/>
      <point x="17" y="-102"/>
      <point x="41" y="-92"/>
      <point x="61" y="-73" type="curve" smooth="yes"/>
      <point x="80" y="-53"/>
      <point x="90" y="-29"/>
      <point x="90" y="0" type="curve" smooth="yes"/>
    </contour>
    <component base="N"/>
  </outline>
</glyph>
<glyph name="Phook" format="1">
  <advance width="768"/>
  <unicode hex="01A4"/>
  <outline>
    <contour>
      <point x="322" y="1229" type="line"/>
      <point x="98" y="1229" type="line" smooth="yes"/>
      <point x="69" y="1229"/>
      <point x="45" y="1217"/>
      <point x="25" y="1198" type="curve" smooth="yes"/>
      <point x="6" y="1178"/>
      <point x="-4" y="1154"/>
      <point x="-4" y="1125" type="curve"/>
      <point x="-209" y="1125" type="line"/>
      <point x="-209" y="1210"/>
      <point x="-179" y="1282"/>
      <point x="-119" y="1342" type="curve" smooth="yes"/>
      <point x="-59" y="1402"/>
      <point x="13" y="1432"/>
      <point x="98" y="1432" type="curve" smooth="yes"/>
      <point x="322" y="1432" type="line"/>
    </contour>
    <component base="P"/>
  </outline>
</glyph>
<glyph name="phook" format="1">
  <advance width="786"/>
  <unicode hex="01A5"/>
  <outline>
    <contour>
      <point x="291" y="903" type="line"/>
      <point x="86" y="903" type="line"/>
      <point x="86" y="1127" type="line" smooth="yes"/>
      <point x="86" y="1212"/>
      <point x="116" y="1284"/>
      <point x="176" y="1344" type="curve" smooth="yes"/>
      <point x="236" y="1404"/>
      <point x="308" y="1434"/>
      <point x="393" y="1434" type="curve"/>
      <point x="393" y="1229" type="line"/>
      <point x="364" y="1229"/>
      <point x="340" y="1219"/>
      <point x="320" y="1200" type="curve" smooth="yes"/>
      <point x="301" y="1180"/>
      <point x="291" y="1156"/>
      <point x="291" y="1127" type="curve" smooth="yes"/>
    </contour>
    <component base="p"/>
  </outline>
</glyph>
<glyph name="Esh" format="1">
  <advance width="749"/>
  <unicode hex="01A9"/>
  <outline>
    <contour>
      <point x="98" y="0" type="line"/>
      <point x="98" y="205" type="line"/>
      <point x="426" y="717" type="line"/>
      <point x="98" y="1229" type="line"/>
      <point x="98" y="1434" type="line"/>
      <point x="713" y="1434" type="line"/>
      <point x="713" y="1229" type="line"/>
      <point x="347" y="1229" type="line"/>
      <point x="610" y="819" type="line"/>
      <point x="610" y="614" type="line"/>
      <point x="347" y="205" type="line"/>
      <point x="713" y="205" type="line"/>
      <point x="713" y="0" type="line"/>
    </contour>
  </outline>
</glyph>
<glyph name="Thook" format="1">
  <advance width="602"/>
  <unicode hex="01AC"/>
  <outline>
    <contour>
      <point x="320" y="1229" type="line"/>
      <point x="96" y="1229" type="line" smooth="yes"/>
      <point x="67" y="1229"/>
      <point x="43" y="1219"/>
      <point x="23" y="1200" type="curve" smooth="yes"/>
      <point x="4" y="1180"/>
      <point x="-6" y="1156"/>
      <point x="-6" y="1127" type="curve"/>
      <point x="-211" y="1127" type="line"/>
      <point x="-211" y="1212"/>
      <point x="-181" y="1284"/>
      <point x="-121" y="1344" type="curve" smooth="yes"/>
      <point x="-61" y="1404"/>
      <point x="11" y="1434"/>
      <point x="96" y="1434" type="curve" smooth="yes"/>
      <point x="320" y="1434" type="line"/>
    </contour>
    <contour>
      <point x="164" y="1434" type="line"/>
      <point x="608" y="1434" type="line"/>
      <point x="608" y="1229" type="line"/>
      <point x="403" y="1229" type="line"/>
      <point x="403" y="0" type="line"/>
      <point x="199" y="0" type="line"/>
      <point x="199" y="1229" type="line"/>
      <point x="164" y="1229" type="line"/>
    </contour>
  </outline>
</glyph>
<glyph name="thook" format="1">
  <advance width="432"/>
  <unicode hex="01AD"/>
  <outline>
    <contour>
      <point x="317" y="1105" type="line"/>
      <point x="113" y="1105" type="line"/>
      <point x="113" y="1329" type="line" smooth="yes"/>
      <point x="113" y="1414"/>
      <point x="142" y="1486"/>
      <point x="202" y="1546" type="curve" smooth="yes"/>
      <point x="262" y="1606"/>
      <point x="334" y="1636"/>
      <point x="419" y="1636" type="curve"/>
      <point x="419" y="1431" type="line"/>
      <point x="390" y="1431"/>
      <point x="366" y="1421"/>
      <point x="346" y="1402" type="curve" smooth="yes"/>
      <point x="327" y="1382"/>
      <point x="317" y="1358"/>
      <point x="317" y="1329" type="curve" smooth="yes"/>
    </contour>
    <component base="t"/>
  </outline>
</glyph>
<glyph name="Tretroflexhook" format="1">
  <advance width="602"/>
  <unicode hex="01AE"/>
  <outline>
    <contour>
      <point x="-6" y="1434" type="line"/>
      <point x="608" y="1434" type="line"/>
      <point x="608" y="1229" type="line"/>
      <point x="403" y="1229" type="line"/>
      <point x="403" y="0" type="line"/>
      <point x="199" y="0" type="line"/>
      <point x="199" y="1229" type="line"/>
      <point x="-6" y="1229" type="line"/>
    </contour>
    <contour>
      <point x="199" y="121" type="line"/>
      <point x="403" y="0" type="line"/>
      <point x="404" y="-103" type="line" smooth="yes"/>
      <point x="405" y="-188"/>
      <point x="374" y="-260"/>
      <point x="314" y="-320" type="curve" smooth="yes"/>
      <point x="254" y="-380"/>
      <point x="182" y="-410"/>
      <point x="97" y="-410" type="curve"/>
      <point x="97" y="-205" type="line"/>
      <point x="126" y="-205"/>
      <point x="150" y="-195"/>
      <point x="170" y="-176" type="curve" smooth="yes"/>
      <point x="189" y="-156"/>
      <point x="199" y="-132"/>
      <point x="199" y="-103" type="curve" smooth="yes"/>
    </contour>
  </outline>
</glyph>
<glyph name="Upsilonafrican" format="1">
  <advance width="851"/>
  <unicode hex="01B1"/>
  <outline>
    <contour>
      <point x="98" y="1434" type="line"/>
      <point x="323" y="1434" type="line"/>
      <point x="323" y="1230" type="line"/>
      <point x="258" y="687"/>
      <point x="261" y="487"/>
      <point x="288" y="353" type="curve" smooth="yes"/>
      <point x="308" y="255"/>
      <point x="357" y="205"/>
      <point x="428" y="205" type="curve" smooth="yes"/>
      <point x="497" y="205"/>
      <point x="547" y="258"/>
      <point x="566" y="353" type="curve" smooth="yes"/>
      <point x="593" y="487"/>
      <point x="593" y="687"/>
      <point x="528" y="1230" type="curve"/>
      <point x="528" y="1434" type="line"/>
      <point x="753" y="1434" type="line"/>
      <point x="752" y="1230" type="line"/>
      <point x="658" y="1230" type="line"/>
      <point x="678" y="1015"/>
      <point x="732" y="587"/>
      <point x="732" y="453" type="curve" smooth="yes"/>
      <point x="732" y="173"/>
      <point x="635" y="0"/>
      <point x="427" y="0" type="curve" smooth="yes"/>
      <point x="208" y="0"/>
      <point x="118" y="183"/>
      <point x="118" y="453" type="curve" smooth="yes"/>
      <point x="118" y="606"/>
      <point x="173" y="1015"/>
      <point x="193" y="1230" type="curve"/>
      <point x="98" y="1230" type="line"/>
    </contour>
  </outline>
</glyph>
<glyph name="Vhook" format="1">
  <advance width="855"/>
  <unicode hex="01B2"/>
  <outline>
    <contour>
      <point x="86" y="1434" type="line"/>
      <point x="291" y="1434" type="line"/>
      <point x="291" y="353" type="line" smooth="yes"/>
      <point x="291" y="255"/>
      <point x="343" y="205"/>
      <point x="413" y="205" type="curve" smooth="yes"/>
      <point x="483" y="205"/>
      <point x="539" y="259"/>
      <point x="548" y="463" type="curve" smooth="yes"/>
      <point x="568" y="897"/>
      <point x="568" y="1089"/>
      <point x="496" y="1195" type="curve"/>
      <point x="496" y="1434" type="line"/>
      <point x="588" y="1404"/>
      <point x="655" y="1350"/>
      <point x="705" y="1246" type="curve" smooth="yes"/>
      <point x="758" y="1136"/>
      <point x="775" y="898"/>
      <point x="755" y="463" type="curve" smooth="yes"/>
      <point x="737" y="79"/>
      <point x="531" y="0"/>
      <point x="393" y="0" type="curve" smooth="yes"/>
      <point x="254" y="0"/>
      <point x="86" y="83"/>
      <point x="86" y="353" type="curve"/>
      <point x="86" y="1230" type="line"/>
    </contour>
  </outline>
</glyph>
<glyph name="Yhook" format="1">
  <advance width="737"/>
  <unicode hex="01B3"/>
  <outline>
    <contour>
      <point x="614" y="946" type="line"/>
      <point x="668" y="1163" type="line" smooth="yes"/>
      <point x="675" y="1192"/>
      <point x="691" y="1213"/>
      <point x="715" y="1227" type="curve" smooth="yes"/>
      <point x="738" y="1241"/>
      <point x="763" y="1245"/>
      <point x="792" y="1238" type="curve"/>
      <point x="841" y="1437" type="line"/>
      <point x="759" y="1457"/>
      <point x="682" y="1445"/>
      <point x="609" y="1402" type="curve" smooth="yes"/>
      <point x="535" y="1358"/>
      <point x="489" y="1295"/>
      <point x="469" y="1213" type="curve" smooth="yes"/>
      <point x="415" y="996" type="line"/>
    </contour>
    <contour>
      <point x="262" y="408" type="line"/>
      <point x="262" y="-2" type="line"/>
      <point x="469" y="-2" type="line"/>
      <point x="469" y="408" type="line"/>
      <point x="614" y="946" type="line"/>
      <point x="415" y="996" type="line"/>
      <point x="367" y="821" type="line"/>
      <point x="213" y="1434" type="line"/>
      <point x="6" y="1434" type="line"/>
    </contour>
  </outline>
</glyph>
<glyph name="yhook" format="1">
  <advance width="738"/>
  <unicode hex="01B4"/>
  <outline>
    <contour>
      <point x="612" y="1024" type="line"/>
      <point x="433" y="1156" type="line"/>
      <point x="444" y="1210"/>
      <point x="463" y="1284"/>
      <point x="523" y="1344" type="curve" smooth="yes"/>
      <point x="583" y="1404"/>
      <point x="655" y="1434"/>
      <point x="740" y="1434" type="curve"/>
      <point x="740" y="1229" type="line"/>
      <point x="711" y="1229"/>
      <point x="687" y="1219"/>
      <point x="667" y="1200" type="curve" smooth="yes"/>
      <point x="648" y="1180"/>
      <point x="640" y="1156"/>
      <point x="634" y="1127" type="curve" smooth="yes"/>
    </contour>
    <contour>
      <point x="-2" y="1024" type="line"/>
      <point x="203" y="1024" type="line"/>
      <point x="305" y="512" type="line"/>
      <point x="433" y="1156" type="line"/>
      <point x="612" y="1024" type="line"/>
      <point x="408" y="0" type="line"/>
      <point x="408" y="-84.667"/>
      <point x="377.833" y="-157"/>
      <point x="317.5" y="-217" type="curve" smooth="yes"/>
      <point x="257.167" y="-277"/>
      <point x="184.667" y="-307"/>
      <point x="100" y="-307" type="curve"/>
      <point x="100" y="-102" type="line"/>
      <point x="128.667" y="-102"/>
      <point x="153" y="-92.167"/>
      <point x="173" y="-72.5" type="curve" smooth="yes"/>
      <point x="193" y="-52.833"/>
      <point x="203" y="-28.667"/>
      <point x="203" y="0" type="curve"/>
    </contour>
  </outline>
</glyph>
<glyph name="Ezh" format="1">
  <advance width="753"/>
  <unicode hex="01B7"/>
  <outline>
    <contour>
      <point x="508" y="797" type="line"/>
      <point x="683" y="1229" type="line"/>
      <point x="683" y="1434" type="line"/>
      <point x="71" y="1434" type="line"/>
      <point x="71" y="1229" type="line"/>
      <point x="480" y="1229" type="line"/>
      <point x="316" y="817" type="line"/>
    </contour>
    <contour>
      <point x="508" y="797" type="line"/>
      <point x="559" y="771"/>
      <point x="585" y="755"/>
      <point x="616" y="719" type="curve" smooth="yes"/>
      <point x="667" y="660"/>
      <point x="684" y="590"/>
      <point x="684" y="512" type="curve" smooth="yes"/>
      <point x="684" y="307" type="line" smooth="yes"/>
      <point x="684" y="222"/>
      <point x="654" y="150"/>
      <point x="594" y="90" type="curve" smooth="yes"/>
      <point x="534" y="30"/>
      <point x="462" y="0"/>
      <point x="377" y="0" type="curve" smooth="yes"/>
      <point x="292" y="0"/>
      <point x="220" y="30"/>
      <point x="160" y="90" type="curve" smooth="yes"/>
      <point x="100" y="150"/>
      <point x="70" y="222"/>
      <point x="70" y="307" type="curve" smooth="yes"/>
      <point x="70" y="410" type="line"/>
      <point x="274" y="410" type="line"/>
      <point x="274" y="307" type="line" smooth="yes"/>
      <point x="274" y="278"/>
      <point x="284" y="254"/>
      <point x="304" y="235" type="curve" smooth="yes"/>
      <point x="324" y="215"/>
      <point x="348" y="205"/>
      <point x="377" y="205" type="curve" smooth="yes"/>
      <point x="406" y="205"/>
      <point x="430" y="215"/>
      <point x="450" y="235" type="curve" smooth="yes"/>
      <point x="469" y="254"/>
      <point x="479" y="278"/>
      <point x="479" y="307" type="curve" smooth="yes"/>
      <point x="479" y="512" type="line" smooth="yes"/>
      <point x="479" y="541"/>
      <point x="471" y="567"/>
      <point x="450" y="585" type="curve" smooth="yes"/>
      <point x="416" y="614"/>
      <point x="375" y="614"/>
      <point x="316" y="614" type="curve"/>
      <point x="316" y="817" type="line"/>
    </contour>
  </outline>
</glyph>
<glyph name="glottalstopsmall" format="1">
  <advance width="745"/>
  <unicode hex="0242"/>
  <outline>
    <contour>
      <point x="373" y="1024" type="curve" smooth="yes"/>
      <point x="458" y="1024"/>
      <point x="530" y="994"/>
      <point x="590" y="934" type="curve" smooth="yes"/>
      <point x="650" y="873"/>
      <point x="680" y="801"/>
      <point x="680" y="716" type="curve" smooth="yes"/>
      <point x="680" y="563" type="line" smooth="yes"/>
      <point x="680" y="510"/>
      <point x="666" y="452"/>
      <point x="637" y="391" type="curve" smooth="yes"/>
      <point x="625" y="365"/>
      <point x="602" y="326"/>
      <point x="567" y="274" type="curve" smooth="yes"/>
      <point x="532" y="222"/>
      <point x="509" y="182"/>
      <point x="500" y="153" type="curve"/>
      <point x="493" y="130"/>
      <point x="488" y="106"/>
      <point x="484" y="81" type="curve" smooth="yes"/>
      <point x="479" y="56"/>
      <point x="476" y="35"/>
      <point x="475" y="20" type="curve"/>
      <point x="475" y="0" type="line"/>
      <point x="270" y="0" type="line"/>
      <point x="270" y="51" type="line" smooth="yes"/>
      <point x="270" y="103"/>
      <point x="284" y="162"/>
      <point x="313" y="223" type="curve" smooth="yes"/>
      <point x="325" y="249"/>
      <point x="349" y="288"/>
      <point x="384" y="340" type="curve" smooth="yes"/>
      <point x="419" y="391"/>
      <point x="441" y="431"/>
      <point x="451" y="460" type="curve"/>
      <point x="458" y="483"/>
      <point x="463" y="508"/>
      <point x="467" y="533" type="curve" smooth="yes"/>
      <point x="471" y="558"/>
      <point x="474" y="579"/>
      <point x="475" y="594" type="curve"/>
      <point x="475" y="614" type="line"/>
      <point x="475" y="716" type="line" smooth="yes"/>
      <point x="475" y="745"/>
      <point x="465" y="769"/>
      <point x="446" y="789" type="curve" smooth="yes"/>
      <point x="426" y="809"/>
      <point x="402" y="819"/>
      <point x="373" y="819" type="curve" smooth="yes"/>
      <point x="344" y="819"/>
      <point x="320" y="809"/>
      <point x="300" y="789" type="curve" smooth="yes"/>
      <point x="280" y="769"/>
      <point x="270" y="745"/>
      <point x="270" y="716" type="curve" smooth="yes"/>
      <point x="270" y="614" type="line"/>
      <point x="66" y="614" type="line"/>
      <point x="66" y="716" type="line" smooth="yes"/>
      <point x="66" y="801"/>
      <point x="96" y="873"/>
      <point x="156" y="934" type="curve" smooth="yes"/>
      <point x="216" y="994"/>
      <point x="288" y="1024"/>
    </contour>
  </outline>
</glyph>
<glyph name="Ubar" format="1">
  <advance width="1007"/>
  <unicode hex="0244"/>
  <outline>
    <contour>
      <point x="98" y="944" type="line"/>
      <point x="909" y="944" type="line"/>
      <point x="909" y="780" type="line"/>
      <point x="98" y="780" type="line"/>
    </contour>
    <component base="U" xOffset="98"/>
  </outline>
</glyph>
<glyph name="qhooktail" format="1">
  <advance width="786"/>
  <unicode hex="024B"/>
  <outline>
    <contour>
      <point x="700" y="121" type="line"/>
      <point x="700" y="-103" type="line" smooth="yes"/>
      <point x="700" y="-132"/>
      <point x="710" y="-156"/>
      <point x="729" y="-176" type="curve" smooth="yes"/>
      <point x="749" y="-195"/>
      <point x="773" y="-205"/>
      <point x="802" y="-205" type="curve"/>
      <point x="802" y="-410" type="line"/>
      <point x="717" y="-410"/>
      <point x="645" y="-380"/>
      <point x="585" y="-320" type="curve" smooth="yes"/>
      <point x="525" y="-260"/>
      <point x="496" y="-188"/>
      <point x="496" y="-103" type="curve" smooth="yes"/>
      <point x="496" y="121" type="line"/>
    </contour>
    <contour>
      <point x="291" y="1024" type="curve" smooth="yes"/>
      <point x="329" y="1024"/>
      <point x="362" y="1017"/>
      <point x="390" y="1003" type="curve" smooth="yes"/>
      <point x="418" y="988"/>
      <point x="439" y="971"/>
      <point x="452" y="952" type="curve" smooth="yes"/>
      <point x="465" y="932"/>
      <point x="475" y="912"/>
      <point x="483" y="892" type="curve" smooth="yes"/>
      <point x="490" y="872"/>
      <point x="494" y="855"/>
      <point x="494" y="840" type="curve"/>
      <point x="496" y="819" type="line"/>
      <point x="496" y="1024" type="line"/>
      <point x="700" y="1024" type="line"/>
      <point x="700" y="89" type="line"/>
      <point x="496" y="89" type="line"/>
      <point x="496" y="205" type="line" smooth="yes"/>
      <point x="496" y="210"/>
      <point x="496" y="192"/>
      <point x="495" y="183" type="curve" smooth="yes"/>
      <point x="494" y="173"/>
      <point x="490" y="156"/>
      <point x="483" y="133" type="curve" smooth="yes"/>
      <point x="475" y="110"/>
      <point x="464" y="89"/>
      <point x="452" y="72" type="curve" smooth="yes"/>
      <point x="439" y="54"/>
      <point x="418" y="38"/>
      <point x="390" y="23" type="curve" smooth="yes"/>
      <point x="362" y="8"/>
      <point x="329" y="0"/>
      <point x="291" y="0" type="curve" smooth="yes"/>
      <point x="252" y="0"/>
      <point x="219" y="7"/>
      <point x="192" y="22" type="curve" smooth="yes"/>
      <point x="164" y="36"/>
      <point x="144" y="53"/>
      <point x="131" y="73" type="curve" smooth="yes"/>
      <point x="118" y="92"/>
      <point x="107" y="112"/>
      <point x="100" y="132" type="curve" smooth="yes"/>
      <point x="92" y="152"/>
      <point x="88" y="169"/>
      <point x="88" y="184" type="curve"/>
      <point x="86" y="205" type="line"/>
      <point x="86" y="301" type="line"/>
      <point x="86" y="717" type="line"/>
      <point x="86" y="819" type="line" smooth="yes"/>
      <point x="86" y="824"/>
      <point x="86" y="832"/>
      <point x="87" y="842" type="curve" smooth="yes"/>
      <point x="88" y="851"/>
      <point x="92" y="868"/>
      <point x="100" y="891" type="curve" smooth="yes"/>
      <point x="107" y="914"/>
      <point x="118" y="935"/>
      <point x="131" y="953" type="curve" smooth="yes"/>
      <point x="144" y="970"/>
      <point x="164" y="987"/>
      <point x="192" y="1002" type="curve" smooth="yes"/>
      <point x="219" y="1017"/>
      <point x="252" y="1024"/>
    </contour>
    <contour>
      <point x="393" y="819" type="curve" smooth="yes"/>
      <point x="370" y="819"/>
      <point x="351" y="815"/>
      <point x="336" y="806" type="curve" smooth="yes"/>
      <point x="321" y="797"/>
      <point x="310" y="786"/>
      <point x="305" y="772" type="curve" smooth="yes"/>
      <point x="300" y="757"/>
      <point x="296" y="746"/>
      <point x="294" y="739" type="curve" smooth="yes"/>
      <point x="292" y="731"/>
      <point x="291" y="724"/>
      <point x="291" y="719" type="curve" smooth="yes"/>
      <point x="291" y="307" type="line" smooth="yes"/>
      <point x="291" y="304"/>
      <point x="291" y="301"/>
      <point x="292" y="296" type="curve" smooth="yes"/>
      <point x="293" y="291"/>
      <point x="295" y="283"/>
      <point x="298" y="272" type="curve" smooth="yes"/>
      <point x="301" y="260"/>
      <point x="306" y="250"/>
      <point x="313" y="241" type="curve" smooth="yes"/>
      <point x="319" y="232"/>
      <point x="329" y="223"/>
      <point x="344" y="216" type="curve" smooth="yes"/>
      <point x="358" y="209"/>
      <point x="374" y="205"/>
      <point x="393" y="205" type="curve" smooth="yes"/>
      <point x="414" y="205"/>
      <point x="432" y="209"/>
      <point x="447" y="217" type="curve" smooth="yes"/>
      <point x="462" y="225"/>
      <point x="472" y="235"/>
      <point x="478" y="248" type="curve" smooth="yes"/>
      <point x="484" y="260"/>
      <point x="489" y="270"/>
      <point x="492" y="279" type="curve" smooth="yes"/>
      <point x="495" y="287"/>
      <point x="496" y="295"/>
      <point x="496" y="303" type="curve" smooth="yes"/>
      <point x="496" y="721" type="line" smooth="yes"/>
      <point x="496" y="729"/>
      <point x="495" y="737"/>
      <point x="492" y="746" type="curve" smooth="yes"/>
      <point x="489" y="754"/>
      <point x="484" y="764"/>
      <point x="478" y="777" type="curve" smooth="yes"/>
      <point x="472" y="789"/>
      <point x="462" y="799"/>
      <point x="447" y="807" type="curve" smooth="yes"/>
      <point x="431" y="815"/>
      <point x="414" y="819"/>
    </contour>
  </outline>
</glyph>
<glyph name="alpha-latin" format="1">
  <advance width="738"/>
  <unicode hex="0251"/>
  <outline>
    <contour>
      <point x="57" y="205" type="line"/>
      <point x="57" y="819" type="line"/>
      <point x="59" y="840" type="line" smooth="yes"/>
      <point x="59" y="855"/>
      <point x="63" y="872"/>
      <point x="70" y="892" type="curve" smooth="yes"/>
      <point x="77" y="912"/>
      <point x="87" y="932"/>
      <point x="100" y="952" type="curve" smooth="yes"/>
      <point x="113" y="971"/>
      <point x="134" y="988"/>
      <point x="162" y="1003" type="curve" smooth="yes"/>
      <point x="190" y="1017"/>
      <point x="223" y="1024"/>
      <point x="261" y="1024" type="curve" smooth="yes"/>
      <point x="300" y="1024"/>
      <point x="333" y="1017"/>
      <point x="361" y="1002" type="curve" smooth="yes"/>
      <point x="389" y="987"/>
      <point x="409" y="970"/>
      <point x="422" y="953" type="curve" smooth="yes"/>
      <point x="435" y="935"/>
      <point x="446" y="914"/>
      <point x="453" y="891" type="curve" smooth="yes"/>
      <point x="460" y="868"/>
      <point x="464" y="851"/>
      <point x="465" y="842" type="curve" smooth="yes"/>
      <point x="466" y="832"/>
      <point x="466" y="814"/>
      <point x="466" y="819" type="curve" smooth="yes"/>
      <point x="466" y="1024" type="line"/>
      <point x="671" y="1024" type="line"/>
      <point x="671" y="0" type="line"/>
      <point x="466" y="0" type="line"/>
      <point x="466" y="205" type="line" smooth="yes"/>
      <point x="466" y="210"/>
      <point x="466" y="192"/>
      <point x="465" y="182" type="curve" smooth="yes"/>
      <point x="464" y="173"/>
      <point x="460" y="156"/>
      <point x="453" y="133" type="curve" smooth="yes"/>
      <point x="446" y="110"/>
      <point x="435" y="89"/>
      <point x="422" y="71" type="curve" smooth="yes"/>
      <point x="409" y="54"/>
      <point x="389" y="37"/>
      <point x="361" y="22" type="curve" smooth="yes"/>
      <point x="333" y="7"/>
      <point x="300" y="0"/>
      <point x="261" y="0" type="curve" smooth="yes"/>
      <point x="223" y="0"/>
      <point x="190" y="7"/>
      <point x="162" y="21" type="curve" smooth="yes"/>
      <point x="134" y="36"/>
      <point x="113" y="53"/>
      <point x="100" y="72" type="curve" smooth="yes"/>
      <point x="87" y="92"/>
      <point x="77" y="112"/>
      <point x="70" y="132" type="curve" smooth="yes"/>
      <point x="63" y="152"/>
      <point x="59" y="169"/>
      <point x="59" y="184" type="curve" smooth="yes"/>
    </contour>
    <contour>
      <point x="261" y="305" type="line" smooth="yes"/>
      <point x="261" y="300"/>
      <point x="262" y="293"/>
      <point x="264" y="285" type="curve" smooth="yes"/>
      <point x="267" y="278"/>
      <point x="271" y="267"/>
      <point x="276" y="252" type="curve" smooth="yes"/>
      <point x="281" y="238"/>
      <point x="291" y="227"/>
      <point x="306" y="218" type="curve" smooth="yes"/>
      <point x="321" y="209"/>
      <point x="341" y="205"/>
      <point x="364" y="205" type="curve" smooth="yes"/>
      <point x="385" y="205"/>
      <point x="402" y="209"/>
      <point x="417" y="217" type="curve" smooth="yes"/>
      <point x="432" y="225"/>
      <point x="443" y="235"/>
      <point x="449" y="247" type="curve" smooth="yes"/>
      <point x="455" y="260"/>
      <point x="459" y="270"/>
      <point x="462" y="278" type="curve" smooth="yes"/>
      <point x="465" y="287"/>
      <point x="466" y="295"/>
      <point x="466" y="303" type="curve" smooth="yes"/>
      <point x="466" y="721" type="line" smooth="yes"/>
      <point x="466" y="729"/>
      <point x="465" y="737"/>
      <point x="462" y="746" type="curve" smooth="yes"/>
      <point x="459" y="754"/>
      <point x="455" y="764"/>
      <point x="449" y="777" type="curve" smooth="yes"/>
      <point x="443" y="789"/>
      <point x="432" y="799"/>
      <point x="417" y="807" type="curve" smooth="yes"/>
      <point x="402" y="815"/>
      <point x="385" y="819"/>
      <point x="364" y="819" type="curve" smooth="yes"/>
      <point x="341" y="819"/>
      <point x="321" y="815"/>
      <point x="306" y="806" type="curve" smooth="yes"/>
      <point x="291" y="797"/>
      <point x="281" y="786"/>
      <point x="276" y="772" type="curve" smooth="yes"/>
      <point x="271" y="757"/>
      <point x="267" y="746"/>
      <point x="264" y="739" type="curve" smooth="yes"/>
      <point x="262" y="731"/>
      <point x="261" y="724"/>
      <point x="261" y="719" type="curve" smooth="yes"/>
    </contour>
  </outline>
</glyph>
<glyph name="bhook" format="1">
  <advance width="786"/>
  <unicode hex="0253"/>
  <outline>
    <contour>
      <point x="291" y="903" type="line"/>
      <point x="291" y="1127" type="line" smooth="yes"/>
      <point x="291" y="1156"/>
      <point x="301" y="1180"/>
      <point x="321" y="1200" type="curve" smooth="yes"/>
      <point x="340" y="1219"/>
      <point x="364" y="1229"/>
      <point x="393" y="1229" type="curve"/>
      <point x="393" y="1434" type="line"/>
      <point x="308" y="1434"/>
      <point x="236" y="1404"/>
      <point x="176" y="1344" type="curve" smooth="yes"/>
      <point x="116" y="1284"/>
      <point x="86" y="1212"/>
      <point x="86" y="1127" type="curve" smooth="yes"/>
      <point x="86" y="903" type="line"/>
    </contour>
    <contour>
      <point x="291" y="1034" type="line"/>
      <point x="86" y="1034" type="line"/>
      <point x="86" y="0" type="line"/>
      <point x="291" y="0" type="line"/>
      <point x="291" y="205" type="line" smooth="yes"/>
      <point x="291" y="210"/>
      <point x="291" y="192"/>
      <point x="292" y="183" type="curve" smooth="yes"/>
      <point x="293" y="173"/>
      <point x="297" y="156"/>
      <point x="304" y="133" type="curve" smooth="yes"/>
      <point x="311" y="110"/>
      <point x="322" y="89"/>
      <point x="335" y="72" type="curve" smooth="yes"/>
      <point x="348" y="54"/>
      <point x="368" y="38"/>
      <point x="396" y="23" type="curve" smooth="yes"/>
      <point x="424" y="8"/>
      <point x="457" y="0"/>
      <point x="496" y="0" type="curve" smooth="yes"/>
      <point x="534" y="0"/>
      <point x="567" y="7"/>
      <point x="595" y="22" type="curve" smooth="yes"/>
      <point x="623" y="36"/>
      <point x="644" y="53"/>
      <point x="657" y="73" type="curve" smooth="yes"/>
      <point x="670" y="92"/>
      <point x="680" y="112"/>
      <point x="687" y="132" type="curve" smooth="yes"/>
      <point x="694" y="152"/>
      <point x="698" y="169"/>
      <point x="698" y="184" type="curve"/>
      <point x="700" y="205" type="line"/>
      <point x="700" y="307" type="line"/>
      <point x="700" y="717" type="line"/>
      <point x="700" y="819" type="line" smooth="yes"/>
      <point x="700" y="824"/>
      <point x="700" y="832"/>
      <point x="699" y="842" type="curve" smooth="yes"/>
      <point x="698" y="851"/>
      <point x="694" y="868"/>
      <point x="687" y="891" type="curve" smooth="yes"/>
      <point x="680" y="914"/>
      <point x="669" y="935"/>
      <point x="657" y="953" type="curve" smooth="yes"/>
      <point x="644" y="970"/>
      <point x="623" y="987"/>
      <point x="595" y="1002" type="curve" smooth="yes"/>
      <point x="567" y="1017"/>
      <point x="534" y="1024"/>
      <point x="496" y="1024" type="curve" smooth="yes"/>
      <point x="457" y="1024"/>
      <point x="424" y="1017"/>
      <point x="396" y="1003" type="curve" smooth="yes"/>
      <point x="368" y="988"/>
      <point x="348" y="971"/>
      <point x="335" y="952" type="curve" smooth="yes"/>
      <point x="322" y="932"/>
      <point x="311" y="912"/>
      <point x="304" y="892" type="curve" smooth="yes"/>
      <point x="297" y="872"/>
      <point x="293" y="855"/>
      <point x="293" y="840" type="curve"/>
      <point x="291" y="819" type="line"/>
    </contour>
    <contour>
      <point x="291" y="307" type="line"/>
      <point x="291" y="717" type="line" smooth="yes"/>
      <point x="291" y="720"/>
      <point x="291" y="723"/>
      <point x="292" y="728" type="curve" smooth="yes"/>
      <point x="293" y="733"/>
      <point x="295" y="741"/>
      <point x="298" y="753" type="curve" smooth="yes"/>
      <point x="301" y="764"/>
      <point x="306" y="775"/>
      <point x="313" y="784" type="curve" smooth="yes"/>
      <point x="319" y="793"/>
      <point x="329" y="801"/>
      <point x="344" y="808" type="curve" smooth="yes"/>
      <point x="358" y="815"/>
      <point x="374" y="819"/>
      <point x="393" y="819" type="curve" smooth="yes"/>
      <point x="423" y="819"/>
      <point x="447" y="811"/>
      <point x="464" y="794" type="curve" smooth="yes"/>
      <point x="481" y="777"/>
      <point x="491" y="759"/>
      <point x="494" y="741" type="curve"/>
      <point x="496" y="717" type="line"/>
      <point x="496" y="307" type="line" smooth="yes"/>
      <point x="496" y="304"/>
      <point x="496" y="301"/>
      <point x="495" y="296" type="curve" smooth="yes"/>
      <point x="494" y="291"/>
      <point x="492" y="283"/>
      <point x="489" y="272" type="curve" smooth="yes"/>
      <point x="485" y="260"/>
      <point x="480" y="250"/>
      <point x="474" y="241" type="curve" smooth="yes"/>
      <point x="468" y="232"/>
      <point x="458" y="223"/>
      <point x="444" y="216" type="curve" smooth="yes"/>
      <point x="429" y="209"/>
      <point x="413" y="205"/>
      <point x="394" y="205" type="curve" smooth="yes"/>
      <point x="375" y="205"/>
      <point x="358" y="208"/>
      <point x="344" y="215" type="curve" smooth="yes"/>
      <point x="329" y="222"/>
      <point x="319" y="230"/>
      <point x="313" y="241" type="curve" smooth="yes"/>
      <point x="306" y="251"/>
      <point x="301" y="261"/>
      <point x="298" y="272" type="curve" smooth="yes"/>
      <point x="295" y="282"/>
      <point x="292" y="290"/>
      <point x="291" y="297" type="curve"/>
    </contour>
  </outline>
</glyph>
<glyph name="oopen" format="1">
  <advance width="749"/>
  <unicode hex="0254"/>
  <outline>
    <contour>
      <point x="375" y="205" type="curve" smooth="yes"/>
      <point x="404" y="205"/>
      <point x="428" y="215"/>
      <point x="447" y="235" type="curve" smooth="yes"/>
      <point x="467" y="254"/>
      <point x="477" y="278"/>
      <point x="477" y="307" type="curve" smooth="yes"/>
      <point x="477" y="717" type="line" smooth="yes"/>
      <point x="477" y="746"/>
      <point x="467" y="770"/>
      <point x="447" y="790" type="curve" smooth="yes"/>
      <point x="428" y="809"/>
      <point x="404" y="819"/>
      <point x="375" y="819" type="curve" smooth="yes"/>
      <point x="346" y="819"/>
      <point x="322" y="809"/>
      <point x="302" y="790" type="curve" smooth="yes"/>
      <point x="282" y="770"/>
      <point x="272" y="746"/>
      <point x="272" y="717" type="curve"/>
      <point x="68" y="717" type="line"/>
      <point x="68" y="802"/>
      <point x="98" y="874"/>
      <point x="158" y="934" type="curve" smooth="yes"/>
      <point x="218" y="994"/>
      <point x="290" y="1024"/>
      <point x="375" y="1024" type="curve" smooth="yes"/>
      <point x="460" y="1024"/>
      <point x="532" y="994"/>
      <point x="592" y="934" type="curve" smooth="yes"/>
      <point x="652" y="874"/>
      <point x="682" y="802"/>
      <point x="682" y="717" type="curve" smooth="yes"/>
      <point x="682" y="307" type="line" smooth="yes"/>
      <point x="682" y="222"/>
      <point x="652" y="150"/>
      <point x="592" y="90" type="curve" smooth="yes"/>
      <point x="532" y="30"/>
      <point x="460" y="0"/>
      <point x="375" y="0" type="curve" smooth="yes"/>
      <point x="290" y="0"/>
      <point x="218" y="30"/>
      <point x="158" y="90" type="curve" smooth="yes"/>
      <point x="98" y="150"/>
      <point x="68" y="222"/>
      <point x="68" y="307" type="curve"/>
      <point x="272" y="307" type="line"/>
      <point x="272" y="278"/>
      <point x="282" y="254"/>
      <point x="302" y="235" type="curve" smooth="yes"/>
      <point x="322" y="215"/>
      <point x="346" y="205"/>
    </contour>
  </outline>
</glyph>
<glyph name="dtail" format="1">
  <advance width="786"/>
  <unicode hex="0256"/>
  <outline>
    <contour>
      <point x="700" y="224" type="line"/>
      <point x="700" y="0" type="line" smooth="yes"/>
      <point x="700" y="-29"/>
      <point x="710" y="-53"/>
      <point x="729" y="-73" type="curve" smooth="yes"/>
      <point x="749" y="-92"/>
      <point x="773" y="-102"/>
      <point x="802" y="-102" type="curve"/>
      <point x="802" y="-307" type="line"/>
      <point x="717" y="-307"/>
      <point x="645" y="-277"/>
      <point x="585" y="-217" type="curve" smooth="yes"/>
      <point x="525" y="-157"/>
      <point x="495" y="-85"/>
      <point x="495" y="0" type="curve" smooth="yes"/>
      <point x="495" y="224" type="line"/>
    </contour>
    <component base="d"/>
  </outline>
</glyph>
<glyph name="dhook" format="1">
  <advance width="786"/>
  <unicode hex="0257"/>
  <outline>
    <contour>
      <point x="700" y="903" type="line"/>
      <point x="496" y="903" type="line"/>
      <point x="496" y="1127" type="line" smooth="yes"/>
      <point x="496" y="1212"/>
      <point x="525" y="1284"/>
      <point x="585" y="1344" type="curve" smooth="yes"/>
      <point x="645" y="1404"/>
      <point x="717" y="1434"/>
      <point x="802" y="1434" type="curve"/>
      <point x="802" y="1229" type="line"/>
      <point x="773" y="1229"/>
      <point x="749" y="1219"/>
      <point x="729" y="1200" type="curve" smooth="yes"/>
      <point x="710" y="1180"/>
      <point x="700" y="1156"/>
      <point x="700" y="1127" type="curve" smooth="yes"/>
    </contour>
    <contour>
      <point x="496" y="1034" type="line"/>
      <point x="700" y="1034" type="line"/>
      <point x="700" y="0" type="line"/>
      <point x="496" y="0" type="line"/>
      <point x="496" y="205" type="line" smooth="yes"/>
      <point x="496" y="210"/>
      <point x="496" y="192"/>
      <point x="495" y="183" type="curve" smooth="yes"/>
      <point x="494" y="173"/>
      <point x="490" y="156"/>
      <point x="483" y="133" type="curve" smooth="yes"/>
      <point x="475" y="110"/>
      <point x="464" y="89"/>
      <point x="452" y="72" type="curve" smooth="yes"/>
      <point x="439" y="54"/>
      <point x="418" y="38"/>
      <point x="390" y="23" type="curve" smooth="yes"/>
      <point x="362" y="8"/>
      <point x="329" y="0"/>
      <point x="291" y="0" type="curve" smooth="yes"/>
      <point x="252" y="0"/>
      <point x="219" y="7"/>
      <point x="192" y="22" type="curve" smooth="yes"/>
      <point x="164" y="36"/>
      <point x="144" y="53"/>
      <point x="131" y="73" type="curve" smooth="yes"/>
      <point x="118" y="92"/>
      <point x="107" y="112"/>
      <point x="100" y="132" type="curve" smooth="yes"/>
      <point x="92" y="152"/>
      <point x="88" y="169"/>
      <point x="88" y="184" type="curve"/>
      <point x="86" y="205" type="line"/>
      <point x="86" y="307" type="line"/>
      <point x="86" y="717" type="line"/>
      <point x="86" y="819" type="line" smooth="yes"/>
      <point x="86" y="824"/>
      <point x="86" y="832"/>
      <point x="87" y="842" type="curve" smooth="yes"/>
      <point x="88" y="851"/>
      <point x="92" y="868"/>
      <point x="100" y="891" type="curve" smooth="yes"/>
      <point x="107" y="914"/>
      <point x="118" y="935"/>
      <point x="131" y="953" type="curve" smooth="yes"/>
      <point x="144" y="970"/>
      <point x="164" y="987"/>
      <point x="192" y="1002" type="curve" smooth="yes"/>
      <point x="219" y="1017"/>
      <point x="252" y="1024"/>
      <point x="291" y="1024" type="curve" smooth="yes"/>
      <point x="329" y="1024"/>
      <point x="362" y="1017"/>
      <point x="390" y="1003" type="curve" smooth="yes"/>
      <point x="418" y="988"/>
      <point x="439" y="971"/>
      <point x="452" y="952" type="curve" smooth="yes"/>
      <point x="465" y="932"/>
      <point x="475" y="912"/>
      <point x="483" y="892" type="curve" smooth="yes"/>
      <point x="490" y="872"/>
      <point x="494" y="855"/>
      <point x="494" y="840" type="curve"/>
      <point x="496" y="819" type="line"/>
    </contour>
    <contour>
      <point x="496" y="307" type="line"/>
      <point x="496" y="717" type="line" smooth="yes"/>
      <point x="496" y="720"/>
      <point x="496" y="723"/>
      <point x="495" y="728" type="curve" smooth="yes"/>
      <point x="494" y="733"/>
      <point x="492" y="741"/>
      <point x="489" y="753" type="curve" smooth="yes"/>
      <point x="485" y="764"/>
      <point x="480" y="775"/>
      <point x="474" y="784" type="curve" smooth="yes"/>
      <point x="468" y="793"/>
      <point x="458" y="801"/>
      <point x="444" y="808" type="curve" smooth="yes"/>
      <point x="429" y="815"/>
      <point x="412" y="819"/>
      <point x="393" y="819" type="curve" smooth="yes"/>
      <point x="363" y="819"/>
      <point x="340" y="811"/>
      <point x="323" y="794" type="curve" smooth="yes"/>
      <point x="306" y="777"/>
      <point x="296" y="759"/>
      <point x="293" y="741" type="curve"/>
      <point x="291" y="717" type="line"/>
      <point x="291" y="307" type="line" smooth="yes"/>
      <point x="291" y="304"/>
      <point x="291" y="301"/>
      <point x="292" y="296" type="curve" smooth="yes"/>
      <point x="293" y="291"/>
      <point x="295" y="283"/>
      <point x="298" y="272" type="curve" smooth="yes"/>
      <point x="301" y="260"/>
      <point x="306" y="250"/>
      <point x="313" y="241" type="curve" smooth="yes"/>
      <point x="319" y="232"/>
      <point x="329" y="223"/>
      <point x="344" y="216" type="curve" smooth="yes"/>
      <point x="358" y="209"/>
      <point x="374" y="205"/>
      <point x="393" y="205" type="curve" smooth="yes"/>
      <point x="423" y="205"/>
      <point x="447" y="214"/>
      <point x="464" y="231" type="curve" smooth="yes"/>
      <point x="481" y="248"/>
      <point x="491" y="265"/>
      <point x="494" y="283" type="curve"/>
    </contour>
  </outline>
</glyph>
<glyph name="eopen" format="1">
  <advance width="733"/>
  <unicode hex="025B"/>
  <outline>
    <contour>
      <point x="389" y="205" type="curve" smooth="yes"/>
      <point x="417.667" y="205"/>
      <point x="442" y="214.833"/>
      <point x="462" y="234.5" type="curve" smooth="yes"/>
      <point x="482" y="254.167"/>
      <point x="492" y="278.333"/>
      <point x="492" y="307" type="curve"/>
      <point x="696" y="307" type="line"/>
      <point x="696" y="222.333"/>
      <point x="666" y="150"/>
      <point x="606" y="90" type="curve" smooth="yes"/>
      <point x="546" y="30"/>
      <point x="473.666" y="0"/>
      <point x="389" y="0" type="curve" smooth="yes"/>
      <point x="304.333" y="0"/>
      <point x="230" y="25"/>
      <point x="170" y="85" type="curve" smooth="yes"/>
      <point x="110" y="145"/>
      <point x="82" y="214"/>
      <point x="82" y="287" type="curve" smooth="yes"/>
      <point x="82" y="412"/>
      <point x="155" y="480"/>
      <point x="222" y="510" type="curve"/>
      <point x="155" y="540"/>
      <point x="82" y="612"/>
      <point x="82" y="737" type="curve" smooth="yes"/>
      <point x="82" y="812"/>
      <point x="109" y="878"/>
      <point x="170" y="939" type="curve" smooth="yes"/>
      <point x="230" y="999"/>
      <point x="304.333" y="1024"/>
      <point x="389" y="1024" type="curve" smooth="yes"/>
      <point x="473.667" y="1024"/>
      <point x="546" y="994"/>
      <point x="606" y="934" type="curve" smooth="yes"/>
      <point x="666" y="874"/>
      <point x="696" y="801.667"/>
      <point x="696" y="717" type="curve"/>
      <point x="492" y="717" type="line"/>
      <point x="492" y="745.668"/>
      <point x="482" y="769.835"/>
      <point x="462" y="789.5" type="curve" smooth="yes"/>
      <point x="442" y="809.169"/>
      <point x="417.666" y="819.002"/>
      <point x="389" y="819" type="curve" smooth="yes"/>
      <point x="360.333" y="819"/>
      <point x="336.166" y="809.167"/>
      <point x="316.5" y="789.5" type="curve" smooth="yes"/>
      <point x="296.833" y="769.833"/>
      <point x="287" y="747"/>
      <point x="287" y="717" type="curve" smooth="yes"/>
      <point x="287" y="657"/>
      <point x="344" y="610"/>
      <point x="457" y="610" type="curve"/>
      <point x="457" y="410" type="line"/>
      <point x="344" y="410"/>
      <point x="287" y="367"/>
      <point x="287" y="307" type="curve" smooth="yes"/>
      <point x="287" y="278"/>
      <point x="296.833" y="254.167"/>
      <point x="316.5" y="234.5" type="curve" smooth="yes"/>
      <point x="336.167" y="214.833"/>
      <point x="360.333" y="205"/>
    </contour>
  </outline>
</glyph>
<glyph name="ghook" format="1">
  <advance width="786"/>
  <unicode hex="0260"/>
  <outline>
    <contour>
      <point x="700" y="903" type="line"/>
      <point x="496" y="903" type="line"/>
      <point x="496" y="1127" type="line" smooth="yes"/>
      <point x="496" y="1212"/>
      <point x="525" y="1284"/>
      <point x="585" y="1344" type="curve" smooth="yes"/>
      <point x="645" y="1404"/>
      <point x="717" y="1434"/>
      <point x="802" y="1434" type="curve"/>
      <point x="802" y="1229" type="line"/>
      <point x="773" y="1229"/>
      <point x="749" y="1219"/>
      <point x="729" y="1200" type="curve" smooth="yes"/>
      <point x="710" y="1180"/>
      <point x="700" y="1156"/>
      <point x="700" y="1127" type="curve" smooth="yes"/>
    </contour>
    <component base="g"/>
  </outline>
</glyph>
<glyph name="gamma-latin" format="1">
  <advance width="610"/>
  <unicode hex="0263"/>
  <outline>
    <contour>
      <point x="-2" y="1024" type="line"/>
      <point x="154" y="244" type="line"/>
      <point x="130" y="138"/>
      <point x="76" y="18"/>
      <point x="74" y="-90" type="curve" smooth="yes"/>
      <point x="72" y="-219"/>
      <point x="114" y="-410"/>
      <point x="304" y="-410" type="curve" smooth="yes"/>
      <point x="494" y="-410"/>
      <point x="534" y="-216"/>
      <point x="534" y="-80" type="curve" smooth="yes"/>
      <point x="534" y="7"/>
      <point x="479" y="138"/>
      <point x="456" y="244" type="curve"/>
      <point x="612" y="1024" type="line"/>
      <point x="408" y="1024" type="line"/>
      <point x="305" y="512" type="line"/>
      <point x="203" y="1024" type="line"/>
    </contour>
    <contour>
      <point x="305" y="120" type="curve"/>
      <point x="333" y="17"/>
      <point x="344" y="-59"/>
      <point x="344" y="-110" type="curve" smooth="yes"/>
      <point x="344" y="-153"/>
      <point x="333" y="-205"/>
      <point x="303" y="-205" type="curve" smooth="yes"/>
      <point x="273" y="-205"/>
      <point x="264" y="-153"/>
      <point x="264" y="-110" type="curve" smooth="yes"/>
      <point x="264" y="-50"/>
      <point x="273" y="17"/>
    </contour>
  </outline>
</glyph>
<glyph name="hhook" format="1">
  <advance width="786"/>
  <unicode hex="0266"/>
  <outline>
    <contour>
      <point x="291" y="903" type="line"/>
      <point x="86" y="903" type="line"/>
      <point x="86" y="1127" type="line" smooth="yes"/>
      <point x="86" y="1212"/>
      <point x="116" y="1284"/>
      <point x="176" y="1344" type="curve" smooth="yes"/>
      <point x="236" y="1404"/>
      <point x="308" y="1434"/>
      <point x="393" y="1434" type="curve"/>
      <point x="393" y="1229" type="line"/>
      <point x="364" y="1229"/>
      <point x="340" y="1219"/>
      <point x="320" y="1200" type="curve" smooth="yes"/>
      <point x="301" y="1180"/>
      <point x="291" y="1156"/>
      <point x="291" y="1127" type="curve" smooth="yes"/>
    </contour>
    <contour>
      <point x="86" y="1034" type="line"/>
      <point x="291" y="1034" type="line"/>
      <point x="291" y="819" type="line" smooth="yes"/>
      <point x="291" y="814"/>
      <point x="291" y="832"/>
      <point x="292" y="842" type="curve" smooth="yes"/>
      <point x="293" y="851"/>
      <point x="297" y="868"/>
      <point x="304" y="891" type="curve" smooth="yes"/>
      <point x="311" y="914"/>
      <point x="322" y="935"/>
      <point x="335" y="953" type="curve" smooth="yes"/>
      <point x="348" y="970"/>
      <point x="368" y="987"/>
      <point x="396" y="1002" type="curve" smooth="yes"/>
      <point x="424" y="1017"/>
      <point x="457" y="1024"/>
      <point x="496" y="1024" type="curve" smooth="yes"/>
      <point x="534" y="1024"/>
      <point x="567" y="1017"/>
      <point x="595" y="1003" type="curve" smooth="yes"/>
      <point x="623" y="988"/>
      <point x="644" y="971"/>
      <point x="657" y="952" type="curve" smooth="yes"/>
      <point x="670" y="932"/>
      <point x="680" y="912"/>
      <point x="687" y="892" type="curve" smooth="yes"/>
      <point x="694" y="872"/>
      <point x="698" y="855"/>
      <point x="698" y="840" type="curve"/>
      <point x="700" y="819" type="line"/>
      <point x="700" y="719" type="line"/>
      <point x="700" y="717" type="line"/>
      <point x="700" y="0" type="line"/>
      <point x="496" y="0" type="line"/>
      <point x="496" y="717" type="line"/>
      <point x="496" y="719" type="line" smooth="yes"/>
      <point x="496" y="724"/>
      <point x="495" y="731"/>
      <point x="493" y="739" type="curve" smooth="yes"/>
      <point x="490" y="746"/>
      <point x="486" y="757"/>
      <point x="481" y="772" type="curve" smooth="yes"/>
      <point x="476" y="786"/>
      <point x="466" y="797"/>
      <point x="451" y="806" type="curve" smooth="yes"/>
      <point x="436" y="815"/>
      <point x="416" y="819"/>
      <point x="393" y="819" type="curve" smooth="yes"/>
      <point x="372" y="819"/>
      <point x="355" y="815"/>
      <point x="340" y="807" type="curve" smooth="yes"/>
      <point x="325" y="799"/>
      <point x="314" y="789"/>
      <point x="308" y="777" type="curve" smooth="yes"/>
      <point x="302" y="764"/>
      <point x="298" y="754"/>
      <point x="295" y="746" type="curve" smooth="yes"/>
      <point x="292" y="737"/>
      <point x="291" y="729"/>
      <point x="291" y="721" type="curve" smooth="yes"/>
      <point x="291" y="0" type="line"/>
      <point x="86" y="0" type="line"/>
    </contour>
  </outline>
</glyph>
<glyph name="iota-latin" format="1">
  <advance width="478"/>
  <unicode hex="0269"/>
  <outline>
    <contour>
      <point x="291" y="1024" type="line"/>
      <point x="291" y="307" type="line" smooth="yes"/>
      <point x="291" y="278"/>
      <point x="301" y="254"/>
      <point x="320" y="234" type="curve" smooth="yes"/>
      <point x="340" y="215"/>
      <point x="364" y="205"/>
      <point x="393" y="205" type="curve"/>
      <point x="393" y="0" type="line"/>
      <point x="308" y="0"/>
      <point x="236" y="30"/>
      <point x="176" y="90" type="curve" smooth="yes"/>
      <point x="116" y="150"/>
      <point x="86" y="222"/>
      <point x="86" y="307" type="curve" smooth="yes"/>
      <point x="86" y="1024" type="line"/>
    </contour>
  </outline>
</glyph>
<glyph name="nhookleft" format="1">
  <advance width="786"/>
  <unicode hex="0272"/>
  <outline>
    <contour>
      <point x="86" y="224" type="line"/>
      <point x="291" y="224" type="line"/>
      <point x="291" y="0" type="line" smooth="yes"/>
      <point x="291" y="-85"/>
      <point x="261" y="-157"/>
      <point x="201" y="-217" type="curve" smooth="yes"/>
      <point x="141" y="-277"/>
      <point x="69" y="-307"/>
      <point x="-16" y="-307" type="curve"/>
      <point x="-16" y="-102" type="line"/>
      <point x="13" y="-102"/>
      <point x="37" y="-92"/>
      <point x="57" y="-73" type="curve" smooth="yes"/>
      <point x="76" y="-53"/>
      <point x="86" y="-29"/>
      <point x="86" y="0" type="curve" smooth="yes"/>
    </contour>
    <component base="n"/>
  </outline>
</glyph>
<glyph name="rhook" format="1">
  <advance width="720"/>
  <unicode hex="027D"/>
  <outline>
    <contour>
      <point x="291" y="224" type="line"/>
      <point x="291" y="0" type="line" smooth="yes"/>
      <point x="291" y="-29"/>
      <point x="301" y="-53"/>
      <point x="320" y="-73" type="curve" smooth="yes"/>
      <point x="340" y="-92"/>
      <point x="364" y="-102"/>
      <point x="393" y="-102" type="curve"/>
      <point x="393" y="-307" type="line"/>
      <point x="308" y="-307"/>
      <point x="236" y="-277"/>
      <point x="176" y="-217" type="curve" smooth="yes"/>
      <point x="116" y="-157"/>
      <point x="86" y="-85"/>
      <point x="86" y="0" type="curve" smooth="yes"/>
      <point x="86" y="224" type="line"/>
    </contour>
    <component base="r"/>
  </outline>
</glyph>
<glyph name="rfishhook" format="1">
  <advance width="443"/>
  <unicode hex="027E"/>
  <outline>
    <contour>
      <point x="291" y="0" type="line"/>
      <point x="86" y="0" type="line"/>
      <point x="86" y="717" type="line" smooth="yes"/>
      <point x="86" y="802"/>
      <point x="116" y="874"/>
      <point x="176" y="934" type="curve" smooth="yes"/>
      <point x="236" y="994"/>
      <point x="318" y="1024"/>
      <point x="423" y="1024" type="curve"/>
      <point x="423" y="819" type="line"/>
      <point x="364" y="819"/>
      <point x="340" y="809"/>
      <point x="320" y="790" type="curve" smooth="yes"/>
      <point x="301" y="770"/>
      <point x="291" y="746"/>
      <point x="291" y="717" type="curve" smooth="yes"/>
    </contour>
  </outline>
</glyph>
<glyph name="esh" format="1">
  <advance width="449"/>
  <unicode hex="0283"/>
  <outline>
    <contour>
      <point x="20" y="-410" type="line"/>
      <point x="105" y="-410"/>
      <point x="177" y="-380"/>
      <point x="237" y="-320" type="curve" smooth="yes"/>
      <point x="297" y="-260"/>
      <point x="327" y="-188"/>
      <point x="327" y="-103" type="curve" smooth="yes"/>
      <point x="327" y="1127" type="line" smooth="yes"/>
      <point x="327" y="1156"/>
      <point x="337" y="1180"/>
      <point x="357" y="1200" type="curve" smooth="yes"/>
      <point x="376" y="1219"/>
      <point x="400" y="1229"/>
      <point x="429" y="1229" type="curve"/>
      <point x="429" y="1434" type="line"/>
      <point x="344" y="1434"/>
      <point x="272" y="1404"/>
      <point x="212" y="1344" type="curve" smooth="yes"/>
      <point x="152" y="1284"/>
      <point x="122" y="1212"/>
      <point x="122" y="1127" type="curve" smooth="yes"/>
      <point x="122" y="-103" type="line" smooth="yes"/>
      <point x="122" y="-132"/>
      <point x="112" y="-156"/>
      <point x="92" y="-176" type="curve" smooth="yes"/>
      <point x="73" y="-195"/>
      <point x="49" y="-205"/>
      <point x="20" y="-205" type="curve"/>
    </contour>
  </outline>
</glyph>
<glyph name="tretroflexhook" format="1">
  <advance width="432"/>
  <unicode hex="0288"/>
  <outline>
    <contour>
      <point x="113" y="1329" type="line"/>
      <point x="317" y="1329" type="line"/>
      <point x="317" y="1022" type="line"/>
      <point x="420" y="1022" type="line"/>
      <point x="420" y="817" type="line"/>
      <point x="317" y="817" type="line"/>
      <point x="317" y="-103" type="line" smooth="yes"/>
      <point x="317" y="-130"/>
      <point x="327" y="-154"/>
      <point x="347" y="-174" type="curve" smooth="yes"/>
      <point x="367" y="-195"/>
      <point x="391" y="-205"/>
      <point x="420" y="-205" type="curve"/>
      <point x="420" y="-410" type="line"/>
      <point x="335" y="-410"/>
      <point x="263" y="-380"/>
      <point x="203" y="-320" type="curve" smooth="yes"/>
      <point x="143" y="-260"/>
      <point x="113" y="-188"/>
      <point x="113" y="-103" type="curve" smooth="yes"/>
      <point x="113" y="817" type="line"/>
      <point x="10" y="817" type="line"/>
      <point x="10" y="1022" type="line"/>
      <point x="113" y="1022" type="line"/>
    </contour>
  </outline>
</glyph>
<glyph name="ubar" format="1">
  <advance width="983"/>
  <unicode hex="0289"/>
  <outline>
    <contour>
      <point x="86" y="708" type="line"/>
      <point x="897" y="708" type="line"/>
      <point x="897" y="544" type="line"/>
      <point x="86" y="544" type="line"/>
    </contour>
    <component base="u" xOffset="94"/>
  </outline>
</glyph>
<glyph name="upsilon-latin" format="1">
  <advance width="786"/>
  <unicode hex="028A"/>
  <outline>
    <contour>
      <point x="86" y="1024" type="line"/>
      <point x="291" y="1024" type="line"/>
      <point x="291" y="820" type="line"/>
      <point x="251" y="654"/>
      <point x="227" y="487"/>
      <point x="254" y="353" type="curve" smooth="yes"/>
      <point x="273" y="257"/>
      <point x="323" y="205"/>
      <point x="393" y="205" type="curve" smooth="yes"/>
      <point x="463" y="205"/>
      <point x="513" y="259"/>
      <point x="532" y="353" type="curve" smooth="yes"/>
      <point x="559" y="487"/>
      <point x="536" y="654"/>
      <point x="496" y="820" type="curve"/>
      <point x="496" y="1024" type="line"/>
      <point x="700" y="1024" type="line"/>
      <point x="700" y="820" type="line"/>
      <point x="616" y="820" type="line"/>
      <point x="651" y="694"/>
      <point x="700" y="487"/>
      <point x="700" y="353" type="curve" smooth="yes"/>
      <point x="701" y="73"/>
      <point x="531" y="0"/>
      <point x="393" y="0" type="curve" smooth="yes"/>
      <point x="254" y="0"/>
      <point x="86" y="83"/>
      <point x="86" y="353" type="curve" smooth="yes"/>
      <point x="86" y="506"/>
      <point x="136" y="694"/>
      <point x="171" y="820" type="curve"/>
      <point x="86" y="820" type="line"/>
    </contour>
  </outline>
</glyph>
<glyph name="vhook" format="1">
  <advance width="847"/>
  <unicode hex="028B"/>
  <outline>
    <contour>
      <point x="86" y="1024" type="line"/>
      <point x="291" y="1024" type="line"/>
      <point x="291" y="353" type="line" smooth="yes"/>
      <point x="291" y="255"/>
      <point x="343" y="205"/>
      <point x="413" y="205" type="curve" smooth="yes"/>
      <point x="483" y="205"/>
      <point x="525" y="259"/>
      <point x="543" y="353" type="curve" smooth="yes"/>
      <point x="568" y="487"/>
      <point x="568" y="679"/>
      <point x="496" y="785" type="curve"/>
      <point x="496" y="1024" type="line"/>
      <point x="588" y="994"/>
      <point x="655" y="940"/>
      <point x="705" y="836" type="curve" smooth="yes"/>
      <point x="758" y="726"/>
      <point x="775" y="488"/>
      <point x="750" y="353" type="curve" smooth="yes"/>
      <point x="700" y="81"/>
      <point x="531" y="0"/>
      <point x="393" y="0" type="curve" smooth="yes"/>
      <point x="254" y="0"/>
      <point x="86" y="83"/>
      <point x="86" y="353" type="curve"/>
      <point x="86" y="820" type="line"/>
    </contour>
  </outline>
</glyph>
<glyph name="ezh" format="1">
  <advance width="753"/>
  <unicode hex="0292"/>
  <outline>
    <contour>
      <point x="508" y="387" type="line"/>
      <point x="683" y="819" type="line"/>
      <point x="683" y="1024" type="line"/>
      <point x="71" y="1024" type="line"/>
      <point x="71" y="819" type="line"/>
      <point x="480" y="819" type="line"/>
      <point x="316" y="407" type="line"/>
    </contour>
    <contour>
      <point x="508" y="387" type="line"/>
      <point x="559" y="361"/>
      <point x="585" y="345"/>
      <point x="616" y="309" type="curve" smooth="yes"/>
      <point x="667" y="250"/>
      <point x="684" y="180"/>
      <point x="684" y="102" type="curve" smooth="yes"/>
      <point x="684" y="-103" type="line" smooth="yes"/>
      <point x="684" y="-188"/>
      <point x="654" y="-260"/>
      <point x="594" y="-320" type="curve" smooth="yes"/>
      <point x="534" y="-380"/>
      <point x="462" y="-410"/>
      <point x="377" y="-410" type="curve" smooth="yes"/>
      <point x="292" y="-410"/>
      <point x="220" y="-380"/>
      <point x="160" y="-320" type="curve" smooth="yes"/>
      <point x="100" y="-260"/>
      <point x="70" y="-188"/>
      <point x="70" y="-103" type="curve" smooth="yes"/>
      <point x="70" y="0" type="line"/>
      <point x="274" y="0" type="line"/>
      <point x="274" y="-103" type="line" smooth="yes"/>
      <point x="274" y="-132"/>
      <point x="284" y="-156"/>
      <point x="304" y="-175" type="curve" smooth="yes"/>
      <point x="324" y="-195"/>
      <point x="348" y="-205"/>
      <point x="377" y="-205" type="curve" smooth="yes"/>
      <point x="406" y="-205"/>
      <point x="430" y="-195"/>
      <point x="450" y="-175" type="curve" smooth="yes"/>
      <point x="469" y="-156"/>
      <point x="479" y="-132"/>
      <point x="479" y="-103" type="curve" smooth="yes"/>
      <point x="479" y="102" type="line" smooth="yes"/>
      <point x="479" y="131"/>
      <point x="471" y="157"/>
      <point x="450" y="175" type="curve" smooth="yes"/>
      <point x="416" y="204"/>
      <point x="375" y="204"/>
      <point x="316" y="204" type="curve"/>
      <point x="316" y="407" type="line"/>
    </contour>
  </outline>
</glyph>
<glyph name="glottalstopreversed" format="1">
  <advance width="745"/>
  <unicode hex="0295"/>
  <outline>
    <contour>
      <point x="373" y="1434" type="curve" smooth="yes"/>
      <point x="458" y="1434"/>
      <point x="530" y="1404"/>
      <point x="590" y="1344" type="curve" smooth="yes"/>
      <point x="650" y="1283"/>
      <point x="680" y="1211"/>
      <point x="680" y="1126" type="curve" smooth="yes"/>
      <point x="680" y="1024" type="line"/>
      <point x="476" y="1024" type="line"/>
      <point x="476" y="1126" type="line" smooth="yes"/>
      <point x="476" y="1155"/>
      <point x="466" y="1179"/>
      <point x="446" y="1199" type="curve" smooth="yes"/>
      <point x="426" y="1219"/>
      <point x="402" y="1229"/>
      <point x="373" y="1229" type="curve" smooth="yes"/>
      <point x="344" y="1229"/>
      <point x="320" y="1219"/>
      <point x="301" y="1199" type="curve" smooth="yes"/>
      <point x="281" y="1179"/>
      <point x="271" y="1155"/>
      <point x="271" y="1126" type="curve" smooth="yes"/>
      <point x="271" y="1024" type="line"/>
      <point x="271" y="1004" type="line"/>
      <point x="272" y="989"/>
      <point x="275" y="968"/>
      <point x="279" y="943" type="curve" smooth="yes"/>
      <point x="283" y="918"/>
      <point x="288" y="893"/>
      <point x="295" y="870" type="curve"/>
      <point x="305" y="841"/>
      <point x="328" y="801"/>
      <point x="363" y="750" type="curve" smooth="yes"/>
      <point x="398" y="698"/>
      <point x="421" y="659"/>
      <point x="433" y="633" type="curve" smooth="yes"/>
      <point x="462" y="572"/>
      <point x="476" y="514"/>
      <point x="476" y="461" type="curve" smooth="yes"/>
      <point x="476" y="0" type="line"/>
      <point x="271" y="0" type="line"/>
      <point x="271" y="410" type="line"/>
      <point x="271" y="430" type="line"/>
      <point x="270" y="445"/>
      <point x="267" y="466"/>
      <point x="263" y="491" type="curve" smooth="yes"/>
      <point x="258" y="516"/>
      <point x="253" y="540"/>
      <point x="246" y="563" type="curve"/>
      <point x="237" y="592"/>
      <point x="215" y="632"/>
      <point x="180" y="684" type="curve" smooth="yes"/>
      <point x="145" y="736"/>
      <point x="121" y="775"/>
      <point x="109" y="801" type="curve" smooth="yes"/>
      <point x="80" y="862"/>
      <point x="66" y="920"/>
      <point x="66" y="973" type="curve" smooth="yes"/>
      <point x="66" y="1126" type="line" smooth="yes"/>
      <point x="66" y="1211"/>
      <point x="96" y="1283"/>
      <point x="156" y="1344" type="curve" smooth="yes"/>
      <point x="216" y="1404"/>
      <point x="288" y="1434"/>
    </contour>
  </outline>
</glyph>
<glyph name="apostrophemod" format="1">
  <advance width="376"/>
  <unicode hex="02BC"/>
  <outline>
    <contour>
      <point x="104" y="1562" type="line"/>
      <point x="272" y="1563" type="line"/>
      <point x="272" y="1358" type="line"/>
      <point x="104" y="1152" type="line"/>
    </contour>
  </outline>
</glyph>
<glyph name="gravecomb" format="1">
  <advance width="444"/>
  <unicode hex="0300"/>
  <outline>
    <contour>
      <point x="40" y="1462" type="line"/>
      <point x="234" y="1462" type="line"/>
      <point x="404" y="1224" type="line"/>
      <point x="243" y="1224" type="line"/>
    </contour>
  </outline>
</glyph>
<glyph name="acutecomb" format="1">
  <advance width="444"/>
  <unicode hex="0301"/>
  <outline>
    <contour>
      <point x="404" y="1460.719" type="line"/>
      <point x="201" y="1224.718" type="line"/>
      <point x="40" y="1224.718" type="line"/>
      <point x="210" y="1460.719" type="line"/>
    </contour>
  </outline>
</glyph>
<glyph name="circumflexcomb" format="1">
  <advance width="647"/>
  <unicode hex="0302"/>
  <outline>
    <contour>
      <point x="40" y="1213" type="line"/>
      <point x="261" y="1434" type="line"/>
      <point x="387" y="1434" type="line"/>
      <point x="607" y="1213" type="line"/>
      <point x="394" y="1213" type="line"/>
      <point x="324" y="1283" type="line"/>
      <point x="254" y="1213" type="line"/>
    </contour>
  </outline>
</glyph>
<glyph name="tildecomb" format="1">
  <advance width="602"/>
  <unicode hex="0303"/>
  <outline>
    <contour>
      <point x="453" y="1270" type="curve" smooth="yes"/>
      <point x="432" y="1260"/>
      <point x="406" y="1255"/>
      <point x="376" y="1255" type="curve" smooth="yes"/>
      <point x="369" y="1255"/>
      <point x="361" y="1255"/>
      <point x="353" y="1256" type="curve" smooth="yes"/>
      <point x="319" y="1259"/>
      <point x="284" y="1269"/>
      <point x="252" y="1295" type="curve" smooth="yes"/>
      <point x="245" y="1301"/>
      <point x="238" y="1304"/>
      <point x="229" y="1304" type="curve" smooth="yes"/>
      <point x="225" y="1304"/>
      <point x="219" y="1303"/>
      <point x="213" y="1300" type="curve" smooth="yes"/>
      <point x="206" y="1297"/>
      <point x="196" y="1290"/>
      <point x="193" y="1275" type="curve"/>
      <point x="40" y="1275" type="line"/>
      <point x="41" y="1308"/>
      <point x="50" y="1339"/>
      <point x="69" y="1368" type="curve" smooth="yes"/>
      <point x="88" y="1399"/>
      <point x="114" y="1423"/>
      <point x="148" y="1439" type="curve" smooth="yes"/>
      <point x="175" y="1451"/>
      <point x="202" y="1457"/>
      <point x="229" y="1457" type="curve" smooth="yes"/>
      <point x="237" y="1457"/>
      <point x="246" y="1456"/>
      <point x="254" y="1455" type="curve" smooth="yes"/>
      <point x="290" y="1450"/>
      <point x="322" y="1436"/>
      <point x="349" y="1413" type="curve" smooth="yes"/>
      <point x="356" y="1408"/>
      <point x="364" y="1405"/>
      <point x="372" y="1405" type="curve" smooth="yes"/>
      <point x="377" y="1405"/>
      <point x="382" y="1406"/>
      <point x="388" y="1408" type="curve" smooth="yes"/>
      <point x="396" y="1412"/>
      <point x="406" y="1419"/>
      <point x="408" y="1434" type="curve"/>
      <point x="562" y="1434" type="line"/>
      <point x="560" y="1401"/>
      <point x="549" y="1369"/>
      <point x="528" y="1338" type="curve" smooth="yes"/>
      <point x="505" y="1305"/>
      <point x="480" y="1282"/>
    </contour>
  </outline>
</glyph>
<glyph name="macroncomb" format="1">
  <advance width="572"/>
  <unicode hex="0304"/>
  <outline>
    <contour>
      <point x="40" y="1434" type="line"/>
      <point x="532" y="1434" type="line"/>
      <point x="532" y="1270" type="line"/>
      <point x="40" y="1270" type="line"/>
    </contour>
  </outline>
</glyph>
<glyph name="brevecomb" format="1">
  <advance width="571"/>
  <unicode hex="0306"/>
  <outline>
    <contour>
      <point x="531" y="1638" type="curve"/>
      <point x="381" y="1638" type="line"/>
      <point x="381" y="1585"/>
      <point x="339" y="1542"/>
      <point x="287" y="1542" type="curve" smooth="yes"/>
      <point x="234" y="1542"/>
      <point x="190" y="1585"/>
      <point x="190" y="1638" type="curve"/>
      <point x="40" y="1638" type="line"/>
      <point x="40" y="1503"/>
      <point x="150" y="1392"/>
      <point x="287" y="1392" type="curve" smooth="yes"/>
      <point x="421" y="1392"/>
      <point x="531" y="1503"/>
    </contour>
  </outline>
</glyph>
<glyph name="dotaccentcomb" format="1">
  <advance width="283"/>
  <unicode hex="0307"/>
  <outline>
    <contour>
      <point x="40" y="1432" type="line"/>
      <point x="243" y="1432" type="line"/>
      <point x="243" y="1229" type="line"/>
      <point x="40" y="1229" type="line"/>
    </contour>
  </outline>
</glyph>
<glyph name="dieresiscomb" format="1">
  <advance width="693"/>
  <unicode hex="0308"/>
  <outline>
    <contour>
      <point x="40" y="1432" type="line"/>
      <point x="243" y="1432" type="line"/>
      <point x="243" y="1229" type="line"/>
      <point x="40" y="1229" type="line"/>
    </contour>
    <contour>
      <point x="450" y="1432" type="line"/>
      <point x="653" y="1432" type="line"/>
      <point x="653" y="1229" type="line"/>
      <point x="450" y="1229" type="line"/>
    </contour>
  </outline>
</glyph>
<glyph name="hookabovecomb" format="1">
  <advance width="377"/>
  <unicode hex="0309"/>
  <outline>
    <contour>
      <point x="268" y="1087" type="line"/>
      <point x="342" y="1164"/>
      <point x="359" y="1277"/>
      <point x="305" y="1355" type="curve" smooth="yes"/>
      <point x="250" y="1432"/>
      <point x="137" y="1456"/>
      <point x="40" y="1413" type="curve"/>
      <point x="64" y="1272" type="line"/>
      <point x="106" y="1289"/>
      <point x="137" y="1281"/>
      <point x="157" y="1252" type="curve" smooth="yes"/>
      <point x="177" y="1223"/>
      <point x="175" y="1191"/>
      <point x="144" y="1158" type="curve"/>
    </contour>
  </outline>
</glyph>
<glyph name="ringcomb" format="1">
  <advance width="491"/>
  <unicode hex="030A"/>
  <outline>
    <contour>
      <point x="246" y="1228" type="curve" smooth="yes"/>
      <point x="359" y="1228"/>
      <point x="451" y="1320"/>
      <point x="451" y="1434" type="curve" smooth="yes"/>
      <point x="451" y="1547"/>
      <point x="359" y="1639"/>
      <point x="246" y="1639" type="curve" smooth="yes"/>
      <point x="132" y="1639"/>
      <point x="40" y="1547"/>
      <point x="40" y="1434" type="curve" smooth="yes"/>
      <point x="40" y="1320"/>
      <point x="132" y="1228"/>
    </contour>
    <contour>
      <point x="246" y="1354" type="curve" smooth="yes"/>
      <point x="202" y="1354"/>
      <point x="166" y="1390"/>
      <point x="166" y="1434" type="curve" smooth="yes"/>
      <point x="166" y="1477"/>
      <point x="202" y="1513"/>
      <point x="246" y="1513" type="curve" smooth="yes"/>
      <point x="289" y="1513"/>
      <point x="325" y="1477"/>
      <point x="325" y="1434" type="curve" smooth="yes"/>
      <point x="325" y="1390"/>
      <point x="289" y="1354"/>
    </contour>
  </outline>
</glyph>
<glyph name="caroncomb" format="1">
  <advance width="647"/>
  <unicode hex="030C"/>
  <outline>
    <contour>
      <point x="607" y="1434" type="line"/>
      <point x="386" y="1213" type="line"/>
      <point x="260" y="1213" type="line"/>
      <point x="40" y="1434" type="line"/>
      <point x="253" y="1434" type="line"/>
      <point x="323" y="1364" type="line"/>
      <point x="393" y="1434" type="line"/>
    </contour>
  </outline>
</glyph>
<glyph name="commaturnedabovecomb" format="1">
  <advance width="288"/>
  <unicode hex="0312"/>
  <outline>
    <contour>
      <point x="245" y="1199" type="line"/>
      <point x="40" y="1199" type="line"/>
      <point x="43" y="1433" type="line"/>
      <point x="248" y="1638" type="line"/>
    </contour>
  </outline>
</glyph>
<glyph name="horncomb" format="1">
  <advance width="258"/>
  <unicode hex="031B"/>
  <outline>
    <contour>
      <point x="40" y="1369" type="line"/>
      <point x="218" y="1370" type="line"/>
      <point x="218" y="1165" type="line"/>
      <point x="40" y="959" type="line"/>
    </contour>
  </outline>
</glyph>
<glyph name="dotbelowcomb" format="1">
  <advance width="285"/>
  <unicode hex="0323"/>
  <outline>
    <contour>
      <point x="40" y="-114" type="line"/>
      <point x="245" y="-114" type="line"/>
      <point x="245" y="-319" type="line"/>
      <point x="40" y="-319" type="line"/>
    </contour>
  </outline>
</glyph>
<glyph name="commaaccentcomb" format="1">
  <advance width="288"/>
  <unicode hex="0326"/>
  <outline>
    <contour>
      <point x="43" y="-100" type="line"/>
      <point x="248" y="-100" type="line"/>
      <point x="245" y="-334" type="line"/>
      <point x="40" y="-539" type="line"/>
    </contour>
  </outline>
</glyph>
<glyph name="cedillacomb" format="1">
  <advance width="444"/>
  <unicode hex="0327"/>
  <outline>
    <contour>
      <point x="404" y="14" type="line"/>
      <point x="201" y="-224" type="line"/>
      <point x="40" y="-224" type="line"/>
      <point x="210" y="14" type="line"/>
    </contour>
  </outline>
</glyph>
<glyph name="ogonekcomb" format="1">
  <advance width="365"/>
  <unicode hex="0328"/>
  <outline>
    <contour>
      <point x="65" y="0" type="curve"/>
      <point x="268" y="0" type="line"/>
      <point x="213" y="-40"/>
      <point x="224" y="-135"/>
      <point x="325" y="-115" type="curve"/>
      <point x="325" y="-290" type="line"/>
      <point x="48" y="-336"/>
      <point x="2" y="-116"/>
    </contour>
  </outline>
</glyph>
<glyph name="strokeshortcomb" format="1">
  <advance width="572"/>
  <unicode hex="0335"/>
  <outline>
    <contour>
      <point x="40" y="729" type="line"/>
      <point x="532" y="729" type="line"/>
      <point x="532" y="565" type="line"/>
      <point x="40" y="565" type="line"/>
    </contour>
  </outline>
</glyph>
<glyph name="slashlongcomb" format="1">
  <advance width="679"/>
  <unicode hex="0338"/>
  <outline>
    <contour>
      <point x="456" y="1637" type="line"/>
      <point x="629" y="1637" type="line"/>
      <point x="223" y="-203" type="line"/>
      <point x="50" y="-203" type="line"/>
    </contour>
  </outline>
</glyph>
<glyph name="Germandbls" format="1">
  <advance width="863"/>
  <unicode hex="1E9E"/>
  <outline>
    <contour>
      <point x="633" y="797" type="line"/>
      <point x="808" y="1229" type="line"/>
      <point x="808" y="1434" type="line"/>
      <point x="327" y="1434" type="line"/>
      <point x="327" y="1229" type="line"/>
      <point x="605" y="1229" type="line"/>
      <point x="441" y="817" type="line"/>
    </contour>
    <contour>
      <point x="633" y="797" type="line"/>
      <point x="684" y="771"/>
      <point x="710" y="755"/>
      <point x="741" y="719" type="curve" smooth="yes"/>
      <point x="792" y="660"/>
      <point x="809" y="590"/>
      <point x="809" y="512" type="curve" smooth="yes"/>
      <point x="809" y="307" type="line" smooth="yes"/>
      <point x="809" y="222"/>
      <point x="779" y="150"/>
      <point x="719" y="90" type="curve" smooth="yes"/>
      <point x="659" y="30"/>
      <point x="587" y="0"/>
      <point x="502" y="0" type="curve" smooth="yes"/>
      <point x="417" y="0"/>
      <point x="345" y="30"/>
      <point x="285" y="90" type="curve"/>
      <point x="429" y="235" type="line"/>
      <point x="449" y="215"/>
      <point x="473" y="205"/>
      <point x="502" y="205" type="curve" smooth="yes"/>
      <point x="531" y="205"/>
      <point x="555" y="215"/>
      <point x="575" y="235" type="curve" smooth="yes"/>
      <point x="594" y="254"/>
      <point x="604" y="278"/>
      <point x="604" y="307" type="curve" smooth="yes"/>
      <point x="604" y="512" type="line" smooth="yes"/>
      <point x="604" y="541"/>
      <point x="596" y="567"/>
      <point x="575" y="585" type="curve" smooth="yes"/>
      <point x="541" y="614"/>
      <point x="500" y="614"/>
      <point x="441" y="614" type="curve"/>
      <point x="441" y="817" type="line"/>
    </contour>
    <contour>
      <point x="327" y="1434" type="line"/>
      <point x="242" y="1434"/>
      <point x="170" y="1404"/>
      <point x="111" y="1345" type="curve" smooth="yes"/>
      <point x="52" y="1285"/>
      <point x="21" y="1213"/>
      <point x="20" y="1130" type="curve"/>
      <point x="20" y="0" type="line"/>
      <point x="225" y="0" type="line"/>
      <point x="225" y="1126" type="line"/>
      <point x="225" y="1155"/>
      <point x="235" y="1179"/>
      <point x="255" y="1199" type="curve" smooth="yes"/>
      <point x="274" y="1219"/>
      <point x="298" y="1229"/>
      <point x="327" y="1229" type="curve"/>
    </contour>
  </outline>
</glyph>
<glyph name="quoteleft" format="1">
  <advance width="376"/>
  <unicode hex="2018"/>
  <outline>
    <contour>
      <point x="272" y="1564" type="line"/>
      <point x="104" y="1563" type="line"/>
      <point x="104" y="1358" type="line"/>
      <point x="272" y="1154" type="line"/>
    </contour>
  </outline>
</glyph>
<glyph name="dagger" format="1">
  <advance width="547"/>
  <unicode hex="2020"/>
  <outline>
    <contour>
      <point x="14" y="1070" type="line"/>
      <point x="162" y="1070" type="line"/>
      <point x="162" y="1" type="line"/>
      <point x="367" y="1" type="line"/>
      <point x="367" y="1070" type="line"/>
      <point x="506" y="1070" type="line"/>
      <point x="506" y="1234" type="line"/>
      <point x="367" y="1234" type="line"/>
      <point x="367" y="1445" type="line"/>
      <point x="162" y="1445" type="line"/>
      <point x="162" y="1234" type="line"/>
      <point x="14" y="1234" type="line"/>
    </contour>
  </outline>
</glyph>
<glyph name="daggerdbl" format="1">
  <advance width="547"/>
  <unicode hex="2021"/>
  <outline>
    <contour>
      <point x="14" y="222" type="line"/>
      <point x="162" y="222" type="line"/>
      <point x="162" y="1" type="line"/>
      <point x="367" y="1" type="line"/>
      <point x="367" y="222" type="line"/>
      <point x="506" y="222" type="line"/>
      <point x="506" y="386" type="line"/>
      <point x="367" y="386" type="line"/>
      <point x="367" y="1070" type="line"/>
      <point x="506" y="1070" type="line"/>
      <point x="506" y="1234" type="line"/>
      <point x="367" y="1234" type="line"/>
      <point x="367" y="1445" type="line"/>
      <point x="162" y="1445" type="line"/>
      <point x="162" y="1234" type="line"/>
      <point x="14" y="1234" type="line"/>
      <point x="14" y="1070" type="line"/>
      <point x="162" y="1070" type="line"/>
      <point x="162" y="386" type="line"/>
      <point x="14" y="386" type="line"/>
    </contour>
  </outline>
</glyph>
<glyph name="fraction" format="1">
  <advance width="966"/>
  <unicode hex="2044"/>
  <outline>
    <contour>
      <point x="1142" y="1522" type="line"/>
      <point x="969" y="1522" type="line"/>
      <point x="-86" y="-16" type="line"/>
      <point x="87" y="-16" type="line"/>
    </contour>
  </outline>
</glyph>
<glyph name="euro" format="1">
  <advance width="856"/>
  <unicode hex="20AC"/>
  <outline>
    <contour>
      <point x="-1" y="454" type="line"/>
      <point x="204" y="454" type="line"/>
      <point x="204" y="304" type="line" smooth="yes"/>
      <point x="204" y="220"/>
      <point x="234.167" y="147.833"/>
      <point x="294.5" y="87.5" type="curve" smooth="yes"/>
      <point x="354.833" y="27.167"/>
      <point x="427" y="-3"/>
      <point x="511" y="-3" type="curve" smooth="yes"/>
      <point x="566.333" y="-3"/>
      <point x="617.5" y="10.833"/>
      <point x="664.5" y="38.5" type="curve" smooth="yes"/>
      <point x="711.5" y="66.167"/>
      <point x="748.833" y="103.5"/>
      <point x="776.5" y="150.5" type="curve" smooth="yes"/>
      <point x="804.167" y="197.5"/>
      <point x="818" y="248.667"/>
      <point x="818" y="304" type="curve" smooth="yes"/>
      <point x="818" y="407" type="line"/>
      <point x="614" y="407" type="line"/>
      <point x="614" y="304" type="line" smooth="yes"/>
      <point x="614" y="275.333"/>
      <point x="604" y="251.167"/>
      <point x="584" y="231.5" type="curve" smooth="yes"/>
      <point x="564" y="211.833"/>
      <point x="539.667" y="202"/>
      <point x="511" y="202" type="curve" smooth="yes"/>
      <point x="482.333" y="202"/>
      <point x="458.167" y="211.833"/>
      <point x="438.5" y="231.5" type="curve" smooth="yes"/>
      <point x="418.833" y="251.167"/>
      <point x="409" y="275.333"/>
      <point x="409" y="304" type="curve" smooth="yes"/>
      <point x="409" y="454" type="line"/>
      <point x="614" y="454" type="line"/>
      <point x="614" y="659" type="line"/>
      <point x="409" y="659" type="line"/>
      <point x="409" y="761" type="line"/>
      <point x="614" y="761" type="line"/>
      <point x="614" y="966" type="line"/>
      <point x="409" y="966" type="line"/>
      <point x="409" y="1123" type="line" smooth="yes"/>
      <point x="409" y="1151.667"/>
      <point x="418.833" y="1176"/>
      <point x="438.5" y="1196" type="curve" smooth="yes"/>
      <point x="458.167" y="1216"/>
      <point x="482.333" y="1226"/>
      <point x="511" y="1226" type="curve" smooth="yes"/>
      <point x="539.667" y="1226"/>
      <point x="564" y="1216"/>
      <point x="584" y="1196" type="curve" smooth="yes"/>
      <point x="604" y="1176"/>
      <point x="614" y="1151.667"/>
      <point x="614" y="1123" type="curve" smooth="yes"/>
      <point x="614" y="1021" type="line"/>
      <point x="818" y="1021" type="line"/>
      <point x="818" y="1123" type="line" smooth="yes"/>
      <point x="818" y="1208.06"/>
      <point x="787.565" y="1280.659"/>
      <point x="726.695" y="1340.795" type="curve" smooth="yes"/>
      <point x="665.825" y="1400.932"/>
      <point x="590.594" y="1431"/>
      <point x="501" y="1431" type="curve" smooth="yes"/>
      <point x="453" y="1431"/>
      <point x="405.333" y="1417.167"/>
      <point x="358" y="1389.5" type="curve" smooth="yes"/>
      <point x="310.667" y="1361.833"/>
      <point x="273.167" y="1324.167"/>
      <point x="245.5" y="1276.5" type="curve" smooth="yes"/>
      <point x="217.833" y="1228.833"/>
      <point x="204" y="1177.667"/>
      <point x="204" y="1123" type="curve" smooth="yes"/>
      <point x="204" y="966" type="line"/>
      <point x="-1" y="966" type="line"/>
      <point x="-1" y="761" type="line"/>
      <point x="204" y="761" type="line"/>
      <point x="204" y="659" type="line"/>
      <point x="-1" y="659" type="line"/>
    </contour>
  </outline>
</glyph>
<glyph name="leftArrow" format="1">
  <advance width="1062"/>
  <unicode hex="2190"/>
  <outline>
    <contour>
      <point x="0" y="410" type="line"/>
      <point x="0" y="615" type="line"/>
      <point x="290" y="905" type="line"/>
      <point x="434" y="760" type="line"/>
      <point x="278" y="615" type="line"/>
      <point x="1024" y="615" type="line"/>
      <point x="1024" y="410" type="line"/>
      <point x="278" y="410" type="line"/>
      <point x="435" y="265" type="line"/>
      <point x="290" y="120" type="line"/>
    </contour>
  </outline>
</glyph>
<glyph name="upArrow" format="1">
  <advance width="1062"/>
  <unicode hex="2191"/>
  <outline>
    <contour>
      <point x="120" y="735" type="line"/>
      <point x="265" y="590" type="line"/>
      <point x="410" y="734" type="line"/>
      <point x="410" y="0" type="line"/>
      <point x="615" y="0" type="line"/>
      <point x="615" y="735" type="line"/>
      <point x="760" y="590" type="line"/>
      <point x="905" y="735" type="line"/>
      <point x="615" y="1024" type="line"/>
      <point x="410" y="1024" type="line"/>
      <point x="410" y="1025" type="line"/>
    </contour>
  </outline>
</glyph>
<glyph name="rightArrow" format="1">
  <advance width="1062"/>
  <unicode hex="2192"/>
  <outline>
    <contour>
      <point x="0" y="410" type="line"/>
      <point x="734" y="410" type="line"/>
      <point x="590" y="265" type="line"/>
      <point x="734" y="120" type="line"/>
      <point x="1024" y="410" type="line"/>
      <point x="1024" y="615" type="line"/>
      <point x="735" y="905" type="line"/>
      <point x="590" y="760" type="line"/>
      <point x="735" y="615" type="line"/>
      <point x="0" y="615" type="line"/>
    </contour>
  </outline>
</glyph>
<glyph name="downArrow" format="1">
  <advance width="1062"/>
  <unicode hex="2193"/>
  <outline>
    <contour>
      <point x="120" y="291" type="line"/>
      <point x="410" y="1" type="line"/>
      <point x="614" y="1" type="line"/>
      <point x="615" y="0" type="line"/>
      <point x="905" y="290" type="line"/>
      <point x="760" y="435" type="line"/>
      <point x="614" y="289" type="line"/>
      <point x="614" y="1025" type="line"/>
      <point x="410" y="1025" type="line"/>
      <point x="410" y="291" type="line"/>
      <point x="265" y="435" type="line"/>
    </contour>
  </outline>
</glyph>
<glyph name="northWestArrow" format="1">
  <advance width="1062"/>
  <unicode hex="2196"/>
  <outline>
    <contour>
      <point x="965" y="296" type="line"/>
      <point x="445" y="816" type="line"/>
      <point x="650" y="816" type="line"/>
      <point x="650" y="1021" type="line"/>
      <point x="241" y="1021" type="line"/>
      <point x="241" y="1020" type="line"/>
      <point x="96" y="875" type="line"/>
      <point x="96" y="466" type="line"/>
      <point x="301" y="466" type="line"/>
      <point x="301" y="670" type="line"/>
      <point x="820" y="151" type="line"/>
    </contour>
  </outline>
</glyph>
<glyph name="northEastArrow" format="1">
  <advance width="1062"/>
  <unicode hex="2197"/>
  <outline>
    <contour>
      <point x="96" y="296" type="line"/>
      <point x="241" y="151" type="line"/>
      <point x="760" y="670" type="line"/>
      <point x="760" y="466" type="line"/>
      <point x="965" y="466" type="line"/>
      <point x="965" y="875" type="line"/>
      <point x="820" y="1020" type="line"/>
      <point x="820" y="1021" type="line"/>
      <point x="411" y="1021" type="line"/>
      <point x="411" y="816" type="line"/>
      <point x="616" y="816" type="line"/>
    </contour>
  </outline>
</glyph>
<glyph name="southEastArrow" format="1">
  <advance width="1062"/>
  <unicode hex="2198"/>
  <outline>
    <contour>
      <point x="3" y="724" type="line"/>
      <point x="522" y="205" type="line"/>
      <point x="317" y="205" type="line"/>
      <point x="317" y="0" type="line"/>
      <point x="727" y="0" type="line"/>
      <point x="872" y="145" type="line"/>
      <point x="873" y="145" type="line"/>
      <point x="873" y="555" type="line"/>
      <point x="668" y="555" type="line"/>
      <point x="668" y="349" type="line"/>
      <point x="148" y="869" type="line"/>
    </contour>
  </outline>
</glyph>
<glyph name="southWestArrow" format="1">
  <advance width="1062"/>
  <unicode hex="2199"/>
  <outline>
    <contour>
      <point x="873" y="724" type="line"/>
      <point x="728" y="869" type="line"/>
      <point x="208" y="349" type="line"/>
      <point x="208" y="555" type="line"/>
      <point x="3" y="555" type="line"/>
      <point x="3" y="145" type="line"/>
      <point x="4" y="145" type="line"/>
      <point x="149" y="0" type="line"/>
      <point x="559" y="0" type="line"/>
      <point x="559" y="205" type="line"/>
      <point x="354" y="205" type="line"/>
    </contour>
  </outline>
</glyph>
<glyph name="approxequal" format="1">
  <advance width="584"/>
  <unicode hex="2248"/>
  <outline>
    <contour>
      <point x="157.714" y="551.467" type="curve"/>
      <point x="24.351" y="622.907" type="line"/>
      <point x="66.784" y="703.636"/>
      <point x="137.269" y="744.134"/>
      <point x="235.807" y="744.401" type="curve"/>
      <point x="264.602" y="744.134"/>
      <point x="290.503" y="738.11"/>
      <point x="313.509" y="726.33" type="curve"/>
      <point x="336.503" y="714.11"/>
      <point x="353.853" y="708.086"/>
      <point x="365.558" y="708.259" type="curve"/>
      <point x="395.853" y="708.086"/>
      <point x="418.197" y="721.558"/>
      <point x="432.591" y="748.673" type="curve"/>
      <point x="565.954" y="677.232" type="line"/>
      <point x="519.985" y="592.411"/>
      <point x="450.166" y="549.912"/>
      <point x="356.498" y="549.737" type="curve"/>
      <point x="332.833" y="549.912"/>
      <point x="306.341" y="557.77"/>
      <point x="277.023" y="573.309" type="curve"/>
      <point x="254.341" y="585.77"/>
      <point x="237.079" y="591.96"/>
      <point x="225.237" y="591.881" type="curve"/>
      <point x="194.412" y="591.96"/>
      <point x="171.905" y="578.489"/>
    </contour>
    <contour>
      <point x="150.714" y="301.467" type="curve"/>
      <point x="17.351" y="372.907" type="line"/>
      <point x="59.784" y="453.636"/>
      <point x="130.269" y="494.134"/>
      <point x="228.807" y="494.401" type="curve" smooth="yes"/>
      <point x="257.602" y="494.134"/>
      <point x="283.503" y="488.11"/>
      <point x="306.509" y="476.33" type="curve" smooth="yes"/>
      <point x="329.503" y="464.11"/>
      <point x="346.853" y="458.086"/>
      <point x="358.558" y="458.259" type="curve" smooth="yes"/>
      <point x="388.853" y="458.086"/>
      <point x="411.197" y="471.558"/>
      <point x="425.591" y="498.673" type="curve"/>
      <point x="558.954" y="427.232" type="line"/>
      <point x="512.985" y="342.411"/>
      <point x="443.166" y="299.912"/>
      <point x="349.498" y="299.737" type="curve" smooth="yes"/>
      <point x="325.833" y="299.912"/>
      <point x="299.341" y="307.77"/>
      <point x="270.023" y="323.309" type="curve" smooth="yes"/>
      <point x="247.341" y="335.77"/>
      <point x="230.079" y="341.96"/>
      <point x="218.237" y="341.881" type="curve" smooth="yes"/>
      <point x="187.412" y="341.96"/>
      <point x="164.905" y="328.489"/>
    </contour>
  </outline>
</glyph>
<glyph name="lessequal" format="1">
  <advance width="901"/>
  <unicode hex="2264"/>
  <outline>
    <contour>
      <point x="-1" y="1" type="line"/>
      <point x="614" y="1" type="line"/>
      <point x="614" y="155" type="line"/>
      <point x="609.111" y="155.889"/>
      <point x="591.63" y="156.333"/>
      <point x="561.556" y="156.333" type="curve"/>
      <point x="561.556" y="156.333"/>
      <point x="409" y="155"/>
      <point x="409" y="155" type="curve"/>
      <point x="-1" y="155" type="line"/>
    </contour>
    <contour>
      <point x="6" y="742" type="line"/>
      <point x="437" y="313" type="line"/>
      <point x="437" y="529" type="line"/>
      <point x="223" y="742" type="line"/>
      <point x="437" y="954" type="line"/>
      <point x="437" y="1171" type="line"/>
    </contour>
  </outline>
</glyph>
<glyph name="greaterequal" format="1">
  <advance width="703"/>
  <unicode hex="2265"/>
  <outline>
    <contour>
      <point x="37" y="1" type="line"/>
      <point x="652" y="1" type="line"/>
      <point x="652" y="155" type="line"/>
      <point x="37" y="155" type="line"/>
    </contour>
    <contour>
      <point x="221" y="271" type="line"/>
      <point x="221" y="487" type="line"/>
      <point x="435" y="700" type="line"/>
      <point x="221" y="912" type="line"/>
      <point x="221" y="1129" type="line"/>
      <point x="652" y="700" type="line"/>
    </contour>
  </outline>
</glyph>
<glyph name="Rtail" format="1">
  <advance width="788"/>
  <unicode hex="2C64"/>
  <outline>
    <contour>
      <point x="301" y="224" type="line"/>
      <point x="301" y="0" type="line" smooth="yes"/>
      <point x="301" y="-29"/>
      <point x="311" y="-53"/>
      <point x="330" y="-73" type="curve" smooth="yes"/>
      <point x="350" y="-92"/>
      <point x="374" y="-102"/>
      <point x="403" y="-102" type="curve"/>
      <point x="403" y="-307" type="line"/>
      <point x="318" y="-307"/>
      <point x="246" y="-277"/>
      <point x="186" y="-217" type="curve" smooth="yes"/>
      <point x="126" y="-157"/>
      <point x="98" y="-85"/>
      <point x="98" y="0" type="curve" smooth="yes"/>
      <point x="98" y="224" type="line"/>
    </contour>
    <component base="R"/>
  </outline>
</glyph>
<glyph name="Alpha-latin" format="1">
  <advance width="732"/>
  <unicode hex="2C6D"/>
  <outline>
    <contour>
      <point x="57" y="205" type="line"/>
      <point x="57" y="1229" type="line"/>
      <point x="59" y="1250" type="line" smooth="yes"/>
      <point x="59" y="1265"/>
      <point x="63" y="1282"/>
      <point x="70" y="1302" type="curve" smooth="yes"/>
      <point x="77" y="1322"/>
      <point x="87" y="1342"/>
      <point x="100" y="1362" type="curve" smooth="yes"/>
      <point x="113" y="1381"/>
      <point x="134" y="1398"/>
      <point x="162" y="1413" type="curve" smooth="yes"/>
      <point x="190" y="1427"/>
      <point x="223" y="1434"/>
      <point x="261" y="1434" type="curve" smooth="yes"/>
      <point x="300" y="1434"/>
      <point x="333" y="1427"/>
      <point x="361" y="1412" type="curve" smooth="yes"/>
      <point x="389" y="1397"/>
      <point x="409" y="1380"/>
      <point x="422" y="1363" type="curve" smooth="yes"/>
      <point x="435" y="1345"/>
      <point x="446" y="1324"/>
      <point x="453" y="1301" type="curve" smooth="yes"/>
      <point x="460" y="1278"/>
      <point x="464" y="1261"/>
      <point x="465" y="1252" type="curve" smooth="yes"/>
      <point x="466" y="1242"/>
      <point x="466" y="1224"/>
      <point x="466" y="1229" type="curve" smooth="yes"/>
      <point x="466" y="1434" type="line"/>
      <point x="671" y="1434" type="line"/>
      <point x="671" y="0" type="line"/>
      <point x="466" y="0" type="line"/>
      <point x="466" y="205" type="line" smooth="yes"/>
      <point x="466" y="210"/>
      <point x="466" y="192"/>
      <point x="465" y="182" type="curve" smooth="yes"/>
      <point x="464" y="173"/>
      <point x="460" y="156"/>
      <point x="453" y="133" type="curve" smooth="yes"/>
      <point x="446" y="110"/>
      <point x="435" y="89"/>
      <point x="422" y="71" type="curve" smooth="yes"/>
      <point x="409" y="54"/>
      <point x="389" y="37"/>
      <point x="361" y="22" type="curve" smooth="yes"/>
      <point x="333" y="7"/>
      <point x="300" y="0"/>
      <point x="261" y="0" type="curve" smooth="yes"/>
      <point x="223" y="0"/>
      <point x="190" y="7"/>
      <point x="162" y="21" type="curve" smooth="yes"/>
      <point x="134" y="36"/>
      <point x="113" y="53"/>
      <point x="100" y="72" type="curve" smooth="yes"/>
      <point x="87" y="92"/>
      <point x="77" y="112"/>
      <point x="70" y="132" type="curve" smooth="yes"/>
      <point x="63" y="152"/>
      <point x="60" y="169"/>
      <point x="59" y="184" type="curve" smooth="yes"/>
    </contour>
    <contour>
      <point x="261" y="305" type="line" smooth="yes"/>
      <point x="261" y="300"/>
      <point x="262" y="293"/>
      <point x="264" y="285" type="curve" smooth="yes"/>
      <point x="267" y="278"/>
      <point x="271" y="267"/>
      <point x="276" y="252" type="curve" smooth="yes"/>
      <point x="281" y="238"/>
      <point x="291" y="227"/>
      <point x="306" y="218" type="curve" smooth="yes"/>
      <point x="321" y="209"/>
      <point x="341" y="205"/>
      <point x="364" y="205" type="curve" smooth="yes"/>
      <point x="385" y="205"/>
      <point x="402" y="209"/>
      <point x="417" y="217" type="curve" smooth="yes"/>
      <point x="432" y="225"/>
      <point x="443" y="235"/>
      <point x="449" y="247" type="curve" smooth="yes"/>
      <point x="455" y="260"/>
      <point x="459" y="270"/>
      <point x="462" y="278" type="curve" smooth="yes"/>
      <point x="465" y="287"/>
      <point x="466" y="295"/>
      <point x="466" y="303" type="curve" smooth="yes"/>
      <point x="466" y="1131" type="line" smooth="yes"/>
      <point x="466" y="1139"/>
      <point x="465" y="1147"/>
      <point x="462" y="1156" type="curve" smooth="yes"/>
      <point x="459" y="1164"/>
      <point x="455" y="1174"/>
      <point x="449" y="1187" type="curve" smooth="yes"/>
      <point x="443" y="1199"/>
      <point x="432" y="1209"/>
      <point x="417" y="1217" type="curve" smooth="yes"/>
      <point x="402" y="1225"/>
      <point x="385" y="1229"/>
      <point x="364" y="1229" type="curve" smooth="yes"/>
      <point x="341" y="1229"/>
      <point x="321" y="1225"/>
      <point x="306" y="1216" type="curve" smooth="yes"/>
      <point x="291" y="1207"/>
      <point x="281" y="1196"/>
      <point x="276" y="1182" type="curve" smooth="yes"/>
      <point x="271" y="1167"/>
      <point x="267" y="1156"/>
      <point x="264" y="1149" type="curve" smooth="yes"/>
      <point x="262" y="1141"/>
      <point x="261" y="1134"/>
      <point x="261" y="1129" type="curve" smooth="yes"/>
    </contour>
  </outline>
</glyph>
